<?xml version="1.0" encoding="UTF-8"?>
<svg width="19px" height="20px" viewBox="0 0 19 20" version="1.1" xmlns="http://www.w3.org/2000/svg" xmlns:xlink="http://www.w3.org/1999/xlink">
    <g stroke="none" stroke-width="1" fill="none" fill-rule="evenodd">
        <g transform="translate(-633.000000, -941.000000)" fill="#393939">
            <g transform="translate(630.000000, 939.000000)">
                <path d="M20.1288142,20.3325 C20.0529809,20.5216667 20.2154809,20.5991667 20.3871476,20.455 C21.5029809,19.5216667 21.7913142,17.5666667 21.5629809,17.285 C21.3363142,17.005 19.3863142,16.7633333 18.1963142,17.5991667 C18.0129809,17.7275 18.0446476,17.905 18.2479809,17.88 C18.9188142,17.8 20.4104809,17.62 20.6754809,17.9616667 C20.9413142,18.3033333 20.3796476,19.7066667 20.1288142,20.3325 L20.1288142,20.3325 Z M19.5704809,18.4858333 C17.2804809,19.7125 14.7913142,20.3033333 12.5263142,20.3033333 C9.17048089,20.3033333 5.92048089,19.1425 3.29214756,17.215 C3.06131423,17.0466667 2.89131423,17.3433333 3.08298089,17.5616667 C5.52048089,20.3333333 8.73798089,22 12.3129809,22 C14.8638142,22 17.8246476,20.9883333 19.8679809,19.0883333 C20.2063142,18.7741667 19.9163142,18.3008333 19.5704809,18.4858333 L19.5704809,18.4858333 Z M16.6046476,16.8291667 C16.4304809,16.9866667 16.1779809,16.9966667 15.9838142,16.8908333 C15.1071476,16.1641667 14.9521476,15.8275 14.4721476,15.1358333 C13.0271476,16.6083333 12.0038142,17.05 10.1313142,17.05 C7.91464756,17.05 6.18881423,15.6825 6.18881423,12.9458333 C6.18881423,10.8083333 7.34798089,9.355 8.99714756,8.6425 C10.4263142,8.01416667 12.4221476,7.9 13.9488142,7.73 L13.9488142,7.38833333 C13.9488142,6.76083333 13.9988142,6.02 13.6296476,5.47666667 C13.3088142,4.99416667 12.6929809,4.79333333 12.1504809,4.79333333 C11.1463142,4.79333333 10.2529809,5.30833333 10.0338142,6.37416667 C9.98881423,6.61166667 9.81631423,6.84666667 9.57631423,6.85916667 L7.02548089,6.58166667 C6.80964756,6.535 6.56881423,6.36 6.63214756,6.03166667 C7.21881423,2.935 10.0154809,2 12.5204809,2 C13.8013142,2 15.4763142,2.34166667 16.4854809,3.31166667 C17.7671476,4.50833333 17.6454809,6.105 17.6454809,7.84333333 L17.6454809,11.9458333 C17.6454809,13.18 18.1588142,13.7208333 18.6388142,14.3866667 C18.8088142,14.6258333 18.8446476,14.9116667 18.6304809,15.0858333 C18.0913142,15.5366667 17.1354809,16.3666667 16.6113142,16.835 L16.6046476,16.8291667 Z M13.9496476,10.4083333 C13.9496476,11.435 13.9738142,12.2883333 13.4571476,13.2008333 C13.0388142,13.9433333 12.3729809,14.3991667 11.6354809,14.3991667 C10.6238142,14.3991667 10.0338142,13.6291667 10.0338142,12.4891667 C10.0338142,10.2458333 12.0463142,9.8375 13.9504809,9.8375 L13.9504809,10.4083333 L13.9496476,10.4083333 Z"></path>
            </g>
        </g>
    </g>
</svg>
