<?xml version="1.0" encoding="UTF-8"?>
<svg width="18px" height="18px" viewBox="0 0 18 18" version="1.1" xmlns="http://www.w3.org/2000/svg" xmlns:xlink="http://www.w3.org/1999/xlink">
    <g stroke="none" stroke-width="1" fill="none" fill-rule="evenodd">
        <g transform="translate(-673.000000, -942.000000)" fill="#393939">
            <g transform="translate(670.000000, 939.000000)">
                <path d="M20.0025,3 L3.9975,3 C3.44829628,3.00408347 3.00408347,3.44829628 3,3.9975 L3,20.0025 C3.00408347,20.5517037 3.44829628,20.9959165 3.9975,21 L12.615,21 L12.615,14.04 L10.275,14.04 L10.275,11.3175 L12.615,11.3175 L12.615,9.315 C12.615,6.99 14.0325,5.7225 16.1175,5.7225 C16.815,5.7225 17.5125,5.7225 18.21,5.8275 L18.21,8.25 L16.7775,8.25 C15.645,8.25 15.4275,8.79 15.4275,9.5775 L15.4275,11.31 L18.1275,11.31 L17.775,14.0325 L15.4275,14.0325 L15.4275,21 L20.0025,21 C20.5517037,20.9959165 20.9959165,20.5517037 21,20.0025 L21,3.9975 C20.9959165,3.44829628 20.5517037,3.00408347 20.0025,3 Z"></path>
            </g>
        </g>
    </g>
</svg>
