<?xml version="1.0" encoding="UTF-8"?>
<svg width="20px" height="20px" viewBox="0 0 20 20" version="1.1" xmlns="http://www.w3.org/2000/svg" xmlns:xlink="http://www.w3.org/1999/xlink">
    <title>Components/Icons/Social Media/instagram</title>
    <g id="Components" stroke="none" stroke-width="1" fill="none" fill-rule="evenodd">
        <g id="Images" transform="translate(-712.000000, -941.000000)" fill="#393939">
            <g id="Components/Icons/Social-Media/instagram" transform="translate(710.000000, 939.000000)">
                <path d="M17.3383333,5.4625 C16.675,5.4625 16.1375,6 16.1375,6.6625 C16.1375,7.325 16.675,7.8625 17.3383333,7.8625 C18.0008333,7.8625 18.5366667,7.325 18.5366667,6.6625 C18.5366667,6 18.0008333,5.4625 17.3383333,5.4625 M12,15.3333333 C10.1591667,15.3333333 8.66666667,13.8416667 8.66666667,12 C8.66666667,10.1591667 10.1591667,8.66666667 12,8.66666667 C13.8408333,8.66666667 15.3333333,10.1591667 15.3333333,12 C15.3333333,13.8416667 13.8408333,15.3333333 12,15.3333333 M12,6.865 C9.16416667,6.865 6.865,9.16416667 6.865,12 C6.865,14.8366667 9.16416667,17.1358333 12,17.1358333 C14.8358333,17.1358333 17.135,14.8375 17.135,12 C17.135,9.16416667 14.8358333,6.865 12,6.865 M12,2 C9.28416667,2 8.94416667,2.01166667 7.8775,2.06 C4.24583333,2.22666667 2.2275,4.24166667 2.06083333,7.87666667 C2.01166667,8.94416667 2,9.28416667 2,12 C2,14.7158333 2.01166667,15.0566667 2.06,16.1233333 C2.22666667,19.755 4.24166667,21.7733333 7.87666667,21.94 C8.94416667,21.9891667 9.28416667,22 12,22 C14.7158333,22 15.0566667,21.9891667 16.1233333,21.94 C19.7516667,21.7733333 21.775,19.7583333 21.9391667,16.1233333 C21.9883333,15.0566667 22,14.7158333 22,12 C22,9.28416667 21.9883333,8.94416667 21.9391667,7.8775 C21.7766667,4.24916667 19.7583333,2.2275 16.1241667,2.06083333 C15.0566667,2.01166667 14.7158333,2 12,2 M12,3.8025 C14.67,3.8025 14.9866667,3.8125 16.0408333,3.86083333 C18.7508333,3.98416667 20.0175,5.27 20.14,7.96 C20.1891667,9.01416667 20.1983333,9.33083333 20.1983333,12.0008333 C20.1983333,14.6716667 20.1883333,14.9875 20.14,16.0416667 C20.0166667,18.7291667 18.7541667,20.0175 16.0408333,20.1408333 C14.9866667,20.1891667 14.6716667,20.1991667 12,20.1991667 C9.33,20.1991667 9.01333333,20.1891667 7.95916667,20.1408333 C5.2425,20.0166667 3.98333333,18.7258333 3.86,16.0408333 C3.81166667,14.9866667 3.80166667,14.6708333 3.80166667,12 C3.80166667,9.33 3.8125,9.01416667 3.86,7.95916667 C3.98416667,5.27 5.24666667,3.98333333 7.95916667,3.86 C9.01416667,3.8125 9.33,3.8025 12,3.8025" id="Fill-1"></path>
            </g>
        </g>
    </g>
</svg>