<?xml version="1.0" encoding="UTF-8"?>
<svg width="469px" height="60px" viewBox="0 0 469 60" version="1.1" xmlns="http://www.w3.org/2000/svg" xmlns:xlink="http://www.w3.org/1999/xlink">
    <title>Primary Logo Light</title>
    <g id="Style" stroke="none" stroke-width="1" fill="none" fill-rule="evenodd">
        <g id="elements/01-brand-elements" transform="translate(-792.000000, -391.000000)" fill-rule="nonzero">
            <g id="Primary-Logo-Light" transform="translate(792.000000, 391.000000)">
                <path d="M26.2553839,32.9237891 C22.7628781,24.9932082 19.7266512,21.8345131 14.8484092,21.8965589 C7.46344933,21.9642452 8.92241547,21.5694084 9.10830691,34.5821041 C9.31109757,46.2015896 8.58443104,45.6770206 11.7502186,45.6770206 C14.5667555,45.6770206 16.4988999,45.0114384 16.4988999,46.3369623 C16.4988999,47.854264 14.3864972,46.9969039 8.91114932,47.0589497 C2.38241666,47.1266361 0.461538462,47.854264 0.461538462,46.494897 C0.461538462,44.909909 2.24158982,45.7672691 5.27781665,45.7672691 C7.77890147,45.7672691 7.58174388,45.4401185 7.58174388,39.7601078 L7.58174388,8.03214363 C7.58174388,2.48750562 7.77890147,2.15471453 5.27781665,2.15471453 C2.25285596,2.15471453 0.472804609,3.07976095 0.472804609,1.42708655 C0.472804609,0.0451574426 2.38241666,0.767144895 8.92241547,0.834831218 C13.992182,0.902517542 16.510166,0.107203239 16.5721298,1.5624592 C16.6340937,3.01771516 14.5160579,2.22240085 11.7389524,2.22240085 C8.505568,2.22240085 9.03507695,1.69219132 9.03507695,12.3245847 C9.03507695,21.501722 8.24081353,20.9715125 11.8516139,20.7120483 C13.8964197,20.5766756 15.3497528,19.5218971 25.0386399,10.937015 C31.7926955,5.05958592 34.4346072,2.99515305 34.4346072,2.43110035 C34.4346072,1.96857714 33.1164679,2.16599558 31.0040652,2.16599558 C28.8916625,2.16599558 26.9144535,2.96130989 26.8468566,1.60194289 C26.7792598,0.242575886 29.8154866,0.834831218 36.017501,0.834831218 C41.0872675,0.834831218 42.805355,0.174889563 42.805355,1.42708655 C42.805355,2.67928354 41.4872157,1.82756396 39.3410146,1.86704765 C35.9611702,2.0024203 36.175227,3.45203573 26.0863917,11.9071857 C17.1861349,19.3639623 16.7861866,19.2398707 16.7861866,20.1592766 C16.7861866,21.0786825 19.0957469,20.2269629 22.3291314,23.4589849 C23.973989,25.1116593 25.7089757,27.7514259 27.7368823,32.483828 C32.8798788,43.7084767 36.0456663,46.1508249 39.2734177,46.1508249 C43.6277838,46.1508249 43.8249414,41.2661285 45.1430807,41.2661285 C45.6725896,41.2661285 45.8021503,41.7963381 45.6049928,42.5860118 C44.2868535,46.2185112 42.1744507,47.6624861 39.2058208,47.6624861 C35.3978628,47.7132509 31.5335741,45.1411706 26.2553839,32.9237891 Z" id="Path" fill="#FFFFFF"></path>
                <path d="M51.2307692,38.4968553 C51.2307692,32.8359433 55.000686,27.6414949 63.4674556,27.6414949 C70.0181806,27.6414949 72.7989888,29.3691385 73.7259248,29.3691385 C74.3872146,29.3691385 74.2515654,26.9389199 74.31939,23.9731318 C74.4550392,18.3122197 70.8151195,15.0066617 64.7109065,15.0066617 C60.0140536,15.0066617 56.8997745,15.7495484 56.1084876,20.0628985 C55.8428413,21.4795663 55.6450196,22.0208946 54.4128729,22.0208946 C53.9339421,22.0337006 53.4708771,21.8454824 53.1321053,21.5003115 C52.7933335,21.1551405 52.6086047,20.6833286 52.6211733,20.1953512 C52.6211733,18.8477892 53.2881151,17.7017857 54.6106946,16.7400641 C56.5945639,15.2600494 59.3075475,13.5093706 64.7843831,13.5093706 C71.5329298,13.5093706 75.9019638,16.8782756 75.7719666,24.2265195 C75.6363175,31.1025409 74.9750277,38.2492264 74.9750277,41.5490256 C74.9750277,45.1252478 76.6310781,46.8068208 78.8127691,46.8759266 C82.5205133,47.0141381 82.5826859,42.8447583 83.7752682,42.8447583 C83.95987,42.8251265 84.1434264,42.8905551 84.2757577,43.0231575 C84.4080891,43.1557598 84.4753548,43.3416671 84.4591662,43.5300569 C84.4591662,44.6818193 82.6052941,48.3847353 78.7053801,48.3847353 C76.4445605,48.3847353 74.6698171,46.7665092 74.0706998,44.2038379 C73.6750564,42.7180644 73.742881,42.2458418 73.279413,42.2458418 C72.8159449,42.2458418 72.6802958,42.9887286 71.5837982,44.4053963 C70.1990462,46.1330399 67.8138814,48.5862937 62.7213852,48.5862937 C55.1985077,48.5862937 51.2307692,44.7451662 51.2307692,38.4968553 Z M73.8389658,33.7746296 C73.8389658,29.8010494 68.6108204,28.9256182 63.6652774,28.9256182 C56.1989204,28.9026747 52.7511705,33.2160248 52.7511705,38.4047143 C52.7511705,44.0022795 56.3232655,47.0429321 62.8061659,47.0429321 C69.7638384,47.0371733 73.855922,41.4396082 73.855922,33.7515943 L73.8389658,33.7746296 Z" id="Shape" fill="#FFFFFF"></path>
                <path d="M92.383089,37.2096961 C92.383089,34.2655025 92.383089,29.7091486 92.4520961,25.6272958 C92.5843598,16.0572375 93.2571794,16.5260217 90.2956232,16.5260217 C86.1896986,16.5260217 85.3846154,16.7261126 85.3846154,15.8571467 C85.3846154,14.1420825 90.0943523,15.7256584 91.7792766,14.7137706 C93.1939228,13.9134073 91.9115402,8.89398601 93.1939228,8.89398601 C94.1312697,8.89398601 93.9990061,9.56286105 93.9990061,13.1759296 C93.9990061,15.8514298 93.659721,14.9824639 100.934223,14.9824639 C107.259877,14.9824639 109.077065,14.7137706 109.077065,15.651339 L109.077065,16.0057856 C109.077065,17.2063305 107.058606,16.4059672 96.425757,16.4059672 C93.1306663,16.4059672 93.8034859,17.4750239 93.8034859,25.7073321 L93.8034859,37.2096961 C93.8034859,42.9265768 95.4194029,47.0427308 102.429378,47.0427308 C106.736573,47.0427308 108.622768,44.0356516 109.698129,44.0356516 C109.968407,44.0356516 110.307692,44.1671399 110.307692,44.5044358 C110.307692,45.9736742 106.000497,48.5862937 102.360371,48.5862937 C94.6718256,48.5920055 92.383089,43.7669582 92.383089,37.2096961 Z" id="Path" fill="#FFFFFF"></path>
                <path d="M116.769231,31.2048078 C116.769231,21.4494845 123.229217,13.5093706 132.705761,13.5093706 C143.229562,13.5093706 147.230769,21.8604753 147.230769,28.2079999 C147.230769,30.5483642 146.695757,31.016437 145.096413,31.016437 L120.235426,31.016437 C118.897896,31.016437 118.300276,30.8794401 118.436875,32.6204428 C119.165402,41.9076932 124.828562,47.1192849 132.756985,47.1192849 C138.82425,47.1192849 141.755433,44.8360027 143.684891,42.6440517 C144.686616,41.3711219 144.885823,40.7032618 145.551742,40.7032618 C146.217661,40.7032618 146.485167,41.2398332 145.950155,41.9761917 C143.616592,45.1613704 139.956882,48.5862937 132.626078,48.5862937 C123.09831,48.5862937 116.769231,41.4967024 116.769231,31.2048078 Z M145.620041,28.1337932 C145.620041,22.2486333 142.085547,14.964963 132.694377,14.964963 C124.561056,14.964963 118.567782,21.9175574 118.567782,28.6646564 C118.567782,30.2001636 119.102794,29.6008021 131.294239,29.6008021 C145.950155,29.6008021 145.620041,30.405659 145.620041,28.1337932 L145.620041,28.1337932 Z" id="Shape" fill="#FFFFFF"></path>
                <path d="M192.461538,46.8343855 C192.461538,45.4238932 194.725495,46.2266124 196.372524,46.1635416 C199.151531,45.9571281 199.547723,46.2266124 199.547723,41.003204 L199.547723,5.55168516 C199.547723,2.68483097 199.881657,2.06559047 197.962953,2.06559047 C194.646257,2.06559047 192.993568,2.79950514 192.993568,1.32594209 C192.993568,0.855778 193.253923,0.655098207 194.250064,0.586293706 L217.772575,0.586293706 C225.724723,0.586293706 230.954464,4.54828619 230.954464,11.394334 C230.954464,15.6888816 228.967842,18.9112257 226.381271,20.4535932 C223.7947,21.9959608 222.74196,21.3251169 222.74196,22.1737057 C222.74196,23.0222946 224.33239,22.3801192 227.773604,24.3238464 C230.292256,25.7343386 233.076923,29.226167 233.076923,34.7247934 C233.076923,42.7519851 227.309493,47.5453653 217.50656,47.5453653 C210.018523,47.5453653 201.472086,47.4822945 195.574479,47.6141698 C193.718034,47.7059091 192.461538,47.7689799 192.461538,46.8343855 Z M229.431953,11.4574048 C229.499871,5.48861437 225.124775,2.12866126 216.380242,2.12866126 C197.895035,2.12866126 201.098534,-0.216425466 201.098534,12.7360218 C201.098534,24.1461014 198.511963,21.7264765 216.006689,21.6634057 C225.985078,21.6634057 229.364034,17.1624446 229.431953,11.4574048 L229.431953,11.4574048 Z M231.486493,34.6846574 C231.486493,27.5003208 226.585027,22.936289 215.638796,23.0050935 C198.093131,23.1369687 201.064574,21.4627259 201.064574,33.5436494 C201.064574,48.0384642 198.081811,46.0947371 217.427322,46.0947371 C225.92282,46.0947371 231.486493,42.3448918 231.486493,34.6846574 L231.486493,34.6846574 Z" id="Shape" fill="#FFFFFF"></path>
                <path d="M243.021008,46.8078416 C243.021008,45.1995793 244.795874,46.069529 247.098706,46.069529 C249.530721,46.069529 249.266737,45.8005314 249.345371,39.5735227 L249.474554,17.9335229 C249.474554,16.7888522 249.345371,16.2565803 248.620821,16.2565803 C246.581973,16.2565803 242.307692,20.0053769 242.307692,17.7961624 C242.307692,16.9262127 244.217358,16.6514917 246.520189,15.4495875 C247.896272,14.7799551 248.817404,14.0473659 249.671137,14.0473659 C250.65967,14.0473659 250.991053,14.648318 250.991053,15.9875827 C250.991053,18.9351098 250.266503,22.2203147 251.052836,22.2203147 C251.839169,22.2203147 251.446003,20.1427374 253.816234,16.9948929 C255.6585,14.648318 257.747898,13.5093706 260.38773,13.5093706 C264.20706,13.5093706 266.307692,15.4495875 266.307692,19.1354272 C266.307692,20.5433721 265.779726,21.7509997 264.336244,21.7509997 C262.229995,21.7509997 262.690561,20.88105 263.347711,19.1354272 C264.403644,16.525578 264.268844,14.9859958 260.325946,14.9859958 C254.209401,14.9859958 250.923653,23.8285771 250.923653,30.3245834 C250.923653,32.9401559 250.923653,37.0953106 250.856253,39.5735227 C250.856253,45.600214 250.463087,45.8005314 254.142001,46.0065721 C257.562548,46.2068895 259.533997,45.3312164 259.533997,46.6762045 C259.533997,48.2157866 257.433365,47.3458368 250.65967,47.4087937 C244.913824,47.477474 243.021008,48.2157866 243.021008,46.8078416 Z" id="Path" fill="#FFFFFF"></path>
                <path d="M272.769231,30.5525671 C272.769231,20.8786419 278.82246,13.5093706 288.624532,13.5093706 C298.426603,13.5093706 304.153846,20.884263 304.153846,30.5525671 C304.153846,40.2208711 298.454706,47.6632168 288.624532,47.6632168 C278.794358,47.6632168 272.769231,40.1590389 272.769231,30.5525671 Z M302.557637,30.5525671 C302.557637,21.7330502 297.88704,14.9596162 288.60767,14.9596162 C279.547498,14.9596162 274.286753,21.671218 274.286753,30.4851138 C274.286753,38.7762466 279.620564,46.1455179 288.697598,46.1455179 C297.971347,46.1455179 302.574499,38.8718054 302.574499,30.5525671 L302.557637,30.5525671 Z" id="Shape" fill="#FFFFFF"></path>
                <path d="M311.401489,46.8067611 C311.401489,45.2148153 313.201554,46.075939 315.537081,46.075939 C318.003625,46.0136209 317.735894,45.8096705 317.815644,39.5778543 L317.884,18.3556874 C317.884,17.2226299 317.747287,16.6957581 317.018147,16.6957581 C315.081368,16.6957581 310.615385,20.1459182 310.615385,18.1574023 C310.615385,17.2962786 312.546467,16.9620266 314.881994,15.8346344 C316.28331,15.1717958 317.217521,14.4409737 318.083375,14.4409737 C319.085942,14.4409737 319.416334,15.0414942 319.416334,16.3671715 C319.416334,19.6813646 318.749854,22.2024176 319.553048,22.2024176 C320.356241,22.2024176 320.122689,20.2762198 323.153177,17.2282951 C325.498046,14.7912803 328.762613,13.4432698 332.153501,13.5118666 C336.35745,13.5118666 338.955011,14.8432091 340.624059,17.6248653 C342.293106,20.4065214 341.353199,22.5366695 342.224749,22.5366695 C342.953889,22.5366695 342.691855,20.2705545 345.756522,17.2282951 C348.149531,14.7928355 351.447444,13.4480782 354.870774,13.5118666 C361.273535,13.5118666 364.805308,17.0300101 364.805308,23.5280948 L364.805308,39.5778543 C364.805308,45.6113854 364.406559,46.0136209 367.471227,46.0136209 C369.607379,46.0136209 371.538462,45.3451169 371.538462,46.6764595 C371.538462,48.2004218 369.408005,47.3392981 364.537577,47.4016163 C358.806991,47.4695997 356.870213,48.2004218 356.870213,46.8350875 C356.870213,45.2431418 358.738634,46.1042655 361.005804,46.1042655 C363.472349,46.1042655 363.284367,45.8379969 363.284367,39.6061807 L363.284367,23.5450907 C363.284367,17.9081296 360.282361,15.0471595 354.739756,15.0471595 C345.739433,15.0471595 342.139303,23.7320452 342.139303,30.6323653 C342.070946,33.7482735 342.070946,36.4676114 342.070946,39.651503 C342.070946,45.6170507 341.740555,46.0192861 344.736865,46.0192861 C346.873018,46.0192861 348.809796,45.3507822 348.809796,46.6821248 C348.809796,48.2060871 346.673643,47.3449634 341.871572,47.4072816 C336.072629,47.475265 334.204208,48.2060871 334.204208,46.8407528 C334.204208,45.248807 336.004272,46.1099307 338.339799,46.1099307 C340.806344,46.1099307 340.618362,45.8436622 340.618362,39.611846 L340.618362,23.5450907 C340.618362,17.9081296 337.547999,15.0471595 332.016787,15.0471595 C323.005071,15.0471595 319.433423,23.7263799 319.433423,30.6267001 C319.433423,33.147753 319.433423,37.2550864 319.365066,39.6458377 C319.365066,45.6113854 318.966318,45.7473523 322.036681,46.0136209 C324.104477,46.2119059 326.103916,45.3451169 326.103916,46.6764595 C326.103916,48.2004218 323.967764,47.3392981 319.103032,47.4016163 C313.338267,47.4695997 311.401489,48.2004218 311.401489,46.8067611 Z" id="Path" fill="#FFFFFF"></path>
                <path d="M376.153846,46.8211547 C376.153846,45.2379234 378.002064,46.0943332 381.014192,46.0943332 C383.546719,46.0943332 383.277674,45.8295223 383.353709,39.6318197 L383.423894,10.6772803 C383.423894,7.70801736 383.698787,5.60643277 383.698787,4.47957776 C383.698787,3.35272275 383.558416,2.89634647 382.803922,2.89634647 C380.750996,2.89634647 376.165544,6.72201923 376.165544,4.34435516 C376.165544,3.42033405 378.21847,3.15552313 380.616474,2.03993667 C382.055277,1.31311519 383.014479,0.586293706 383.903495,0.586293706 C384.927033,0.586293706 385.342298,1.24550389 385.342298,2.49631295 C385.342298,5.31345047 384.997219,8.76162679 384.997219,10.8068686 C384.997219,17.6018043 384.997219,33.4341172 384.927033,39.6318197 C384.927033,45.5703456 384.517618,45.699934 387.599931,46.0323562 C389.793228,46.2295558 391.846154,45.3675117 391.846154,46.6915664 C391.846154,48.1395751 389.652857,47.3507766 384.657989,47.4127536 C378.136586,47.4803649 376.153846,48.2071864 376.153846,46.8211547 Z" id="Path" fill="#FFFFFF"></path>
                <path d="M396.461538,31.2048078 C396.461538,21.4494845 402.927216,13.5093706 412.398068,13.5093706 C422.92187,13.5093706 426.923077,21.8604753 426.923077,28.2079999 C426.923077,30.5483642 426.388065,31.016437 424.78872,31.016437 L399.927734,31.016437 C398.595895,31.016437 397.992584,30.8794401 398.129182,32.6204428 C398.85771,41.9076932 404.520869,47.1192849 412.454984,47.1192849 C418.516557,47.1192849 421.447741,44.8360027 423.377199,42.6440517 C424.378924,41.3711219 424.57813,40.7032618 425.24405,40.7032618 C425.909969,40.7032618 426.177475,41.2398332 425.642463,41.9761917 C423.314591,45.1613704 419.649189,48.5862937 412.318386,48.5862937 C402.790617,48.5862937 396.461538,41.4967024 396.461538,31.2048078 Z M425.312349,28.1337932 C425.312349,22.2486333 421.777854,14.964963 412.386685,14.964963 C404.259055,14.964963 398.26009,21.9175574 398.26009,28.6646564 C398.26009,30.2001636 398.795102,29.6008021 410.986547,29.6008021 C425.642463,29.6008021 425.312349,30.405659 425.312349,28.1337932 L425.312349,28.1337932 Z" id="Shape" fill="#FFFFFF"></path>
                <path d="M432.164995,52.9539512 C432.164995,51.888898 432.564737,50.5561576 433.701146,50.5561576 C434.70621,50.5561576 435.37435,51.0231863 435.37435,52.3559266 C435.37435,56.8211764 436.04249,58.2222625 440.588123,58.2222625 C445.133757,58.2222625 447.006832,54.4290783 448.742853,50.0891289 C449.410993,48.2210142 449.142595,48.158364 448.542982,48.158364 C447.94337,48.158364 447.27523,48.0216727 446.738434,46.5579365 C443.597607,38.823486 437.847038,24.6189796 435.642748,17.511031 C435.37435,16.508628 434.837554,16.1782906 433.569802,16.1782906 C429.823651,16.1782906 429.692308,16.7079695 429.692308,15.5119204 C429.692308,14.1108344 432.701791,14.7088589 436.173833,14.7088589 C440.919338,14.7088589 443.997349,14.1393118 443.997349,15.5119204 C443.997349,16.7079695 443.797478,16.1099449 439.11479,16.1782906 C437.57864,16.1782906 436.9105,16.508628 437.401611,17.8869321 C439.520242,23.9526094 445.265101,39.222169 447.406574,44.1772293 C447.94337,45.3789738 448.006186,46.9794014 449.079778,46.9110557 C450.15337,46.8427101 450.547401,45.1112867 452.283422,40.7143825 C455.093035,33.8456437 459.101873,23.3773668 461.112002,18.70708 C462.111357,16.3092865 461.911486,16.1782906 460.106938,16.1782906 C457.965464,16.1099449 455.230089,16.508628 455.230089,15.1758876 C455.230089,13.8431472 457.434379,14.7088589 462.71668,14.7088589 C466.794045,14.7088589 468.461538,13.9741431 468.461538,15.3068834 C468.461538,16.508628 466.394303,16.1782906 465.857507,16.1782906 C463.784561,16.1782906 463.573269,16.7079695 462.648153,18.8437713 C460.306809,24.043737 452.083551,45.1796323 450.279003,49.980915 C447.874843,55.909901 445.670553,59.6632168 440.65665,59.6632168 C436.24236,59.6233485 432.164995,57.2255549 432.164995,52.9539512 Z" id="Path" fill="#FFFFFF"></path>
                <path d="M176.835904,32.9019642 C172.973124,37.0681766 172.578133,37.5093706 171.648743,37.5093706 C170.608987,37.5093706 169.871283,36.8336177 165.259181,31.8632035 C163.022835,29.3835811 161.076923,26.6917388 161.076923,23.4581772 C161.076923,20.2246156 163.214522,18.1750179 166.885615,18.1750179 C168.744397,18.1750179 170.295317,18.8228471 170.951699,19.9621331 C171.089665,20.1549073 171.202793,20.3630635 171.288604,20.5820387 C171.457056,21.0008938 171.567421,21.207529 171.910134,21.207529 C172.252846,21.207529 172.386446,21.0008938 172.554898,20.5820387 C172.621266,20.3731607 172.717028,20.1739885 172.839524,19.9900568 C173.57142,18.7446608 174.895801,18.1247552 176.783626,18.1247552 C180.733537,18.1247552 182.307692,20.7160723 182.307692,23.273881 C182.301884,26.5856289 179.595033,29.8750378 176.835904,32.9019642 Z" id="Path" fill="#F29CBB"></path>
                <path d="M171.190531,38.4324476 C169.879925,38.4324476 169.121153,37.6748254 164.459303,32.3946042 C162.20598,29.7978688 160.153846,26.900398 160.153846,23.3031388 C160.153846,19.5150283 162.527883,17.2537287 166.476947,17.2537287 C168.557822,17.2537287 170.23057,18.0460511 170.977845,19.3646605 C171.111951,19.5565862 171.222,19.7644311 171.305497,19.9834816 L171.351483,20.0875824 C171.351483,20.1511995 171.420462,20.2610836 171.4607,20.3420509 C171.4607,20.2726504 171.518183,20.1916831 171.546924,20.1164993 C171.622152,19.8603538 171.734492,19.6167624 171.880324,19.3935774 C172.696579,17.9477337 174.179634,17.2016783 176.266257,17.2016783 C180.726917,17.2016783 182.307692,20.3883179 182.307692,23.1122875 C182.307692,26.807864 179.433556,30.4109066 176.75486,33.5223623 L176.576664,33.7247804 C172.754062,37.9813443 172.357431,38.4324476 171.190531,38.4324476 Z M166.476947,18.3814868 C163.125704,18.3814868 161.303501,20.1164993 161.303501,23.274222 C161.303501,26.5244786 163.246417,29.2079646 165.327292,31.6311987 C169.661491,36.5355006 170.431759,37.2757726 171.19628,37.2757726 C171.822841,37.2757726 172.230969,36.8420195 175.725919,32.8977578 L175.898367,32.701123 C178.444853,29.7747353 181.163786,26.3798943 181.163786,23.0833706 C181.163786,20.7700206 179.881921,18.3294364 176.272005,18.3294364 C174.605006,18.3294364 173.489841,18.8672903 172.869027,19.9661315 C172.766655,20.1186059 172.689041,20.2864937 172.639096,20.4635018 C172.449403,20.960872 172.230969,21.5218594 171.449204,21.5218594 C170.667438,21.5218594 170.454752,20.914605 170.299549,20.5097688 L170.253563,20.405668 C170.203312,20.2654381 170.133646,20.1330432 170.046625,20.0123985 L169.99489,19.9314313 C169.460301,18.9656077 168.149695,18.3814868 166.476947,18.3814868 Z" id="Shape" fill="#FFFFFF"></path>
            </g>
        </g>
    </g>
</svg>