<?xml version="1.0" encoding="UTF-8"?>
<svg width="224px" height="80px" viewBox="0 0 224 80" version="1.1" xmlns="http://www.w3.org/2000/svg" xmlns:xlink="http://www.w3.org/1999/xlink">
    <title>Secondary Logo Light</title>
    <g id="Style" stroke="none" stroke-width="1" fill="none" fill-rule="evenodd">
        <g id="elements/01-brand-elements" transform="translate(-608.000000, -644.000000)" fill-rule="nonzero">
            <g id="Secondary-Logo-Light" transform="translate(608.000000, 644.000000)">
                <path d="M57.6656716,3.11044776 C57.6656716,2.32238806 55.4268657,2.66268657 51.838806,2.66268657 C48.1492537,2.66268657 44.9014925,4.00597015 44.7761194,1.65373134 C44.6507463,-0.698507463 49.8268657,0.423880597 60.3522388,0.423880597 C68.9731343,0.423880597 71.8865672,-0.698507463 71.8865672,1.42686567 C71.8865672,3.67164179 69.6477612,2.10149254 65.9522388,2.21492537 C60.238806,2.4358209 60.5791045,4.90149254 43.4447761,19.2358209 C28.3283582,31.8865672 27.6537313,31.641791 27.6537313,33.2298507 C27.6537313,34.9074627 31.5761194,33.3432836 37.0626866,38.8298507 C39.8626866,41.6238806 42.7701493,46.1074627 46.2447761,54.1671642 C54.9791045,73.2059701 60.3522388,77.3432836 65.838806,77.3432836 C73.2298507,77.3432836 73.5641791,69.0626866 75.8029851,69.0626866 C76.6985075,69.0626866 76.9253731,69.958209 76.5850746,71.3014925 C74.3462687,77.4567164 70.7641791,79.9223881 65.7253731,79.9223881 C59.3432836,79.9223881 52.7402985,75.5522388 43.7791045,54.8477612 C37.8447761,41.4029851 32.6925373,36.0298507 24.4119403,36.1432836 C11.8746269,36.2507463 14.3343284,35.5820896 14.6686567,57.6358209 C15.0029851,77.3373134 13.7731343,76.4477612 19.1462687,76.4477612 C23.9641791,76.4477612 27.2059701,75.3313433 27.2059701,77.5701493 C27.2059701,80.1432836 23.6238806,78.6925373 14.3343284,78.8 C3.24776119,78.9134328 0.00597014925,80.1432836 0.00597014925,77.7910448 C0.00597014925,75.1044776 3.02686567,76.561194 8.17910448,76.561194 C12.4358209,76.561194 12.0955224,76 12.0955224,66.3701493 L12.0955224,12.638806 C12.0955224,3.2358209 12.4358209,2.67462687 8.17910448,2.67462687 C3.02089552,2.66268657 0,4.22686567 0,1.42686567 C0,-0.919402985 3.24776119,0.310447761 14.3283582,0.423880597 C22.9552239,0.531343284 27.2059701,-0.811940299 27.319403,1.65373134 C27.4328358,4.11940299 23.880597,2.7761194 19.1462687,2.7761194 C13.6597015,2.7761194 14.5552239,1.87462687 14.5552239,19.9044776 C14.5552239,35.4686567 13.2119403,34.5731343 19.3671642,34.1253731 C22.841791,33.8985075 25.3373134,32.1074627 41.7671642,17.5522388 C53.1880597,7.5880597 57.6656716,4.11940299 57.6656716,3.11044776" id="Path" fill="#F7F7F5"></path>
                <path d="M94.441791,78.2089552 C94.441791,75.8626866 98.2507463,77.2059701 101.050746,77.0925373 C105.755224,76.758209 106.423881,77.2059701 106.423881,68.4716418 L106.423881,9.36716418 C106.423881,4.54925373 106.985075,3.54626866 103.737313,3.54626866 C98.1373134,3.54626866 95.3373134,4.7761194 95.3373134,2.31044776 C95.3373134,1.52835821 95.7850746,1.19402985 97.4626866,1.08059701 L137.21791,1.08059701 C150.650746,1.08059701 159.498507,7.68955224 159.498507,19.1104478 C159.498507,26.2746269 156.137313,31.6477612 151.773134,34.2268657 C147.408955,36.8059701 145.61194,35.6835821 145.61194,37.1343284 C145.61194,38.5850746 148.298507,37.4746269 154.125373,40.7164179 C158.376119,43.0686567 163.080597,48.8955224 163.080597,58.0716418 C163.080597,71.5104478 153.337313,79.4626866 136.770149,79.4626866 C124.113433,79.4626866 109.671642,79.3492537 99.7014925,79.5701493 C96.5731343,79.6835821 94.441791,79.7970149 94.441791,78.2089552 Z M156.919403,19.2179104 C157.014925,9.25373134 149.647761,3.65970149 134.865672,3.65970149 C103.623881,3.65970149 108.997015,-0.262686567 108.997015,21.3492537 C108.997015,40.3820896 104.632836,36.3522388 134.191045,36.238806 C151.098507,36.238806 156.81194,28.7402985 156.919403,19.2179104 Z M160.39403,57.9641791 C160.39403,45.9820896 152.107463,38.3701493 133.629851,38.4776119 C103.958209,38.7044776 108.997015,35.9044776 108.997015,56.0597015 C108.997015,80.2447761 103.958209,76.9970149 136.656716,76.9970149 C150.985075,77.0149254 160.39403,70.7283582 160.39403,57.9641791 L160.39403,57.9641791 Z" id="Shape" fill="#F7F7F5"></path>
                <path d="M213.546269,48.8716418 C207.343284,55.8268657 206.710448,56.5671642 205.18806,56.5671642 C203.516418,56.5671642 202.340299,55.438806 194.961194,47.1402985 C191.343284,42.9910448 188.173134,38.4955224 188.173134,33.0507463 C188.173134,27.4746269 191.61194,24.2328358 197.540299,24.2328358 C200.525373,24.2328358 203.014925,25.3134328 204.059701,27.2179104 C204.283067,27.5382415 204.465573,27.8852026 204.602985,28.2507463 C204.877612,28.9432836 205.056716,29.2895522 205.6,29.2895522 C206.143284,29.2895522 206.370149,28.9432836 206.638806,28.2507463 C206.741286,27.9001786 206.894124,27.566348 207.092537,27.2597015 C208.286567,25.1820896 210.4,24.1432836 213.432836,24.1432836 C219.767164,24.1432836 222.298605,28.4716418 222.298605,32.7462687 C222.322388,38.3223881 217.976119,43.8149254 213.546269,48.8716418 Z" id="Path" fill="#F29CBB"></path>
                <path d="M205.21194,57.4985075 C203.086567,57.4985075 201.856716,56.3044776 194.292537,47.761194 C190.638806,43.5820896 187.265672,38.9074627 187.265672,33.0507463 C187.265672,26.9432836 191.116418,23.3014925 197.564179,23.3014925 C200.937313,23.3014925 203.659701,24.5731343 204.865672,26.7044776 C205.08356,27.0122768 205.26394,27.3449772 205.402985,27.6955224 L205.474627,27.8686567 C205.516418,27.9641791 205.58806,28.1432836 205.647761,28.2746269 C205.695522,28.1671642 205.749254,28.0298507 205.791045,27.9104478 C205.916358,27.4893441 206.099177,27.0875451 206.334328,26.7164179 C207.653731,24.3880597 210.059701,23.1820896 213.456716,23.1820896 C220.686567,23.1820896 223.259701,28.3223881 223.259701,32.7343284 C223.259701,38.7044776 218.608955,44.5014925 214.244776,49.4507463 L213.952239,49.7791045 C207.761194,56.7701493 207.104478,57.4985075 205.21194,57.4985075 Z M197.564179,25.1641791 C192.125373,25.1641791 189.128358,27.9641791 189.128358,33.0507463 C189.128358,38.2925373 192.280597,42.6029851 195.695522,46.5313433 C202.728358,54.441791 203.976119,55.6358209 205.247761,55.6358209 C206.268657,55.6358209 206.925373,54.9373134 212.597015,48.5731343 L212.883582,48.2567164 C217.014925,43.5402985 221.426866,38.0597015 221.426866,32.7343284 C221.426866,29.0268657 219.343284,25.0686567 213.492537,25.0686567 C210.776119,25.0686567 208.973134,25.9283582 207.964179,27.7074627 C207.801178,27.9539477 207.676384,28.2236631 207.59403,28.5074627 C207.283582,29.3074627 206.931343,30.2089552 205.659701,30.2089552 C204.38806,30.2089552 204.047761,29.2298507 203.797015,28.5791045 L203.719403,28.4179104 C203.639627,28.1898462 203.526997,27.9746437 203.385075,27.7791045 L203.301493,27.6537313 C202.38806,26.1014925 200.280597,25.1641791 197.564179,25.1641791 Z" id="Shape" fill="#F7F7F5"></path>
            </g>
        </g>
    </g>
</svg>