<?xml version="1.0" encoding="UTF-8"?>
<svg width="20px" height="20px" viewBox="0 0 20 20" version="1.1" xmlns="http://www.w3.org/2000/svg" xmlns:xlink="http://www.w3.org/1999/xlink">
    <title>Components/Icons/Social Media/pinterest</title>
    <g id="Components" stroke="none" stroke-width="1" fill="none" fill-rule="evenodd">
        <g id="Images" transform="translate(-752.000000, -941.000000)" fill="#393939">
            <g id="Components/Icons/Social-Media/pinterest" transform="translate(750.000000, 939.000000)">
                <path d="M11.9590164,1.9999918 C6.45901639,1.9999918 2,6.4590082 2,11.9590082 C2,16.1803197 4.62295082,19.786877 8.32786885,21.2376967 C8.23770492,20.4508115 8.16393443,19.2376967 8.36065574,18.377041 C8.54098361,17.5983525 9.52459016,13.4262213 9.52459016,13.4262213 C9.52459016,13.4262213 9.2295082,12.8278607 9.2295082,11.9508115 C9.2295082,10.5655656 10.0327869,9.53277869 11.0327869,9.53277869 C11.8852459,9.53277869 12.295082,10.172123 12.295082,10.934418 C12.295082,11.786877 11.7540984,13.0655656 11.4672131,14.2540902 C11.2295082,15.2458934 11.9672131,16.0573689 12.942623,16.0573689 C14.7131148,16.0573689 16.0737705,14.1885164 16.0737705,11.4999918 C16.0737705,9.1147459 14.3606557,7.45081148 11.9098361,7.45081148 C9.07377049,7.45081148 7.40983607,9.5737623 7.40983607,11.7704836 C7.40983607,12.6229426 7.73770492,13.5409754 8.14754098,14.0409754 C8.2295082,14.1393361 8.23770492,14.2295 8.21311475,14.3278607 C8.13934426,14.6393361 7.96721311,15.3196639 7.93442623,15.4590082 C7.89344262,15.6393361 7.78688525,15.6803197 7.59836066,15.5901557 C6.35245902,15.0081885 5.57377049,13.1967131 5.57377049,11.7295 C5.57377049,8.59015574 7.85245902,5.70490984 12.1557377,5.70490984 C15.6065574,5.70490984 18.295082,8.16392623 18.295082,11.4590082 C18.295082,14.8934344 16.1311475,17.6557295 13.1311475,17.6557295 C12.1229508,17.6557295 11.1721311,17.1311393 10.852459,16.5081885 C10.852459,16.5081885 10.352459,18.4098279 10.2295082,18.877041 C10.0081967,19.7458934 9.40163934,20.8278607 8.99180328,21.4917951 C9.92622951,21.7786803 10.9098361,21.934418 11.942623,21.934418 C17.442623,21.934418 21.9016844,17.4754016 21.9016844,11.9754016 C21.9180328,6.4590082 17.4590164,1.9999918 11.9590164,1.9999918" id="Fill-1"></path>
            </g>
        </g>
    </g>
</svg>