<?xml version="1.0" encoding="UTF-8"?>
<svg id="Layer_1" data-name="Layer 1" xmlns="http://www.w3.org/2000/svg" viewBox="0 0 986.1 227.8">
  <g>
    <path d="M94.7,47.7c-4.5,5.7-5.2,10,.9,10s5.4-.5,9.6-1.8c2.5-.7,4.7-1.1,6.5-1.1,26.7,0-20.1,72.4,3.6,72.4s4.7-.5,8-1.8c1.4-.5,2.7-.7,3.6-.7,3.8,0,2.9,3.9-2,5.4-5.6,1.6-10.1,2.5-13.7,2.5-34,0,19.3-70.6-3.1-70.6s-2.5.2-4.2.5c-4.3,1.1-7.8,1.6-10.5,1.6s-3.6-.4-4.9-.7c-1.3-.4-2.2-.2-2.7.7C61.4,112.2,24,135,8,135s-11.6-7.2-1.3-21.1c15.2-20.8,47.5-50.7,81-69.2.7-.5,1.6-1.6,2.2-2.5,7.8-21.7-3.1-33.3-17.7-35.7C37.2,1.2-8.7,52.7,22.2,61.1c2.5.7,5.6,1.1,8.7,1.1,13.7,0,30.7-6.8,35.1-17,2.2-5.2,6.9-3.2,3.6,2.5-8.5,14.5-27.3,21.9-42.3,21.9s-5.1-.2-7.2-.5C-22.2,60.8,28.2-3.8,72.6.2c17.7,1.6,30.4,13.4,24.8,36.4-.2,1.1,0,1.1.7.4,11.4-11.3,39.4-33.2,56.6-33.2s16.3,22.8-28.7,30.8c-8.7,1.6-18.3,5.6-28.7,11.1-1.1.5-2,1.3-2.5,2ZM83.5,53.6c-26.7,16.8-53.9,41.4-67.9,60-7,9.1-6.7,13.6-1.8,13.6,11.4,0,48.2-25.6,70.7-73.1.5-.9,0-1.1-.9-.5ZM108.8,34.6c5.4-2,10.5-3.9,15.7-5,36.9-8.4,38.7-20.1,27.5-20.1s-34,16.5-43.4,24.6c-.9.7-.9.9.2.5Z" fill="#231f20"/>
    <path d="M153.4,130.8c-43.6,0-19.3-71,24.9-72.6,12.6-.4,21,6.8,19.9,19.2-.2,3-2.5,4.7-4.3,4.7s-2.7-1.1-2.3-2.9c1.1-6.5.5-14.7-13.7-14.9-34.9-.4-58,60.2-23.1,60.2s27.8-14.2,35.1-29.6c1.4-3,3.4-4.5,5.1-4.5s2.7,1.8,1.3,4.8c-.9,2-1.8,3.9-2.7,5.9-6.3,14.9-.9,23.3,8.3,23.3s27.8-12.2,36.1-40.1c.7-2.5,2.3-4.1,3.6-4.1s2.3,1.6,1.3,5.2c-9.4,31.7-28,45.3-41.7,45.3s-15.2-5.4-16.1-15.1c0-1.1-.5-1.3-1.1-.5-8.1,9-18.4,15.6-30.4,15.6Z" fill="#231f20"/>
    <path d="M263.5,24.4c6.7-13.1,16.1-19.2,22.8-19.2s11.6,7,6,20.3c-6.1,14.9-27.5,34.2-40.1,47.1-.7.7-.5,1.3.5,1.3,4.9-.2,9.6-.4,14.5-.4s2.3,1.3,2,2.7c-.4,1.1-1.3,2.2-2.5,2.5-.7.4-9.2.4-10.8.4-2.9,0-5.6,0-8.5.2-1.1,0-2,.7-2.3,1.8-11.7,33.7-4.2,46.1,8.3,46.1s25.5-9.3,33.8-22c4.2-6.3,7-14.2,9.6-22.2.5-1.8,2.2-2.7,3.4-2.7s2.7,1.3,1.8,3.8c-3.4,9.3-6.7,17.6-10.8,24.7-8.9,15.2-23.9,23.8-36.3,23.8s-28.7-15.2-15.9-50.9c.4-.9,0-1.4-1.1-1.4-2.7.2-5.4.4-8,.5h-.2c-1.4,0-2.3-1.3-2-2.7.5-1.4,1.8-2.5,3.4-2.7,2.7-.4,5.6-.5,8.5-.7,1.1,0,2-.9,2.3-1.8,6.7-17.2,14.6-34.8,21.7-48.4ZM285.9,26.7c9.2-19.9-5.1-19.9-15.7-.7-5.6,10-13,22.4-19.5,38.4-.7,2,.9,1.8,2,.7,12.5-12.4,28-26.7,33.3-38.4Z" fill="#231f20"/>
    <path d="M310.5,125.1c13.9,0,34.2-14.3,43.2-42.5.5-1.8,1.8-2.5,3.1-2.5s2.9,1.3,2,3.8c-4.2,11.6-8.1,22.2-15,29.6-10.7,11.6-23.7,17.6-34.2,17.6-15.4,0-25.7-12.5-17.2-38.5,3.6-10.8,12.8-34.1,26.9-34.1s10.5,8.2-4,22c-6.7,6.3-12.6,12.2-16.4,15.1-6.9,19.9.2,29.6,11.6,29.6ZM313.7,75.4c8.3-7.9,8.7-12.2,5.6-12.2s-13,7-17.9,22.8c3.8-2.2,8.1-6.8,12.3-10.6Z" fill="#231f20"/>
  </g>
  <g>
    <path d="M471.4,67.7c11.4.4,22.6,3.2,30.9,8.8,20.4,13.3,17.2,40.7-6.3,50.4-7.4,3-16.1,4.7-24.2,4.7-19.9,0-37.6-9-31.4-26.3,2.5-7.7,9.8-14.3,19.7-14.3s4,.2,6,.7c9.9,2.5,13.7,9.3,13.9,10,1.3,2.2-.4,4.3-2,4.3s-1.3-.4-1.6-1.3c-3.8-4.5-11.7-7.5-17.7-7.5-8.5,0-13.6,5.7-14.1,12-.9,11.7,12.3,17.6,26.9,17.6s13.7-1.3,19.7-3.8c22.4-9.1,23.5-33.2,3.4-44.4-8.3-4.5-19.9-6.8-32.3-6.6-3.1,0-6.3,1.4-8,5-9.9,21.1-25.1,49.6-51.5,52.7-34.2,3.9-43.9-30.8-24.8-49.6,7.2-7,16.4-10.8,25.7-10.8s24.6,6.8,30.4,20.8c.9,2.2-.4,4.7-2.2,4.7s-2-.7-2.7-2.3c-5.1-10.6-15.9-16-26.4-16s-15.4,2.9-20.8,8.4c-13.9,14.3-5.8,40,20.2,38.4,9.2-.5,19.3-4.7,28.2-16.1,6.3-8.1,12.8-19.9,20.4-36,0,0,0-.4-.7-.4-4.2.2-7,0-11.9.4-3.4.2-2.9-4.3,1.6-4.7,5.2-.5,8.3-1.1,12.3-1.1s1.8-.7,2.3-1.8c3.8-8.1,18.4-40.1,30.5-51.3.9-.9.9-1.6,0-2-5.2-1.8-13.9-3.9-24.6-3.9s-15.4,1.1-23.9,3.9c-28.6,9.7-47,48.6-17.2,48.6s32.3-6.3,36.7-16.8c2.3-5.4,6.9-3.4,3.6,2.5-8,13.8-26.2,21.9-42.1,21.9-33.4,0-26.7-43.9,17.9-60.6,8.5-3.2,17.2-4.3,25.1-4.3,13.6,0,24.9,3.2,30,5.2.9.4,2.2.2,3.4-.2,2.9-1.1,6-1.8,9-1.8,6.5,0,12.6,3,14.5,11.1.5,2.3-1.1,3.8-2.3,3.8s-1.4-.5-1.8-1.4c-2-6.5-8.1-9.3-13.6-8.4-1.3.2-1.4.9-.7,1.4,31.8,22.2,1.8,50.5-27.6,56.6ZM461.5,61.6c-.4.9.2,2.7,1.4,2.5,26-4.7,58.4-28.9,32-49.6-.9-.7-2.9,0-5.8,3-10.3,10.4-23.5,34.8-27.6,44.1Z" fill="#231f20"/>
    <path d="M533.1,91.4c-8.1,0-12.6-5-13-11.3-.7-14.2,8.1-25.3,14.1-25.3s4.2,1.6,5.1,5c1.3,4.7-.7,13.8-5.2,24.4-.5,1.3-.5,1.4.4,1.3,14.5-2.7,23.1-9.5,31.6-22.4,1.4-2.3,3.4-3.2,4.9-3.2,2.3,0,4,2.2,2.5,4.7-8.9,17-19.9,34.6-23,52-1.3,6.8,2,10.2,7.4,10.2,11.4,0,31.8-14.7,39.6-44.3.5-2.2,1.8-3,2.9-3s2.7,1.4,2.3,3.4c-7.4,32.6-30.4,49.1-45,49.1s-14.3-5.7-12.3-17.2c1.8-11.1,6.7-21.5,11.2-31.4.4-1.1.2-1.3-.7-.5-9.4,6.1-17,8.6-22.8,8.6ZM532.7,60.8c-1.3,0-3.1,1.8-4.7,4.3-3.3,5.2-4,17.2-1.1,17.9,1.6.7,2.7-.9,4.3-5.2.7-2.3,1.8-5,2.3-8.2,1.1-6.3.4-8.8-.9-8.8Z" fill="#231f20"/>
    <path d="M615.3,133.7c-18.4,0-32.5-14.9-21.1-44.8,6.7-17.7,21.5-29.6,40.7-29.6s29.1,10.2,23.5,35.7c-2.5,11.1-6.9,15.6-9.6,17.7-.7.7-.7,1.3.4,1.1,8.3-1.6,30.4.9,36.7-30.1.4-1.6,1.6-2.3,2.7-2.3,1.6,0,3.1,1.3,2.3,3.9-5.6,20.4-14.1,34.6-42.1,34.6-1.8.4-2.5.5-3.1,1.1-9.2,8.4-20.4,12.7-30.4,12.7ZM631.7,65.4c.7-.5-4.7.2-5.8.4-11.9,3-19.3,7.5-25.7,24.9-9.2,25.3,2.5,37.1,16.6,37.1s13.2-2.3,18.8-7c.7-.7.5-1.3-.5-1.3-26-2-22.8-39.1-3.4-54.1ZM653.6,94.1c2.2-18.3-2-28-9.6-28s-2.7.4-4.3.9c-20.6,8.1-23.5,48.9-.9,48,7-.4,14.3-15.8,14.8-21Z" fill="#231f20"/>
    <path d="M758.2,77.4c-.4-4.8-2.5-10.8-8.3-10.8s-4.5.9-7,2.2c-1.4.9-3.6,2-4.9,3.2-3.8,3.6-6.1,8.4-6.7,13.4-1.6,14.7-5.1,29-9.8,42.7-.7,2-2.3,2.9-3.8,2.9s-3.8-1.8-2.3-5c1.8-4.1,5.4-11.1,7.6-21,2.5-10.8,3.1-22.2.9-30.1-1.4-5.2-4-7.2-6.7-7.2-4.7,0-10.7,5.9-14.8,10.6-5.4,6.1-7.8,10.4-10.7,16.1-4.9,10-8,19.2-12.3,31.2-1.3,3.6-3.4,5.2-5.1,5.2s-2.7-1.6-1.8-4.5c7.8-21.3,12.1-42.3,19.7-63.4.9-2.3,2.9-3.4,4.3-3.4s2.2.9,1.4,2.5c-1.6,4.1-4.7,14.7-6.7,22.6-.2,1.1,0,1.1.4.2,1.8-3.6,3.3-6.8,5.2-9.9,6.1-9.3,15.5-15.4,23.1-15.4s8.7,2.3,10.5,7.9c.4,1.1,1.1,1.3,1.6.5,4.9-5,11.7-8.2,18.1-8.2,11.2,0,20.1,10.4,11,39.8-3.4,10.9-2.7,18.8.2,22.8,1.4,2,3.6,3,6,3,14.5,0,26.6-30.5,30.4-40.9.7-2.5,2.7-4.1,4.2-4.1s2.3,1.6,1.3,5.2c-9.8,32.3-26,45.7-37.6,45.7s-7-1.4-9.4-4.1c-4.3-4.7-5.8-13.4-2.2-24.9,3.4-11.1,4.5-19.2,4.2-24.7Z" fill="#231f20"/>
    <path d="M797.6,106.5c-3.3,12,.4,17.9,6.7,17.9,9.8,0,26.4-13.8,35.6-41.4.7-2,2.3-3,3.6-3s2.7,1.3,1.8,4.1c-9.4,32.3-29.3,46.8-42.6,46.8s-15.5-7.2-13-19.9c5.1-25.3,21.1-62.4,33.8-86.6,6.9-13.1,16.3-19.2,23-19.2s11.4,7,5.8,20.3c-6,14.3-26.6,33.3-39.8,46.4-4,3.9-8.1,10.4-9.8,16-3.3,8.8-4.9,18.1-5.1,18.6ZM845.9,26.7c4.7-10,3.3-14.9-.5-14.9s-10.1,4.8-15.4,14.3c-4.5,8.2-11,19.5-16.3,32.3-2.3,5.4-.9,6.3,3.3,2.3,11.7-11.3,24.6-24.6,28.9-34.1Z" fill="#231f20"/>
    <path d="M854,125.1c13.9,0,34.2-14.3,43.2-42.5.5-1.8,1.8-2.5,3.1-2.5s2.9,1.3,2,3.8c-4.2,11.6-8.1,22.2-15,29.6-10.7,11.6-23.7,17.6-34.2,17.6-15.4,0-25.7-12.5-17.2-38.5,3.6-10.8,12.8-34.1,26.9-34.1s10.5,8.2-4,22c-6.7,6.3-12.6,12.2-16.4,15.1-6.9,19.9.2,29.6,11.6,29.6ZM857.2,75.4c8.3-7.9,8.7-12.2,5.6-12.2s-13,7-17.9,22.8c3.8-2.2,8.1-6.8,12.3-10.6Z" fill="#231f20"/>
    <path d="M936.9,109.7c.2-.9,0-1.1-.5-.4-9.9,13.6-21.5,21.5-30.2,21.5-13.9,0-20.8-19.9-2.9-67.6.9-2.5,2.7-3.6,4.3-3.6s2.9,1.4,2,3.9c-16.3,43.6-12.6,60.2-2.5,60.2s36.3-27.2,42.6-60.4c.4-2.5,2.2-4.1,3.6-4.1s2.7,1.6,2,5.2c-2.3,11.6-13.4,47.1-18.1,60.4q-.4.9.7.7c16.8-3.8,32.5-8.2,42.6-42.1.7-2.3,2.2-3.6,3.4-3.6s2.5,1.6,1.8,4.1c-11.6,40.5-34.3,44.4-48.6,48.4-1.1.4-1.8,1.6-2,2.5-1.8,6.5-4.7,19-13,42.5-12.8,36.2-29.5,50.4-40.7,50.4-20.8,0-23.5-48.8,47.9-96.1.7-.5,1.6-1.6,1.8-2.5l5.6-19.5ZM883.8,219.6c8.7,0,22.2-12.2,32.3-41.6,7.6-21.9,10.3-33,11.7-38.4.2-.9,0-1.1-.7-.5-58.4,44.3-58.4,80.5-43.4,80.5Z" fill="#231f20"/>
  </g>
</svg>