<?xml version="1.0" encoding="UTF-8"?>
<svg id="Layer_1" data-name="Layer 1" xmlns="http://www.w3.org/2000/svg" viewBox="0 0 232.6 183.1">
  <path d="M81.2,41.8c-3.9,5-4.5,8.8.8,8.8s4.6-.5,8.2-1.6c2.2-.6,4-.9,5.6-.9,22.9,0-17.2,63.6,3.1,63.6s4-.5,6.8-1.6c1.2-.5,2.3-.6,3.1-.6,3.3,0,2.5,3.5-1.7,4.7-4.8,1.4-8.7,2.2-11.8,2.2-29.1,0,16.6-62-2.6-62s-2.2.2-3.6.5c-3.7.9-6.7,1.4-9,1.4s-3.1-.3-4.2-.6c-1.1-.3-1.9-.2-2.3.6C52.7,98.5,20.6,118.5,6.8,118.5s-9.9-6.3-1.1-18.6c13-18.3,40.7-44.5,69.4-60.7.6-.5,1.4-1.4,1.9-2.2,6.7-19-2.6-29.3-15.2-31.3C31.9,1.1-7.4,46.3,19.1,53.6c2.2.6,4.8.9,7.4.9,11.8,0,26.3-6,30.1-14.9,1.9-4.6,5.9-2.8,3.1,2.2-7.3,12.7-23.4,19.2-36.2,19.2s-4.3-.2-6.2-.5C-19.1,53.3,24.2-3.3,62.3.2c15.2,1.4,26,11.8,21.2,31.9-.2.9,0,.9.6.3,9.8-9.9,33.8-29.1,48.5-29.1s13.9,20-24.6,27.1c-7.4,1.4-15.6,4.9-24.6,9.8-.9.5-1.7,1.1-2.2,1.7ZM71.6,47c-22.9,14.8-46.2,36.3-58.2,52.7-6,8-5.7,12-1.5,12,9.8,0,41.4-22.5,60.6-64.2.5-.8,0-.9-.8-.5ZM93.3,30.4c4.6-1.7,9-3.5,13.5-4.4,31.6-7.4,33.2-17.6,23.5-17.6s-29.1,14.5-37.2,21.6c-.8.6-.8.8.2.5Z" fill="#231f20"/>
  <path d="M193.1,63.2c9.8.3,19.4,2.8,26.5,7.7,17.5,11.6,14.7,35.7-5.4,44.2-6.4,2.7-13.8,4.1-20.8,4.1-17,0-32.2-7.9-27-23.1,2.2-6.8,8.4-12.6,16.9-12.6s3.4.2,5.1.6c8.5,2.2,11.8,8.2,11.9,8.8,1.1,1.9-.3,3.8-1.7,3.8s-1.1-.3-1.4-1.1c-3.3-3.9-10.1-6.6-15.2-6.6-7.3,0-11.6,5-12.1,10.5-.8,10.2,10.5,15.4,23.1,15.4s11.8-1.1,16.9-3.3c19.2-8,20.1-29.1,2.9-39-7.1-3.9-17-6-27.7-5.8-2.6,0-5.4,1.3-6.8,4.4-8.5,18.6-21.5,43.6-44.1,46.3-29.3,3.5-37.6-27.1-21.2-43.6,6.2-6.1,14.1-9.4,22-9.4s21.1,6,26,18.3c.8,1.9-.3,4.1-1.9,4.1s-1.7-.6-2.3-2c-4.3-9.3-13.6-14-22.6-14s-13.2,2.5-17.8,7.4c-11.9,12.6-5,35.1,17.3,33.7,7.9-.5,16.6-4.1,24.2-14.2,5.4-7.1,11-17.5,17.5-31.6,0,0,0-.3-.6-.3-3.6.2-6,0-10.2.3-2.9.2-2.5-3.8,1.4-4.1,4.5-.5,7.1-.9,10.5-.9s1.5-.6,2-1.6c3.3-7.1,15.8-35.2,26.2-45,.8-.8.8-1.4,0-1.7-4.5-1.6-11.9-3.5-21.1-3.5s-13.2.9-20.4,3.5c-24.5,8.5-40.3,42.6-14.7,42.6s27.7-5.5,31.4-14.8c2-4.7,5.9-3,3.1,2.2-6.8,12.1-22.5,19.2-36.1,19.2-28.7,0-22.9-38.5,15.3-53.2,7.3-2.8,14.7-3.8,21.5-3.8,11.6,0,21.4,2.8,25.7,4.6.8.3,1.9.2,2.9-.2,2.5-.9,5.1-1.6,7.7-1.6,5.6,0,10.8,2.7,12.4,9.8.5,2-.9,3.3-2,3.3s-1.2-.5-1.5-1.3c-1.7-5.7-7-8.2-11.6-7.4-1.1.2-1.2.8-.6,1.3,27.3,19.5,1.5,44.4-23.7,49.7ZM184.5,57.9c-.3.8.2,2.4,1.2,2.2,22.3-4.1,50-25.3,27.4-43.6-.8-.6-2.5,0-5,2.7-8.8,9.1-20.1,30.5-23.7,38.7Z" fill="#231f20"/>
  <path d="M201.3,135.5c-.4,1.1-1.7,1.7-2.7,1.1-.3-.2-21.6-11.7-71.3-6-.1.3-.3.5-.7.6-1.2.3-2.2,1.1-2.9,2.1-.7,1.1-2.5.1-1.7-1.2,0-.2.1-.5.3-.6,0-.2.1-.2.1-.3l-3.5.4-14.4,2.5c4.7,17.1-1.9,37.1-14.6,48.6-.1.6-1.2.6-1.4-.2-4-14.2-1.3-29,6.4-40.7-3.8,2.9-7.4,4.8-8.8,5.6.1.9,0,1.8-.6,2.6-1,1.7-3.2,2.1-4.8,1-1.6-1.2-2-3.5-1-5.2.6-.8,1.3-1.4,2.3-1.5h.6c.7,0,1.4.2,2,.6.3.2.6.5.7.8,2.2-1.1,9-4.7,13.9-10.5-7.7,1.6-15.6,3.6-23.1,5.5,0,0,0,.2.1.2.8,18-16.3,33.2-32,36.2-.6,0-1.2-.5-.9-1.1,4.6-14.5,14.9-27.6,28-34.1l-10.7,3c0,.2-.1.2-.3.2-2.2.9-4.1,2.7-4.8,5.2-.6,1.4-2.6.7-2.2-.6.4-1.1,1-2.1,1.6-3l-12.3,3.7c0,.2-.1.3-.1.3-1.2,11.9-8.5,22.6-18.8,27.4-.7.3-1.4-.3-1.3-1.1,2.4-10.1,8-19,16-25.3l-6.2,2c-2.2,5.2-6.4,9-11.7,9.9-.9.1-1.6-.8-1.1-1.7l.3-.5c-3.8,1.4-7.7,1.9-11.7,1.5-.7,0-1.4-1.2-.7-1.8,6.7-6.1,14.9-10,23.7-10.6-1.7-.5-3.2-1.1-3.9-1.4-.4.5-1.2.8-1.7.8-1.3,0-2.4-1.2-2.4-2.6s1.2-2.4,2.5-2.4c1.3,0,2.3,1.1,2.3,2.5v.2c1.4.6,5,2,8.4,2,0-.2.1,0,.1,0l12.3-4.1c-15.2,1.1-30.4-6.4-39.4-19.2-.4-.6.2-1.4.7-1.4,15.7,0,31.1,7,42.2,18.7.3.3.3.5.3.6,7.5-2.2,16.5-4.9,25.9-7.3-5.9-.2-9.7-1.6-11.1-2.2-.6.5-1.2.8-1.9.8-1.4,0-2.7-1.4-2.7-2.9,0-1.5,1.3-2.9,2.8-2.9,1.4,0,2.7,1.4,2.7,2.9,0,.2-.1.3-.1.5,1.3.6,4.3,1.9,9.4,2-2.9-1.2-5.5-3.1-7.6-5.1-5.5-4.5-10.2-10.1-13.3-16.7-.3-.8.2-1.4.9-1.2,11.1,2.2,27.4,9,28.9,22.8,8.5-2.1,17.1-4,25.1-5.4l-.4-.5c-.9-.8,0-2.1,1-1.8.4,0,.9.2,1.3.3.7,0,.9.6.9,1.1.1.2.4.3.6.3l2.7-.4c15.3-2.1,28.2-2.9,39-2.8,29.7.2,43.3,6.7,44,7,1.2.6,1.6,1.8,1,3.1ZM27.9,153c-6.1,1-11.9,3.8-16.8,7.7,3.9,0,7.7-1,11.1-3,1.6-1.8,3.5-3.5,5.7-4.7ZM49.9,143.5c-10.3-10.3-24-16.6-38.3-17,9,12,24,18.6,38.3,17ZM22.9,160.6c2.2-.9,4.1-2.4,5.5-4.2-1.4,1.2-3,2.3-4.8,3.2-.3.3-.6.6-.7,1.1ZM24.7,175.7c8.7-4.7,14.8-13.7,16.3-23.7-7.8,5.6-13.6,14-16.3,23.7ZM25.6,146.4c-.4,0-.7.5-.7.8,0,.5.3.8.7.8.3,0,.6-.3.6-.8,0-.3-.3-.8-.6-.8ZM45.4,175.1c14.2-3.4,29.1-16.6,29.3-32.7-13.5,5.6-24.3,18.3-29.3,32.7ZM74.3,120.4c-4.9-3.1-10.1-5.2-15.7-6.5,2.9,5.4,6.7,10,11.2,13.8,3.9,3.5,9.5,7.5,14.8,6.8-.8-6.1-5.4-10.9-10.3-14.1ZM65.4,131.4c-.6,0-1,.5-1,1.1,0,.6.4,1.1,1,1.1.3,0,.4-.2.6-.3q.1-.2.1-.3l.3-.3v-.2c0-.6-.4-1.1-1-1.1ZM83.6,146.4c-.4-.3-.9-.5-1.3-.3-.4,0-.9.3-1.2.8-.6.8-.3,2,.4,2.6.4.2.7.3,1,.3.6,0,1.2-.3,1.6-.8.1-.5.3-.9.2-1.5v-.2s0-.2-.1-.2v-.2c-.1-.3-.3-.5-.6-.6ZM89.6,180.7c11.6-11.2,17.8-30,13.2-46.2-12,11.8-17.3,29.4-13.2,46.2Z" fill="#1f6f63"/>
</svg>
