<?xml version="1.0" encoding="UTF-8"?>
<svg id="Layer_1" data-name="Layer 1" xmlns="http://www.w3.org/2000/svg" viewBox="0 0 512.7 213.5">
  <g>
    <path d="M99.1,47.7c-4.5,5.7-5.2,10,.9,10s5.4-.5,9.6-1.8c2.5-.7,4.7-1.1,6.5-1.1,26.7,0-20.1,72.4,3.6,72.4s4.7-.5,8-1.8c1.4-.5,2.7-.7,3.6-.7,3.8,0,2.9,3.9-2,5.4-5.6,1.6-10.1,2.5-13.7,2.5-34,0,19.3-70.6-3.1-70.6s-2.5.2-4.2.5c-4.3,1.1-7.8,1.6-10.5,1.6s-3.6-.4-4.9-.7c-1.3-.4-2.2-.2-2.7.7-24.4,48-61.8,70.8-77.9,70.8s-11.6-7.2-1.3-21.1c15.2-20.8,47.5-50.7,81-69.2.7-.5,1.6-1.6,2.2-2.5,7.8-21.7-3.1-33.3-17.7-35.7C41.6,1.2-4.3,52.7,26.6,61.1c2.5.7,5.6,1.1,8.7,1.1,13.7,0,30.7-6.8,35.1-17,2.2-5.2,6.9-3.2,3.6,2.5-8.5,14.5-27.3,21.9-42.3,21.9s-5.1-.2-7.2-.5C-17.9,60.8,32.6-3.8,77,.2c17.7,1.6,30.4,13.4,24.8,36.4-.2,1.1,0,1.1.7.4,11.4-11.3,39.4-33.2,56.6-33.2s16.3,22.8-28.7,30.8c-8.7,1.6-18.3,5.6-28.7,11.1-1.1.5-2,1.3-2.5,2ZM87.9,53.6c-26.7,16.8-53.9,41.4-67.9,60-7,9.1-6.7,13.6-1.8,13.6,11.4,0,48.2-25.6,70.7-73.1.5-.9,0-1.1-.9-.5ZM113.2,34.6c5.4-2,10.5-3.9,15.7-5,36.9-8.4,38.7-20.1,27.5-20.1s-34,16.5-43.4,24.6c-.9.7-.9.9.2.5Z" fill="#231f20"/>
    <path d="M157.8,130.8c-43.6,0-19.3-71,24.9-72.6,12.6-.4,21,6.8,19.9,19.2-.2,3-2.5,4.7-4.3,4.7s-2.7-1.1-2.3-2.9c1.1-6.5.5-14.7-13.7-14.9-34.9-.4-58,60.2-23.1,60.2s27.8-14.2,35.1-29.6c1.4-3,3.4-4.5,5.1-4.5s2.7,1.8,1.3,4.8c-.9,2-1.8,3.9-2.7,5.9-6.3,14.9-.9,23.3,8.3,23.3s27.8-12.2,36.1-40.1c.7-2.5,2.3-4.1,3.6-4.1s2.3,1.6,1.3,5.2c-9.4,31.7-28,45.3-41.7,45.3s-15.2-5.4-16.1-15.1c0-1.1-.5-1.3-1.1-.5-8.1,9-18.4,15.6-30.4,15.6Z" fill="#231f20"/>
    <path d="M267.8,24.4c6.7-13.1,16.1-19.2,22.8-19.2s11.6,7,6,20.3c-6.1,14.9-27.5,34.2-40.1,47.1-.7.7-.5,1.3.5,1.3,4.9-.2,9.6-.4,14.5-.4s2.3,1.3,2,2.7c-.4,1.1-1.3,2.2-2.5,2.5-.7.4-9.2.4-10.8.4-2.9,0-5.6,0-8.5.2-1.1,0-2,.7-2.3,1.8-11.7,33.7-4.2,46.1,8.3,46.1s25.5-9.3,33.8-22c4.2-6.3,7-14.2,9.6-22.2.5-1.8,2.2-2.7,3.4-2.7s2.7,1.3,1.8,3.8c-3.4,9.3-6.7,17.6-10.8,24.7-8.9,15.2-23.9,23.8-36.3,23.8s-28.7-15.2-15.9-50.9c.4-.9,0-1.4-1.1-1.4-2.7.2-5.4.4-8,.5h-.2c-1.4,0-2.3-1.3-2-2.7.5-1.4,1.8-2.5,3.4-2.7,2.7-.4,5.6-.5,8.5-.7,1.1,0,2-.9,2.3-1.8,6.7-17.2,14.6-34.8,21.7-48.4ZM290.2,26.7c9.2-19.9-5.1-19.9-15.7-.7-5.6,10-13,22.4-19.5,38.4-.7,2,.9,1.8,2,.7,12.5-12.4,28-26.7,33.3-38.4Z" fill="#231f20"/>
    <path d="M314.8,125.1c13.9,0,34.2-14.3,43.2-42.5.5-1.8,1.8-2.5,3.1-2.5s2.9,1.3,2,3.8c-4.2,11.6-8.1,22.2-15,29.6-10.7,11.6-23.7,17.6-34.2,17.6-15.4,0-25.7-12.5-17.2-38.5,3.6-10.8,12.8-34.1,26.9-34.1s10.5,8.2-4,22c-6.7,6.3-12.6,12.2-16.4,15.1-6.9,19.9.2,29.6,11.6,29.6ZM318.1,75.4c8.3-7.9,8.7-12.2,5.6-12.2s-13,7-17.9,22.8c3.8-2.2,8.1-6.8,12.3-10.6Z" fill="#231f20"/>
  </g>
  <g>
    <path d="M59.4,192.8c0,10.7-7.8,17.8-19.6,19.6-6.5,1.1-14.3,1.1-39.7,1.1v-72.8c27.9,0,36.2-1.1,44.2,2.7,5.8,2.9,9.5,7.8,9.6,13.4.1,7.9-6.2,14.7-14.8,16.8,11.7,1.8,20.5,7.6,20.5,19.1ZM6.8,173.2c4.9-.2,18.1-.2,24-.3,8.5-.2,16.6-7.4,16.8-15.7.2-10.2-8.9-14.7-19.8-14.7H6.8v30.7ZM45.2,207c13.6-9.5,9.2-30.2-13.1-32-5.4-.5-17.3-.2-25.4-.2v36.9c10.6,0,30,1,38.4-4.7Z" fill="#231f20"/>
    <path d="M128.9,213.5h-6.9c-3.3-15-12.3-28.5-27.7-30.4h-16.7v30.4h-6.7v-72.8h16.1c16.2,0,23.7,0,30.9,4,6.5,3.7,10.9,10,10.9,17.1,0,11.3-9.7,20.7-21.9,21.2,11.6,4.9,20.2,16.7,22,30.4ZM98.8,181.1c14.4,0,22.8-8.6,23-18.8.1-7-3.3-13.7-10.5-17.3-6.7-3.4-10.8-2.6-33.7-2.6v38.7h21.2Z" fill="#231f20"/>
    <path d="M218.8,177.3c0,20.1-17.6,36.2-39.3,36.2s-39.4-16.2-39.4-36.2,17.6-36.6,39.4-36.6,39.3,16.3,39.3,36.6ZM209.3,165.5c-7.9-17.6-27.8-26.7-44.3-20.2-16.6,6.3-23.5,25.9-15.4,43.5,7.9,17.8,27.8,26.7,44.3,20.4,16.6-6.5,23.5-25.9,15.4-43.7Z" fill="#231f20"/>
    <path d="M297.2,213.5l-1.4-67.4-29.3,51.6-31.3-46.1c.2,9.2-.4,22.3-.4,29.3-.1,11.8.7,32.7.7,32.7h-5.1s.9-18.6,1.2-32.7c.1-14.1.7-40.1.7-40.1h2.7l33,49.2,27.8-49.2h6.3l1.9,72.8h-6.7Z" fill="#231f20"/>
    <path d="M368.3,208.2v5.3h-52.8v-72.8h6.8v70.8h25c6.9,0,21-3.4,21-3.4Z" fill="#231f20"/>
    <path d="M382.9,142.5v29.8h32.3v1.8h-32.3v37.7h25c7,0,21.2-3.6,21.2-3.6v5.3h-52.8v-72.8h52.9v5.3s-14.3-3.6-21.3-3.6h-25Z" fill="#231f20"/>
    <path d="M480.3,189.4v24.1h-6.7v-23.6l-33.3-49.2h7.1l31.6,45.9,16.7-25.4c8.5-13.4,11.1-20.5,11.1-20.5h5.8l-32.4,48.7Z" fill="#231f20"/>
  </g>
  <path d="M482.7,20.9c-1.7,2.9-3.1,6-4.9,8.8-3.2,4.7-6.7,8.8-10.9,12.1-2.5,1.9-4.9,4.1-7.4,6.2-.1.2-.1.5-.4,1.2l2.1-.9c4.3-1.7,8.2-.7,11.6,2.9.7.7.6,1.2-.3,1.7-2.1.9-4.3.9-6.6.3-2.2-.5-4.3-1.2-6.6-1.9-1.3-.5-2.2-.5-3.3.5l-5.7,4.7c1,.2,1.4.3,1.8.3,3.1.3,6,.5,8.9,1.7,1.8.7,3.3,1.7,4.6,3.3.4.5.6,1.2.8,1.9-.4.3-.8.9-1.4.9-1.3.3-2.5.5-3.8.7-4.6.3-8.6-1.6-12.6-4.3-2.5-1.9-1.5-1.7-4.2-.2l-3.5,2.1-2.5,1.9,2.6.7c4.5,1,8.1,3.8,10.7,8.5l.6.9c.4.9,1,1.9.4,2.6-.4.5-1.4.7-2.1.5-1.4-.2-2.8-.7-4.2-1.2-4.3-1.6-8.1-4.3-10.9-8.6q-1-1.4-2.4-.7l-5.7,3.4c.7.5,1.1.7,1.5.9,4,.9,7.7,3.4,11.4,5.3.4.2.7.5.8.7.4.5.4,1-.1,1.4l-1.8.9c-5.4,1.6-10.2-.3-14.2-4.5-1.8-1.7-3.1-1.9-4.7-.3-1.3,1-2.6,1.9-4,2.8v.3c1.8,1,3.6,1.7,5.4,2.9,1.7,1.2,3.3,2.8,5,4.1l1,.5c.4.3,1.3.7,1,1.6-.1.5-.8.7-1.4.9-3.3,1-6.4.3-9.3-1.4-2.1-1.4-4-3.1-5.9-5-.3-.3-1-.7-1.3-.5-2.6,1.7-5.2,3.6-8.1,5.7l3.2.9c4.7,1.4,8.8,4,12.1,8.3l.7,1.2c.1.5.1,1.2-.4,1.2-.8,0-1.5.2-2.4,0-5.6-.9-10.6-3.3-14.5-8.6-.8-1.2-1-1.2-2.1-.3-4.9,3.6-9.6,7.4-13.8,12.2l-7.5,9.3c-1,1.2-1.8,2.6-2.8,4-.3.5-.4,1-.7,1.4-.4.2-1,.3-1.1,0-.3-.2-.4-1-.3-1.2,1-1.9,1.8-3.8,3.1-5.3,5.6-7.9,12.3-14.7,19.5-20.3l1.4-1.2c1.8-1,2.9-2.4,2.1-5-.4-7.9,1.5-14.8,5.3-21.2.1,0,.1-.3.3-.3.4-.3,1-.7,1.4-.5.3.2.7.9.7,1.4.1,1.4.1,2.8,0,4.1-.4,5.2-1.3,10.2-3.5,14.8l-.8,2.1c.6,0,.8,0,1-.2,2-1.2,3.8-2.6,5.7-4,.7-.5,1-1,.8-2.1-.8-5,0-9.8,1.1-14.5.7-2.6,1.7-5,2.5-7.6,0-.2.1-.5.3-.9.3-.5,1-.5,1.3.2.1.5.3,1.2.3,1.7.8,6.2.3,12.2-2,18.1-.3.5-.4,1.2-.8,2.2l1.5-.5c2.2-1.2,4.3-2.6,6.4-3.8,1.3-.7,1.7-1.4,1.5-3.1-.4-8.3,2-15.5,6.1-21.9.4-.7.8-1.6,1.7-1.2.7.2.6,1.4.6,2.1-.1,2.2-.3,4.5-.7,6.6-.7,3.6-1.8,6.9-3.2,10.2l-2,4.7,1.7-.7c1.8-1,3.5-2.1,5.3-2.9,1-.5,1.1-1.2,1.1-2.4-.3-7.6,1.5-14.3,5.3-20.2.6-.7,1.1-2.1,2-1.7,1.1.5.6,2.1.6,3.1,0,2.9-.6,5.5-1.4,8.3-1.1,3.3-2.4,6.7-3.5,10.3.4-.2.7,0,1-.2l7.4-4.8c1-.5,1-1.4.8-2.4-.8-8.3,1-15.5,4.3-22.4.3-.7.7-1.2,1.1-1.7.6-.7,1.4-.5,1.5.5.1.9.1,1.7.1,2.6.1,5.5-.6,10.9-2.2,15.9l-1.4,4.3,1.7-1,4.7-4c1.3-1,1.5-1.9,1.1-3.6-1.3-6.2-.4-12.2,2-17.9,1-2.4,2.2-4.5,4-6,.3-.2,1-.5,1.1-.3.3.3.6,1,.6,1.6-.3,4.3-.7,8.5-2,12.6-.8,2.8-1.8,5.3-2.8,8.1-.3.5-.4,1.2-.7,2.4,2.5-1.7,4.5-3.6,6.3-5.7.6-.5.7-1.7,1-2.8,1.3-4.7,3.2-8.6,6.3-11.9,2.8-3.3,6.3-5.3,9.6-7.4.3,0,.8,0,1,.2,0,.3.1,1,0,1.4Z" fill="#4d4d4e"/>
</svg>