<?xml version="1.0" encoding="UTF-8"?>
<svg id="Layer_1" data-name="Layer 1" xmlns="http://www.w3.org/2000/svg" viewBox="0 0 994.3 33.4">
  <path d="M0,29h.1c.4,0,.7-.2.9-.6s.3-1,.3-1.7V3.4c0-.8-.1-1.4-.3-1.8S.5,1,.2,1H0v-1h11.1l.7,6.6h-.6c0-.5-.2-1-.4-1.7-.2-.6-.5-1.2-.8-1.8s-.6-1.1-1-1.5c-.4-.4-.7-.6-1.1-.6H3.5v10h2.9c.3,0,.5,0,.8-.2.3-.1.5-.3.7-.5.2-.2.4-.5.5-.8.1-.3.2-.7.2-1.2v-.2h.6v6.6h-.6v-.2c0-.5,0-.9-.2-1.2-.1-.3-.3-.6-.5-.8-.2-.2-.4-.4-.7-.5-.3-.1-.5-.2-.8-.2h-2.9v14.7c0,.7.1,1.3.3,1.7.2.4.5.6.9.6h0v1H0v-1Z" fill="#231f20"/>
  <path d="M19.4,30.4c-.9,0-1.8-.2-2.5-.6-.8-.4-1.4-1-2-1.8-.5-.8-1-1.7-1.2-2.8-.3-1.1-.4-2.3-.4-3.7V6.2c0-.6-.1-1.2-.3-1.5-.2-.4-.5-.6-.9-.6h0v-.9h4.8v.9h0c-.4,0-.7.2-.9.6-.2.4-.3.9-.3,1.5v14.7c0,.3,0,.7,0,1.2,0,.5.1,1.1.2,1.7.1.6.3,1.2.4,1.9.2.6.4,1.2.7,1.8.8,1.3,1.8,2,3,2s1.6-.3,2.2-.9c.6-.6,1.1-1.3,1.4-2.1.3-.8.6-1.7.7-2.7.1-.9.2-1.7.2-2.5V6.2c0-.6-.1-1.2-.3-1.5-.2-.4-.5-.6-.9-.6h-.1v-.9h3.4v.9h-.1c-.4,0-.7.2-.9.6-.2.4-.3.9-.3,1.5v15.2c0,1.1-.1,2.2-.3,3.3-.2,1.1-.5,2-1,2.9-.4.9-1,1.5-1.7,2s-1.5.8-2.5.8Z" fill="#231f20"/>
  <path d="M38.8,30L28.7,6.6v20.5c0,.6.1,1.1.3,1.5.2.4.5.6.9.6h0v.9h-3.4v-.9h0c.4,0,.7-.2.9-.6.2-.4.3-.9.3-1.5V6.2c0-.6-.1-1.2-.3-1.5-.2-.4-.5-.6-.9-.6h0v-.9h3.3l8.7,19.5V6.2c0-.6-.1-1.2-.3-1.5-.2-.4-.5-.6-.9-.6h0v-.9h3.4v.9h-.1c-.4,0-.7.2-.9.6-.2.4-.3.9-.3,1.5v23.8h-.6Z" fill="#231f20"/>
  <path d="M53.3,30l-10.1-23.4v20.5c0,.6.1,1.1.3,1.5.2.4.5.6.9.6h0v.9h-3.4v-.9h0c.4,0,.7-.2.9-.6.2-.4.3-.9.3-1.5V6.2c0-.6-.1-1.2-.3-1.5-.2-.4-.5-.6-.9-.6h0v-.9h3.3l8.7,19.5V6.2c0-.6-.1-1.2-.3-1.5-.2-.4-.5-.6-.9-.6h0v-.9h3.4v.9h-.1c-.4,0-.7.2-.9.6-.2.4-.3.9-.3,1.5v23.8h-.6Z" fill="#231f20"/>
  <path d="M59.7,29.1h.1c.4,0,.7-.2.9-.6.2-.4.3-.9.3-1.5v-11c-.1-.3-.3-.8-.6-1.3-.2-.5-.5-1.1-.7-1.8-.3-.6-.5-1.3-.8-1.9-.3-.6-.5-1.2-.7-1.8-.2-.6-.4-1-.6-1.4-.2-.4-.2-.6-.3-.6-.1-.2-.2-.5-.4-.9-.1-.4-.3-.7-.5-1s-.4-.6-.6-.8c-.2-.2-.4-.3-.7-.3h0v-.9h4.8v.9h-.1c-.3,0-.5.1-.6.4-.1.4,0,.9.2,1.5,0,0,.1.3.3.7.2.4.4.9.6,1.4.2.6.5,1.2.8,1.9.3.7.6,1.3.8,1.9s.5,1.2.7,1.7c.2.5.3.8.4,1.1,0-.2.2-.6.4-1,.2-.5.4-1,.7-1.6.2-.6.5-1.2.8-1.9.3-.6.5-1.2.7-1.8s.4-1,.6-1.4c.2-.4.2-.6.3-.6.1-.4.2-.7.3-1s0-.6,0-.8c0-.3-.3-.4-.5-.4h-.1v-.9h3v.9h0c-.2,0-.4,0-.6.3s-.4.4-.5.6c-.2.3-.3.5-.4.8-.1.3-.3.6-.4.9,0,0-.2.4-.4,1-.3.6-.6,1.3-.9,2.2-.4.9-.8,1.9-1.2,3-.4,1.1-.9,2.1-1.3,3.2v10.9c0,.6.1,1.1.3,1.5.2.4.5.6.9.6h.1v.9h-4.9v-.9Z" fill="#231f20"/>
  <path d="M69.5,26.3c.4,0,.6.1.8.3.2.2.4.5.5.8s.2.6.2,1c0,.3,0,.6,0,.9,0,.6-.2,1.2-.4,1.7s-.4.9-.7,1.3c-.2.4-.5.6-.7.8-.2.2-.3.3-.4.3l-.2-.6c0,0,.2-.2.3-.5.2-.2.3-.5.5-.8.2-.3.3-.6.5-.9s.2-.6.2-.9c0,0,0,0-.2.2-.1.1-.3.2-.6.2s-.4,0-.5-.2c-.1-.1-.2-.3-.3-.5,0-.2-.1-.4-.2-.6,0-.2,0-.3,0-.4,0-.4,0-.8.2-1.1.1-.3.2-.5.4-.6s.3-.2.4-.3c.1,0,.2,0,.3,0Z" fill="#231f20"/>
  <path d="M93.3,29.1h0c.4,0,.7-.2.9-.6.2-.4.3-.9.3-1.5v-12.9h-7.1v12.9c0,.6.1,1.1.3,1.5.2.4.5.6,1,.6h0v.9h-4.8v-.9h0c.4,0,.7-.2.9-.6.2-.4.3-.9.3-1.5V6.2c0-.6-.1-1.2-.3-1.5-.2-.4-.5-.6-.9-.6h0v-.9h4.8v.9h0c-.4,0-.7.2-1,.6-.2.4-.3.9-.3,1.5v7h7.1v-7c0-.6-.1-1.2-.3-1.5-.2-.4-.5-.6-.9-.6h0v-.9h4.8v.9h-.1c-.4,0-.7.2-.9.6-.2.4-.3.9-.3,1.5v20.8c0,.6.1,1.1.3,1.5.2.4.5.6.9.6h.1v.9h-4.8v-.9Z" fill="#231f20"/>
  <path d="M98.6,29.1h0c.4,0,.7-.2.9-.6.2-.4.3-.9.3-1.5V6.3c0-.7-.1-1.2-.3-1.6-.2-.4-.5-.6-.9-.6h-.1v-.9h11.4l.7,5.9h-.6c0-.5-.2-1-.4-1.5-.2-.5-.5-1.1-.8-1.6-.3-.5-.6-1-1-1.3-.4-.4-.7-.5-1.1-.5h-4.9v8.9h2.9c.3,0,.5,0,.8-.1s.5-.2.7-.4.4-.4.5-.7c.1-.3.2-.7.2-1.1v-.2h.6v5.9h-.6v-.2c0-.4,0-.8-.2-1.1-.1-.3-.3-.5-.5-.7-.2-.2-.4-.3-.7-.4s-.5-.1-.8-.1h-2.9v15.2h5.4c.5,0,1-.2,1.3-.6.4-.4.7-.9,1-1.4.3-.6.5-1.1.6-1.7.2-.6.3-1,.3-1.3v-.2s.5.2.5.2l-.7,5.9h-12v-.9Z" fill="#231f20"/>
  <path d="M121.2,30v-.9h.1c0,0,.2,0,.4,0,.1,0,.3-.2.4-.5.2-.4.1-1,0-1.8-.1-.5-.2-1.1-.4-1.9s-.4-1.7-.6-2.8h-6.3c-.3,1.2-.5,2.2-.7,3.1-.2.9-.3,1.4-.3,1.6,0,.2-.1.5-.1.8,0,.3,0,.6,0,.8.2.4.5.6.9.6h.2v.9h-3.5v-.9h.1c0,0,.2,0,.3,0,.1,0,.3-.1.4-.3.1-.1.3-.3.5-.6.2-.3.3-.6.4-1.1,0-.4.2-1.1.4-1.9s.4-1.9.7-3.1c.3-1.2.6-2.5.9-3.8.3-1.4.6-2.7.9-4.1.3-1.4.6-2.7.9-4s.5-2.4.8-3.4c.2-1,.4-1.8.5-2.4.1-.6.2-.9.2-1h0c0-.1.6-.1.6-.1l5.9,24.8c.1.5.3.8.4.9,0,.1.3.2.6.2h.3v.9h-4.8ZM120.8,21.2c-.3-1.3-.6-2.6-.9-4-.3-1.4-.6-2.7-.9-3.9-.3-1.2-.5-2.3-.7-3.2-.2-.9-.4-1.6-.4-2,0,.4-.2,1.1-.5,2s-.5,2.1-.8,3.3c-.3,1.2-.6,2.5-.9,3.9-.3,1.4-.6,2.7-.9,3.9h5.9Z" fill="#231f20"/>
  <path d="M139.8,30c-.8,0-1.5-.2-2.1-.6-.5-.4-1-1.1-1.3-2-.2-.5-.3-1.1-.5-1.7-.2-.6-.4-1.3-.6-2s-.4-1.4-.6-2.1c-.2-.7-.4-1.3-.6-1.9-.2-.6-.3-1.1-.4-1.5-.1-.4-.2-.7-.2-.8h-3.9v6.9c0,1.1,0,2,.1,2.7s.2,1.1.3,1.5c.1.3.3.5.4.6s.3.1.5.1h0v.9h-4.8v-.9h0c.4,0,.7-.2.9-.6.2-.4.3-.9.3-1.5V6.2c0-.6-.1-1.2-.3-1.5-.2-.4-.5-.6-.9-.6h0v-.9h6.9c1.8,0,3.2.6,4.2,1.8,1,1.2,1.5,3,1.5,5.2s-.3,3.2-1,4.4c-.7,1.2-1.6,2-2.9,2.5h.2c.6,0,1,.6,1.4,1.8.4,1.2.7,2.3,1,3.1.3.9.6,1.7.8,2.6l.4,1.3c.2.5.3,1,.4,1.4.1.4.3.7.4,1,.2.3.3.5.5.6.2.1.5.2.8.2h.1v.9h-1.2ZM133.5,16.4c.2,0,.5,0,.9-.2.4-.1.7-.4,1-.8.3-.4.6-1,.8-1.9.2-.8.3-1.9.3-3.3,0-2-.3-3.5-.9-4.6s-1.5-1.6-2.6-1.6h-3.5v12.3h4Z" fill="#231f20"/>
  <path d="M144.3,29.1h0c.4,0,.7-.2.9-.6.2-.4.3-.9.3-1.5V4.1h-1.8c-.3,0-.7.2-1,.6-.4.4-.7.8-1,1.3-.3.5-.6,1-.8,1.6s-.3,1-.4,1.4h0c0,.1-.6.1-.6.1l.7-5.9h11.8l.7,5.9h-.6c0-.5-.2-1-.4-1.5-.2-.6-.5-1.1-.8-1.6-.3-.5-.6-1-1-1.3-.4-.4-.7-.6-1.1-.6h-1.8v22.9c0,.6.1,1.1.3,1.5.2.4.5.6.9.6h.1v.9h-4.8v-.9Z" fill="#231f20"/>
  <path d="M153.5,29.1h.1c.4,0,.7-.2.9-.6.2-.4.3-.9.3-1.5V6.3c0-.7-.1-1.2-.3-1.6-.2-.4-.5-.6-.9-.6h-.1v-.9h11.1l.7,5.9h-.6c0-.5-.2-1-.4-1.5-.2-.5-.5-1.1-.8-1.6-.3-.5-.6-1-1-1.3-.4-.4-.7-.5-1.1-.5h-4.6v8.9h2.9c.3,0,.5,0,.8-.1s.5-.2.7-.4.4-.4.5-.7c.1-.3.2-.7.2-1.1v-.2h.6v5.9h-.6v-.2c0-.4,0-.8-.2-1.1-.1-.3-.3-.5-.5-.7-.2-.2-.4-.3-.7-.4s-.5-.1-.8-.1h-2.9v13.1c0,.6.1,1.1.3,1.5.2.4.5.6,1,.6h0v.9h-4.8v-.9Z" fill="#231f20"/>
  <path d="M165.5,29.1h0c.4,0,.7-.2.9-.6.2-.4.3-.9.3-1.5V6.3c0-.7-.1-1.2-.3-1.6-.2-.4-.5-.6-.9-.6h-.1v-.9h11.4l.7,5.9h-.6c0-.5-.2-1-.4-1.5-.2-.5-.5-1.1-.8-1.6-.3-.5-.6-1-1-1.3-.4-.4-.7-.5-1.1-.5h-4.9v8.9h2.9c.3,0,.5,0,.8-.1s.5-.2.7-.4.4-.4.5-.7c.1-.3.2-.7.2-1.1v-.2h.6v5.9h-.6v-.2c0-.4,0-.8-.2-1.1-.1-.3-.3-.5-.5-.7-.2-.2-.4-.3-.7-.4s-.5-.1-.8-.1h-2.9v15.2h5.4c.5,0,1-.2,1.3-.6.4-.4.7-.9,1-1.4.3-.6.5-1.1.6-1.7.2-.6.3-1,.3-1.3v-.2s.5.2.5.2l-.7,5.9h-12v-.9Z" fill="#231f20"/>
  <path d="M178.7,29.1h.1c.4,0,.7-.2.9-.6s.3-.9.3-1.6V6.2c0-.6-.1-1.2-.3-1.5-.2-.4-.5-.6-.9-.6h0v-.9h4.8v.9h0c-.4,0-.7.2-1,.6-.2.4-.3.9-.3,1.5v22.9h3.7c.4,0,.7-.2,1.1-.5.4-.4.7-.8,1-1.3.3-.5.6-1.1.8-1.6.2-.6.3-1,.4-1.4h0c0-.1.6-.1.6-.1l-.8,5.9h-10.2v-.9Z" fill="#231f20"/>
  <path d="M191.5,29.1h0c.4,0,.7-.2.9-.6.2-.4.3-.9.3-1.5V4.1h-1.8c-.3,0-.7.2-1,.6-.4.4-.7.8-1,1.3-.3.5-.6,1-.8,1.6s-.3,1-.4,1.4h0c0,.1-.6.1-.6.1l.7-5.9h11.8l.7,5.9h-.6c0-.5-.2-1-.4-1.5-.2-.6-.5-1.1-.8-1.6-.3-.5-.6-1-1-1.3-.4-.4-.7-.6-1.1-.6h-1.8v22.9c0,.6.1,1.1.3,1.5.2.4.5.6.9.6h.1v.9h-4.8v-.9Z" fill="#231f20"/>
  <path d="M213,29.1h.1c.4,0,.7-.2.9-.6s.3-.9.3-1.6V6.2c0-.6-.1-1.2-.3-1.5-.2-.4-.5-.6-.9-.6h0v-.9h4.8v.9h0c-.4,0-.7.2-1,.6-.2.4-.3.9-.3,1.5v22.9h3.7c.4,0,.7-.2,1.1-.5.4-.4.7-.8,1-1.3.3-.5.6-1.1.8-1.6.2-.6.3-1,.4-1.4h0c0-.1.6-.1.6-.1l-.8,5.9h-10.2v-.9Z" fill="#231f20"/>
  <path d="M231.7,30.4c-.9,0-1.8-.3-2.7-.9s-1.7-1.5-2.4-2.6c-.7-1.1-1.3-2.6-1.7-4.3-.4-1.7-.6-3.7-.6-5.9s.2-4.3.7-6.1c.4-1.8,1-3.2,1.8-4.4s1.5-2.1,2.5-2.7c.9-.6,1.8-.9,2.8-.9s1.8.3,2.7,1,1.7,1.6,2.4,2.8c.7,1.2,1.3,2.7,1.7,4.4.4,1.7.7,3.7.7,5.9s-.2,4.3-.7,6.1c-.5,1.7-1.1,3.1-1.8,4.3-.7,1.1-1.5,2-2.4,2.5-.8.6-1.6.8-2.4.8h-.6ZM231.9,3.5c-.7,0-1.3.3-2,1-.6.7-1.1,1.6-1.6,2.8-.4,1.2-.8,2.6-1.1,4.2-.3,1.6-.4,3.3-.4,5.1s.1,3,.4,4.5c.3,1.5.6,2.9,1.1,4.2.4,1.2,1,2.3,1.6,3.1.6.8,1.3,1.2,2,1.2s1.3-.3,1.9-1,1.1-1.6,1.6-2.8c.5-1.2.8-2.5,1.1-4.1.3-1.6.4-3.2.4-5s-.1-3.6-.4-5.1-.6-3-1.1-4.2c-.5-1.2-1-2.1-1.6-2.8-.6-.7-1.3-1-2-1Z" fill="#231f20"/>
  <path d="M239.5,5.2c-.1-.5-.3-.8-.4-.9,0-.1-.3-.2-.6-.2h-.3v-.9h4.8v.9h-.1c0,0-.2,0-.4,0-.1,0-.3.2-.4.5-.2.4-.2,1,0,1.8.1.5.3,1.3.5,2.3.2,1,.5,2.1.8,3.4.3,1.2.6,2.5.9,3.9.3,1.4.6,2.6.9,3.8s.5,2.3.7,3.2.3,1.6.4,2c.1-.4.3-1.2.5-2.2.2-1,.5-2.2.8-3.5.3-1.3.6-2.7.9-4.1.3-1.4.6-2.8.9-4,.3-1.2.5-2.3.7-3.2s.3-1.5.4-1.7c0-.2,0-.5.1-.8,0-.3,0-.6,0-.8-.2-.4-.5-.6-.9-.6h-.3v-.9h3.5v.9h-.1c0,0-.2,0-.3,0-.1,0-.3.1-.4.3-.1.1-.3.3-.5.6-.2.3-.3.6-.4,1.1,0,.4-.2,1.1-.4,1.9-.2.9-.4,1.9-.7,3.1-.3,1.2-.6,2.5-.9,3.8-.3,1.4-.6,2.7-.9,4.1-.3,1.4-.6,2.7-.9,4-.3,1.3-.5,2.4-.8,3.4-.2,1-.4,1.8-.5,2.4-.1.6-.2.9-.2,1h0c0,.1-.6.1-.6.1l-5.9-24.8Z" fill="#231f20"/>
  <path d="M253,29.1h0c.4,0,.7-.2.9-.6.2-.4.3-.9.3-1.5V6.3c0-.7-.1-1.2-.3-1.6-.2-.4-.5-.6-.9-.6h-.1v-.9h11.4l.7,5.9h-.6c0-.5-.2-1-.4-1.5-.2-.5-.5-1.1-.8-1.6-.3-.5-.6-1-1-1.3-.4-.4-.7-.5-1.1-.5h-4.9v8.9h2.9c.3,0,.5,0,.8-.1s.5-.2.7-.4.4-.4.5-.7c.1-.3.2-.7.2-1.1v-.2h.6v5.9h-.6v-.2c0-.4,0-.8-.2-1.1-.1-.3-.3-.5-.5-.7-.2-.2-.4-.3-.7-.4s-.5-.1-.8-.1h-2.9v15.2h5.4c.5,0,1-.2,1.3-.6.4-.4.7-.9,1-1.4.3-.6.5-1.1.6-1.7.2-.6.3-1,.3-1.3v-.2s.5.2.5.2l-.7,5.9h-12v-.9Z" fill="#231f20"/>
  <path d="M284.1,30.4c-.5,0-1.1,0-1.6-.3-.5-.2-1.1-.4-1.6-.8-.5-.3-.9-.7-1.3-1.2-.4-.5-.8-1-1.1-1.5h0c0,0,1.1-3.8,1.1-3.8v.3c.3.6.5,1.2.6,1.7s.4,1,.6,1.6c.3.6.5,1.1.9,1.5.3.5.7.9,1.1,1.2.4.3.8.5,1.2.5.8,0,1.4-.2,1.9-.7.5-.4.9-1,1.2-1.6.3-.6.5-1.3.6-2,.1-.7.2-1.3.2-1.9,0-.9,0-1.6-.3-2.2-.2-.6-.4-1.1-.6-1.5-.2-.4-.5-.7-.7-.9-.2-.2-.4-.4-.6-.4l-4-2.2c-.3-.2-.7-.4-1-.9-.4-.4-.7-.9-1-1.5-.3-.6-.5-1.3-.7-2.1-.2-.8-.2-1.6-.1-2.6,0-.4.1-.9.3-1.7s.4-1.4.7-2.1c.4-.7.9-1.3,1.5-1.8.7-.5,1.5-.8,2.6-.8s1.8.3,2.5.8c.7.5,1.3,1.1,1.7,1.7.4.6.9,1.5,1.3,2.5h0c0,0-1.5,2.9-1.5,2.9v-.3c0,0,0-.3,0-.6,0-.4-.1-.8-.2-1.3-.1-.5-.3-1-.5-1.6-.2-.6-.5-1.1-.8-1.6s-.7-.9-1.2-1.2c-.5-.3-1-.5-1.7-.5s-1.4.4-1.9,1.3c-.5.8-.8,1.9-.9,3.2,0,1.3,0,2.4.5,3.3.4,1,1,1.6,1.7,2,.2.1.4.2.8.4.3.2.6.4,1,.5.3.2.7.4.9.5.3.2.5.3.7.4.5.2.9.5,1.3.9.4.4.8.8,1.1,1.4.3.6.6,1.3.8,2.1.2.8.3,1.8.3,3s-.1,2.2-.4,3.2c-.3,1-.7,1.8-1.2,2.5-.5.7-1.1,1.2-1.8,1.6s-1.5.6-2.4.6Z" fill="#231f20"/>
  <path d="M294.5,29.1h0c.4,0,.7-.2.9-.6.2-.4.3-.9.3-1.5V4.1h-1.8c-.3,0-.7.2-1,.6-.4.4-.7.8-1,1.3-.3.5-.6,1-.8,1.6s-.3,1-.4,1.4h0c0,.1-.6.1-.6.1l.7-5.9h11.8l.7,5.9h-.6c0-.5-.2-1-.4-1.5-.2-.6-.5-1.1-.8-1.6-.3-.5-.6-1-1-1.3-.4-.4-.7-.6-1.1-.6h-1.8v22.9c0,.6.1,1.1.3,1.5.2.4.5.6.9.6h.1v.9h-4.8v-.9Z" fill="#231f20"/>
  <path d="M311.3,30.4c-.9,0-1.8-.3-2.7-.9s-1.7-1.5-2.4-2.6c-.7-1.1-1.3-2.6-1.7-4.3-.4-1.7-.6-3.7-.6-5.9s.2-4.3.7-6.1c.4-1.8,1-3.2,1.8-4.4s1.5-2.1,2.5-2.7c.9-.6,1.8-.9,2.8-.9s1.8.3,2.7,1,1.7,1.6,2.4,2.8c.7,1.2,1.3,2.7,1.7,4.4.4,1.7.7,3.7.7,5.9s-.2,4.3-.7,6.1c-.5,1.7-1.1,3.1-1.8,4.3-.7,1.1-1.5,2-2.4,2.5-.8.6-1.6.8-2.4.8h-.6ZM311.5,3.5c-.7,0-1.3.3-2,1-.6.7-1.1,1.6-1.6,2.8-.4,1.2-.8,2.6-1.1,4.2-.3,1.6-.4,3.3-.4,5.1s.1,3,.4,4.5c.3,1.5.6,2.9,1.1,4.2.4,1.2,1,2.3,1.6,3.1.6.8,1.3,1.2,2,1.2s1.3-.3,1.9-1,1.1-1.6,1.6-2.8c.5-1.2.8-2.5,1.1-4.1.3-1.6.4-3.2.4-5s-.1-3.6-.4-5.1-.6-3-1.1-4.2c-.5-1.2-1-2.1-1.6-2.8-.6-.7-1.3-1-2-1Z" fill="#231f20"/>
  <path d="M333.2,30c-.8,0-1.5-.2-2.1-.6-.5-.4-1-1.1-1.3-2-.2-.5-.3-1.1-.5-1.7-.2-.6-.4-1.3-.6-2s-.4-1.4-.6-2.1c-.2-.7-.4-1.3-.6-1.9-.2-.6-.3-1.1-.4-1.5-.1-.4-.2-.7-.2-.8h-3.9v6.9c0,1.1,0,2,.1,2.7s.2,1.1.3,1.5c.1.3.3.5.4.6s.3.1.5.1h0v.9h-4.8v-.9h0c.4,0,.7-.2.9-.6.2-.4.3-.9.3-1.5V6.2c0-.6-.1-1.2-.3-1.5-.2-.4-.5-.6-.9-.6h0v-.9h6.9c1.8,0,3.2.6,4.2,1.8,1,1.2,1.5,3,1.5,5.2s-.3,3.2-1,4.4c-.7,1.2-1.6,2-2.9,2.5h.2c.6,0,1,.6,1.4,1.8.4,1.2.7,2.3,1,3.1.3.9.6,1.7.8,2.6l.4,1.3c.2.5.3,1,.4,1.4.1.4.3.7.4,1,.2.3.3.5.5.6.2.1.5.2.8.2h.1v.9h-1.2ZM326.9,16.4c.2,0,.5,0,.9-.2.4-.1.7-.4,1-.8.3-.4.6-1,.8-1.9.2-.8.3-1.9.3-3.3,0-2-.3-3.5-.9-4.6s-1.5-1.6-2.6-1.6h-3.5v12.3h4Z" fill="#231f20"/>
  <path d="M334.4,29.1h0c.4,0,.7-.2.9-.6.2-.4.3-.9.3-1.5V6.2c0-.6-.1-1.2-.3-1.5-.2-.4-.5-.6-.9-.6h0v-.9h4.8v.9h0c-.4,0-.7.2-1,.6-.2.4-.3.9-.3,1.5v20.8c0,.6.1,1.1.3,1.5.2.4.5.6,1,.6h0v.9h-4.8v-.9Z" fill="#231f20"/>
  <path d="M339.8,29.1h0c.4,0,.7-.2.9-.6.2-.4.3-.9.3-1.5V6.3c0-.7-.1-1.2-.3-1.6-.2-.4-.5-.6-.9-.6h-.1v-.9h11.4l.7,5.9h-.6c0-.5-.2-1-.4-1.5-.2-.5-.5-1.1-.8-1.6-.3-.5-.6-1-1-1.3-.4-.4-.7-.5-1.1-.5h-4.9v8.9h2.9c.3,0,.5,0,.8-.1s.5-.2.7-.4.4-.4.5-.7c.1-.3.2-.7.2-1.1v-.2h.6v5.9h-.6v-.2c0-.4,0-.8-.2-1.1-.1-.3-.3-.5-.5-.7-.2-.2-.4-.3-.7-.4s-.5-.1-.8-.1h-2.9v15.2h5.4c.5,0,1-.2,1.3-.6.4-.4.7-.9,1-1.4.3-.6.5-1.1.6-1.7.2-.6.3-1,.3-1.3v-.2s.5.2.5.2l-.7,5.9h-12v-.9Z" fill="#231f20"/>
  <path d="M358.6,30.4c-.5,0-1.1,0-1.6-.3-.5-.2-1.1-.4-1.6-.8-.5-.3-.9-.7-1.3-1.2-.4-.5-.8-1-1.1-1.5h0c0,0,1.1-3.8,1.1-3.8v.3c.3.6.5,1.2.6,1.7s.4,1,.6,1.6c.3.6.5,1.1.9,1.5.3.5.7.9,1.1,1.2.4.3.8.5,1.2.5.8,0,1.4-.2,1.9-.7.5-.4.9-1,1.2-1.6.3-.6.5-1.3.6-2,.1-.7.2-1.3.2-1.9,0-.9,0-1.6-.3-2.2-.2-.6-.4-1.1-.6-1.5-.2-.4-.5-.7-.7-.9-.2-.2-.4-.4-.6-.4l-4-2.2c-.3-.2-.7-.4-1-.9-.4-.4-.7-.9-1-1.5-.3-.6-.5-1.3-.7-2.1-.2-.8-.2-1.6-.1-2.6,0-.4.1-.9.3-1.7s.4-1.4.7-2.1c.4-.7.9-1.3,1.5-1.8.7-.5,1.5-.8,2.6-.8s1.8.3,2.5.8c.7.5,1.3,1.1,1.7,1.7.4.6.9,1.5,1.3,2.5h0c0,0-1.5,2.9-1.5,2.9v-.3c0,0,0-.3,0-.6,0-.4-.1-.8-.2-1.3-.1-.5-.3-1-.5-1.6-.2-.6-.5-1.1-.8-1.6s-.7-.9-1.2-1.2c-.5-.3-1-.5-1.7-.5s-1.4.4-1.9,1.3c-.5.8-.8,1.9-.9,3.2,0,1.3,0,2.4.5,3.3.4,1,1,1.6,1.7,2,.2.1.4.2.8.4.3.2.6.4,1,.5.3.2.7.4.9.5.3.2.5.3.7.4.5.2.9.5,1.3.9.4.4.8.8,1.1,1.4.3.6.6,1.3.8,2.1.2.8.3,1.8.3,3s-.1,2.2-.4,3.2c-.3,1-.7,1.8-1.2,2.5-.5.7-1.1,1.2-1.8,1.6s-1.5.6-2.4.6Z" fill="#231f20"/>
  <path d="M377.4,29.1h.1c.4,0,.7-.2.9-.6.2-.4.3-.9.3-1.5V6.3c0-.7-.1-1.2-.3-1.6-.2-.4-.5-.6-.9-.6h-.1v-.9h11.1l.7,5.9h-.6c0-.5-.2-1-.4-1.5-.2-.5-.5-1.1-.8-1.6-.3-.5-.6-1-1-1.3-.4-.4-.7-.5-1.1-.5h-4.6v8.9h2.9c.3,0,.5,0,.8-.1s.5-.2.7-.4.4-.4.5-.7c.1-.3.2-.7.2-1.1v-.2h.6v5.9h-.6v-.2c0-.4,0-.8-.2-1.1-.1-.3-.3-.5-.5-.7-.2-.2-.4-.3-.7-.4s-.5-.1-.8-.1h-2.9v13.1c0,.6.1,1.1.3,1.5.2.4.5.6,1,.6h0v.9h-4.8v-.9Z" fill="#231f20"/>
  <path d="M389.4,29.1h0c.4,0,.7-.2.9-.6.2-.4.3-.9.3-1.5V6.2c0-.6-.1-1.2-.3-1.5-.2-.4-.5-.6-.9-.6h0v-.9h4.8v.9h0c-.4,0-.7.2-1,.6-.2.4-.3.9-.3,1.5v20.8c0,.6.1,1.1.3,1.5.2.4.5.6,1,.6h0v.9h-4.8v-.9Z" fill="#231f20"/>
  <path d="M394.9,29.1h.1c.4,0,.7-.2.9-.6s.3-.9.3-1.6V6.2c0-.6-.1-1.2-.3-1.5-.2-.4-.5-.6-.9-.6h0v-.9h4.8v.9h0c-.4,0-.7.2-1,.6-.2.4-.3.9-.3,1.5v22.9h3.7c.4,0,.7-.2,1.1-.5.4-.4.7-.8,1-1.3.3-.5.6-1.1.8-1.6.2-.6.3-1,.4-1.4h0c0-.1.6-.1.6-.1l-.8,5.9h-10.2v-.9Z" fill="#231f20"/>
  <path d="M406.1,29.1h.1c.4,0,.7-.2.9-.6s.3-.9.3-1.6V6.2c0-.6-.1-1.2-.3-1.5-.2-.4-.5-.6-.9-.6h0v-.9h4.8v.9h0c-.4,0-.7.2-1,.6-.2.4-.3.9-.3,1.5v22.9h3.7c.4,0,.7-.2,1.1-.5.4-.4.7-.8,1-1.3.3-.5.6-1.1.8-1.6.2-.6.3-1,.4-1.4h0c0-.1.6-.1.6-.1l-.8,5.9h-10.2v-.9Z" fill="#231f20"/>
  <path d="M417.2,29.1h0c.4,0,.7-.2.9-.6.2-.4.3-.9.3-1.5V6.3c0-.7-.1-1.2-.3-1.6-.2-.4-.5-.6-.9-.6h-.1v-.9h11.4l.7,5.9h-.6c0-.5-.2-1-.4-1.5-.2-.5-.5-1.1-.8-1.6-.3-.5-.6-1-1-1.3-.4-.4-.7-.5-1.1-.5h-4.9v8.9h2.9c.3,0,.5,0,.8-.1s.5-.2.7-.4.4-.4.5-.7c.1-.3.2-.7.2-1.1v-.2h.6v5.9h-.6v-.2c0-.4,0-.8-.2-1.1-.1-.3-.3-.5-.5-.7-.2-.2-.4-.3-.7-.4s-.5-.1-.8-.1h-2.9v15.2h5.4c.5,0,1-.2,1.3-.6.4-.4.7-.9,1-1.4.3-.6.5-1.1.6-1.7.2-.6.3-1,.3-1.3v-.2s.5.2.5.2l-.7,5.9h-12v-.9Z" fill="#231f20"/>
  <path d="M430.3,29.1h0c.4,0,.7-.2.9-.6.2-.4.3-.9.3-1.5V6.3c0-.7-.1-1.2-.3-1.6-.2-.4-.5-.6-.9-.6h-.1v-.9h6.4c.9,0,1.8.3,2.6.8.9.5,1.6,1.3,2.3,2.4.7,1.1,1.2,2.5,1.6,4.1.4,1.7.6,3.7.6,6s-.1,3.2-.4,4.8c-.3,1.6-.8,3.1-1.4,4.3-.6,1.3-1.4,2.3-2.3,3.1-.9.8-2.1,1.2-3.3,1.2h-6.2v-.9ZM435.9,29.1c.7,0,1.4-.2,2.1-.7.7-.4,1.3-1.2,1.9-2.1s1-2.3,1.4-3.9.5-3.6.5-5.9-.1-3.6-.4-5.1c-.3-1.5-.7-2.8-1.2-3.9-.5-1.1-1.1-1.9-1.8-2.5-.7-.6-1.5-.9-2.4-.9h-2.3v25h2.1Z" fill="#231f20"/>
  <path d="M467.3,15.4c-.4,1.7-.7,3.4-1.1,5.1-.4,1.7-.7,3.3-1.1,4.7-.4,1.6-.7,3.2-1.1,4.7h0c0,0-.6,0-.6,0l-5.9-24.8c-.1-.5-.3-.8-.4-.9,0-.1-.3-.2-.6-.2h-.3v-.9h4.8v.9h-.1c0,0-.2,0-.4,0-.1,0-.3.2-.4.5-.2.4-.2,1,0,1.8.1.5.3,1.3.5,2.3.2,1,.5,2.1.8,3.4.3,1.2.6,2.5.9,3.9.3,1.4.6,2.6.9,3.8s.5,2.3.7,3.2.3,1.6.4,2c0-.4.2-.9.4-1.7.2-.8.4-1.6.6-2.6.2-1,.5-2.1.7-3.2.3-1.1.5-2.3.8-3.4l-2.2-9c-.1-.5-.2-.8-.3-.9,0-.1-.3-.2-.6-.2h-.3v-.9h4.7v.9h-.1c0,0-.2,0-.3,0-.2,0-.3.2-.4.5-.2.4-.1,1,0,1.8.1.5.3,1.3.5,2.3.2,1,.5,2.1.8,3.4.3,1.2.6,2.5.9,3.9.3,1.4.6,2.6.9,3.8.3,1.2.5,2.3.7,3.2s.3,1.6.4,2c.1-.4.3-1.2.5-2.2s.5-2.2.8-3.5c.3-1.3.6-2.7.9-4.1.3-1.4.6-2.8.9-4,.3-1.2.5-2.3.7-3.2s.3-1.5.4-1.7c0-.2,0-.5.1-.8,0-.3,0-.6,0-.8-.2-.4-.5-.6-.9-.6h-.3v-.9h3.5v.9h-.1c0,0-.2,0-.3,0-.1,0-.3.1-.4.3-.2.1-.3.3-.5.6-.1.3-.3.6-.4,1.1,0,.4-.2,1.1-.4,1.9-.2.9-.4,1.9-.7,3.1-.3,1.2-.6,2.5-.9,3.8-.3,1.4-.6,2.7-.9,4.1-.3,1.4-.6,2.7-.9,4-.3,1.3-.5,2.4-.8,3.4-.2,1-.4,1.8-.5,2.4-.1.6-.2.9-.2,1h0c0,.1-.6.1-.6.1l-3.5-14.6Z" fill="#231f20"/>
  <path d="M478.4,29.1h0c.4,0,.7-.2.9-.6.2-.4.3-.9.3-1.5V6.2c0-.6-.1-1.2-.3-1.5-.2-.4-.5-.6-.9-.6h0v-.9h4.8v.9h0c-.4,0-.7.2-1,.6-.2.4-.3.9-.3,1.5v20.8c0,.6.1,1.1.3,1.5.2.4.5.6,1,.6h0v.9h-4.8v-.9Z" fill="#231f20"/>
  <path d="M487.7,29.1h0c.4,0,.7-.2.9-.6.2-.4.3-.9.3-1.5V4.1h-1.8c-.3,0-.7.2-1,.6-.4.4-.7.8-1,1.3-.3.5-.6,1-.8,1.6s-.3,1-.4,1.4h0c0,.1-.6.1-.6.1l.7-5.9h11.8l.7,5.9h-.6c0-.5-.2-1-.4-1.5-.2-.6-.5-1.1-.8-1.6-.3-.5-.6-1-1-1.3-.4-.4-.7-.6-1.1-.6h-1.8v22.9c0,.6.1,1.1.3,1.5.2.4.5.6.9.6h.1v.9h-4.8v-.9Z" fill="#231f20"/>
  <path d="M506.1,29.1h0c.4,0,.7-.2.9-.6.2-.4.3-.9.3-1.5v-12.9h-7.1v12.9c0,.6.1,1.1.3,1.5.2.4.5.6,1,.6h0v.9h-4.8v-.9h0c.4,0,.7-.2.9-.6.2-.4.3-.9.3-1.5V6.2c0-.6-.1-1.2-.3-1.5-.2-.4-.5-.6-.9-.6h0v-.9h4.8v.9h0c-.4,0-.7.2-1,.6-.2.4-.3.9-.3,1.5v7h7.1v-7c0-.6-.1-1.2-.3-1.5-.2-.4-.5-.6-.9-.6h0v-.9h4.8v.9h-.1c-.4,0-.7.2-.9.6-.2.4-.3.9-.3,1.5v20.8c0,.6.1,1.1.3,1.5.2.4.5.6.9.6h.1v.9h-4.8v-.9Z" fill="#231f20"/>
  <path d="M529.4,30.4c-.5,0-1.1,0-1.6-.3-.5-.2-1.1-.4-1.6-.8-.5-.3-.9-.7-1.3-1.2-.4-.5-.8-1-1.1-1.5h0c0,0,1.1-3.8,1.1-3.8v.3c.3.6.5,1.2.6,1.7.2.5.4,1,.6,1.6s.5,1.1.9,1.5c.3.5.7.9,1.1,1.2.4.3.8.5,1.2.5.8,0,1.4-.2,1.9-.7.5-.4.9-1,1.2-1.6.3-.6.5-1.3.6-2,.1-.7.2-1.3.2-1.9,0-.9,0-1.6-.2-2.2-.2-.6-.4-1.1-.6-1.5-.2-.4-.5-.7-.7-.9-.2-.2-.4-.4-.6-.4l-4-2.2c-.3-.2-.7-.4-1-.9s-.7-.9-1-1.5c-.3-.6-.5-1.3-.7-2.1-.2-.8-.2-1.6-.1-2.6,0-.4.1-.9.3-1.7s.4-1.4.7-2.1.9-1.3,1.5-1.8c.7-.5,1.5-.8,2.6-.8s1.8.3,2.5.8c.7.5,1.3,1.1,1.7,1.7s.9,1.5,1.3,2.5h0c0,0-1.5,2.9-1.5,2.9v-.3c0,0,0-.3,0-.6,0-.4-.1-.8-.2-1.3-.1-.5-.3-1-.5-1.6-.2-.6-.5-1.1-.8-1.6-.3-.5-.7-.9-1.2-1.2s-1-.5-1.7-.5-1.4.4-1.9,1.3c-.5.8-.8,1.9-.9,3.2,0,1.3,0,2.4.5,3.3.4,1,1,1.6,1.7,2,.2.1.4.2.8.4.3.2.6.4,1,.5.3.2.7.4.9.5s.5.3.7.4c.5.2.9.5,1.3.9.4.4.8.8,1.1,1.4.3.6.6,1.3.8,2.1.2.8.3,1.8.3,3s-.1,2.2-.4,3.2-.7,1.8-1.2,2.5c-.5.7-1.1,1.2-1.8,1.6s-1.5.6-2.4.6Z" fill="#231f20"/>
  <path d="M544.7,29.1h0c.4,0,.7-.2,1-.6.2-.4.3-.9.3-1.5v-12.9h-7.1v12.9c0,.6.1,1.1.3,1.5.2.4.5.6,1,.6h0v.9h-4.8v-.9h0c.4,0,.7-.2,1-.6.2-.4.3-.9.3-1.5V6.2c0-.6-.1-1.2-.3-1.5-.2-.4-.5-.6-1-.6h0v-.9h4.8v.9h0c-.4,0-.7.2-1,.6-.2.4-.3.9-.3,1.5v7h7.1v-7c0-.6-.1-1.2-.3-1.5-.2-.4-.5-.6-1-.6h0v-.9h4.8v.9h-.1c-.4,0-.7.2-.9.6-.2.4-.3.9-.3,1.5v20.8c0,.6.1,1.1.3,1.5.2.4.5.6.9.6h.1v.9h-4.8v-.9Z" fill="#231f20"/>
  <path d="M559.7,30v-.9h.1c0,0,.2,0,.4,0,.1,0,.3-.2.4-.5.2-.4.1-1,0-1.8-.1-.5-.2-1.1-.4-1.9-.2-.8-.4-1.7-.6-2.8h-6.3c-.3,1.2-.5,2.2-.7,3.1-.2.9-.3,1.4-.3,1.6,0,.2-.1.5-.1.8,0,.3,0,.6,0,.8.2.4.5.6,1,.6h.2v.9h-3.5v-.9h.1c0,0,.2,0,.3,0s.3-.1.4-.3c.1-.1.3-.3.5-.6.2-.3.3-.6.4-1.1s.2-1.1.4-1.9c.2-.9.4-1.9.7-3.1s.6-2.5.9-3.8.6-2.7.9-4.1.6-2.7.9-4c.3-1.3.5-2.4.8-3.4.2-1,.4-1.8.5-2.4.1-.6.2-.9.2-1h0c0-.1.6-.1.6-.1l5.9,24.8c.1.5.3.8.4.9,0,.1.3.2.6.2h.3v.9h-4.8ZM559.3,21.2c-.3-1.3-.6-2.6-.9-4-.3-1.4-.6-2.7-.9-3.9-.3-1.2-.5-2.3-.7-3.2-.2-.9-.4-1.6-.4-2,0,.4-.2,1.1-.5,2-.2,1-.5,2.1-.8,3.3-.3,1.2-.6,2.5-.9,3.9-.3,1.4-.6,2.7-.9,3.9h5.9Z" fill="#231f20"/>
  <path d="M578.3,30c-.8,0-1.5-.2-2.1-.6-.5-.4-1-1.1-1.3-2-.2-.5-.3-1.1-.5-1.7-.2-.6-.4-1.3-.6-2-.2-.7-.4-1.4-.6-2.1-.2-.7-.4-1.3-.6-1.9-.2-.6-.3-1.1-.4-1.5-.1-.4-.2-.7-.2-.8h-3.9v6.9c0,1.1,0,2,.1,2.7s.2,1.1.3,1.5c.1.3.2.5.4.6.2,0,.3.1.5.1h0v.9h-4.8v-.9h0c.4,0,.7-.2,1-.6.2-.4.3-.9.3-1.5V6.2c0-.6-.1-1.2-.3-1.5-.2-.4-.5-.6-1-.6h0v-.9h6.9c1.8,0,3.2.6,4.2,1.8,1,1.2,1.5,3,1.5,5.2s-.3,3.2-1,4.4c-.7,1.2-1.6,2-2.9,2.5h.2c.6,0,1,.6,1.4,1.8.4,1.2.7,2.3,1,3.1s.6,1.7.8,2.6l.4,1.3c.2.5.3,1,.4,1.4s.3.7.4,1c.2.3.3.5.5.6.2.1.5.2.8.2h.1v.9h-1.2ZM572,16.4c.2,0,.5,0,.9-.2.4-.1.7-.4,1-.8.3-.4.6-1,.8-1.9.2-.8.3-1.9.3-3.3,0-2-.3-3.5-.9-4.6s-1.5-1.6-2.6-1.6h-3.5v12.3h4Z" fill="#231f20"/>
  <path d="M579.5,29.1h.1c.4,0,.7-.2.9-.6.2-.4.3-.9.3-1.5V6.2c0-.6-.1-1.2-.3-1.5-.2-.4-.5-.6-.9-.6h-.1v-.9h6.8c1.6,0,2.8.7,3.7,2,.9,1.4,1.3,3.3,1.3,5.8s-.4,4.5-1.3,5.9c-.9,1.4-2.1,2.1-3.7,2.1h-3.4v5.1c0,1.1,0,2,.1,2.7s.2,1.1.3,1.5c.1.3.2.5.4.6.2,0,.3.1.5.1h0v.9h-4.8v-.9ZM585.9,18.2c.4,0,.7-.1,1.1-.4.4-.3.7-.7,1.1-1.3.3-.6.6-1.3.8-2.2s.3-2,.3-3.2c0-2.1-.3-3.8-.9-5.1-.6-1.3-1.5-1.9-2.6-1.9h-2.7v14.1h2.9Z" fill="#231f20"/>
  <path d="M604.1,30v-.9h0c.4,0,.7-.2,1-.6.2-.4.3-.9.3-1.5V6.3c0-.7-.1-1.2-.3-1.6-.2-.4-.5-.6-.9-.6h-.1v-.9h6c1.7,0,2.9.6,3.7,1.7.8,1.1,1.3,2.8,1.3,4.9s0,1.1-.2,1.7-.2,1.1-.4,1.6c-.2.5-.4,1-.7,1.4s-.6.7-.9,1c1.2.4,2.1,1.2,2.7,2.4.6,1.2.9,2.8.9,4.7s-.2,2.4-.5,3.3c-.3.9-.8,1.7-1.3,2.3-.6.6-1.2,1.1-1.9,1.3-.7.3-1.4.4-2.2.4h-6.7ZM610.3,15.5c.8,0,1.5-.5,2-1.6s.8-2.4.8-4.1,0-1.6-.2-2.3c-.2-.7-.4-1.3-.7-1.8s-.6-.9-1-1.2c-.4-.3-.8-.4-1.3-.4h-2.2v11.4h2.7ZM610.1,29.1c1.3,0,2.3-.6,3-1.7.7-1.1,1.1-2.7,1.1-4.8s-.1-2.4-.4-3.2c-.2-.8-.6-1.5-.9-1.9-.4-.5-.8-.8-1.3-1-.5-.2-.9-.2-1.4-.2h-2.7v12.8h2.6Z" fill="#231f20"/>
  <path d="M626.4,30v-.9h.1c0,0,.2,0,.4,0,.1,0,.3-.2.4-.5.2-.4.1-1,0-1.8-.1-.5-.2-1.1-.4-1.9-.2-.8-.4-1.7-.6-2.8h-6.3c-.3,1.2-.5,2.2-.7,3.1-.2.9-.3,1.4-.3,1.6,0,.2-.1.5-.1.8,0,.3,0,.6,0,.8.2.4.5.6,1,.6h.2v.9h-3.5v-.9h.1c0,0,.2,0,.3,0s.3-.1.4-.3c.1-.1.3-.3.5-.6.2-.3.3-.6.4-1.1s.2-1.1.4-1.9c.2-.9.4-1.9.7-3.1s.6-2.5.9-3.8.6-2.7.9-4.1.6-2.7.9-4c.3-1.3.5-2.4.8-3.4.2-1,.4-1.8.5-2.4.1-.6.2-.9.2-1h0c0-.1.6-.1.6-.1l5.9,24.8c.1.5.3.8.4.9,0,.1.3.2.6.2h.3v.9h-4.8ZM625.9,21.2c-.3-1.3-.6-2.6-.9-4-.3-1.4-.6-2.7-.9-3.9-.3-1.2-.5-2.3-.7-3.2-.2-.9-.4-1.6-.4-2,0,.4-.2,1.1-.5,2-.2,1-.5,2.1-.8,3.3-.3,1.2-.6,2.5-.9,3.9-.3,1.4-.6,2.7-.9,3.9h5.9Z" fill="#231f20"/>
  <path d="M643.4,30l-10.1-23.4v20.5c0,.6.1,1.1.3,1.5.2.4.5.6,1,.6h0v.9h-3.4v-.9h0c.4,0,.7-.2,1-.6.2-.4.3-.9.3-1.5V6.2c0-.6-.1-1.2-.3-1.5-.2-.4-.5-.6-1-.6h0v-.9h3.3l8.7,19.5V6.2c0-.6-.1-1.2-.3-1.5-.2-.4-.5-.6-1-.6h0v-.9h3.4v.9h-.1c-.4,0-.7.2-1,.6-.2.4-.3.9-.3,1.5v23.8h-.6Z" fill="#231f20"/>
  <path d="M649.7,29.1h0c.4,0,.7-.2,1-.6.2-.4.3-.9.3-1.5V4.1h-1.8c-.3,0-.7.2-1,.6-.4.4-.7.8-1,1.3-.3.5-.6,1-.8,1.6-.2.6-.3,1-.4,1.4h0c0,.1-.6.1-.6.1l.7-5.9h11.8l.7,5.9h-.6c0-.5-.2-1-.4-1.5s-.5-1.1-.8-1.6c-.3-.5-.6-1-1-1.3-.4-.4-.7-.6-1.1-.6h-1.8v22.9c0,.6.1,1.1.3,1.5.2.4.5.6.9.6h.1v.9h-4.8v-.9Z" fill="#231f20"/>
  <path d="M658.9,29.1h0c.4,0,.7-.2,1-.6.2-.4.3-.9.3-1.5V6.3c0-.7-.1-1.2-.3-1.6-.2-.4-.5-.6-.9-.6h-.1v-.9h11.4l.7,5.9h-.6c0-.5-.2-1-.4-1.5-.2-.5-.5-1.1-.8-1.6-.3-.5-.6-1-1-1.3-.4-.4-.7-.5-1.1-.5h-4.9v8.9h2.9c.3,0,.5,0,.8-.1.3,0,.5-.2.7-.4.2-.2.4-.4.5-.7s.2-.7.2-1.1v-.2h.6v5.9h-.6v-.2c0-.4,0-.8-.2-1.1-.1-.3-.3-.5-.5-.7-.2-.2-.4-.3-.7-.4-.3,0-.5-.1-.8-.1h-2.9v15.2h5.4c.5,0,1-.2,1.3-.6s.7-.9,1-1.4c.3-.6.5-1.1.6-1.7.2-.6.3-1,.3-1.3v-.2s.5.2.5.2l-.7,5.9h-12v-.9Z" fill="#231f20"/>
  <path d="M685.7,30c-.8,0-1.5-.2-2.1-.6-.5-.4-1-1.1-1.3-2-.2-.5-.3-1.1-.5-1.7-.2-.6-.4-1.3-.6-2-.2-.7-.4-1.4-.6-2.1-.2-.7-.4-1.3-.6-1.9-.2-.6-.3-1.1-.4-1.5-.1-.4-.2-.7-.2-.8h-3.9v6.9c0,1.1,0,2,.1,2.7s.2,1.1.3,1.5c.1.3.2.5.4.6.2,0,.3.1.5.1h0v.9h-4.8v-.9h0c.4,0,.7-.2,1-.6.2-.4.3-.9.3-1.5V6.2c0-.6-.1-1.2-.3-1.5-.2-.4-.5-.6-1-.6h0v-.9h6.9c1.8,0,3.2.6,4.2,1.8,1,1.2,1.5,3,1.5,5.2s-.3,3.2-1,4.4c-.7,1.2-1.6,2-2.9,2.5h.2c.6,0,1,.6,1.4,1.8.4,1.2.7,2.3,1,3.1s.6,1.7.8,2.6l.4,1.3c.2.5.3,1,.4,1.4s.3.7.4,1c.2.3.3.5.5.6.2.1.5.2.8.2h.1v.9h-1.2ZM679.5,16.4c.2,0,.5,0,.9-.2.4-.1.7-.4,1-.8.3-.4.6-1,.8-1.9.2-.8.3-1.9.3-3.3,0-2-.3-3.5-.9-4.6s-1.5-1.6-2.6-1.6h-3.5v12.3h4Z" fill="#231f20"/>
  <path d="M708.7,30v-.9h.1c0,0,.2,0,.4,0,.1,0,.3-.2.4-.5.2-.4.1-1,0-1.8-.1-.5-.2-1.1-.4-1.9-.2-.8-.4-1.7-.6-2.8h-6.3c-.3,1.2-.5,2.2-.7,3.1-.2.9-.3,1.4-.3,1.6,0,.2-.1.5-.1.8,0,.3,0,.6,0,.8.2.4.5.6,1,.6h.2v.9h-3.5v-.9h.1c0,0,.2,0,.3,0s.3-.1.4-.3c.1-.1.3-.3.5-.6.2-.3.3-.6.4-1.1s.2-1.1.4-1.9c.2-.9.4-1.9.7-3.1s.6-2.5.9-3.8.6-2.7.9-4.1.6-2.7.9-4c.3-1.3.5-2.4.8-3.4.2-1,.4-1.8.5-2.4.1-.6.2-.9.2-1h0c0-.1.6-.1.6-.1l5.9,24.8c.1.5.3.8.4.9,0,.1.3.2.6.2h.3v.9h-4.8ZM708.3,21.2c-.3-1.3-.6-2.6-.9-4-.3-1.4-.6-2.7-.9-3.9-.3-1.2-.5-2.3-.7-3.2-.2-.9-.4-1.6-.4-2,0,.4-.2,1.1-.5,2-.2,1-.5,2.1-.8,3.3-.3,1.2-.6,2.5-.9,3.9-.3,1.4-.6,2.7-.9,3.9h5.9Z" fill="#231f20"/>
  <path d="M725.7,30l-10.1-23.4v20.5c0,.6.1,1.1.3,1.5.2.4.5.6,1,.6h0v.9h-3.4v-.9h0c.4,0,.7-.2,1-.6.2-.4.3-.9.3-1.5V6.2c0-.6-.1-1.2-.3-1.5-.2-.4-.5-.6-1-.6h0v-.9h3.3l8.7,19.5V6.2c0-.6-.1-1.2-.3-1.5-.2-.4-.5-.6-1-.6h0v-.9h3.4v.9h-.1c-.4,0-.7.2-1,.6-.2.4-.3.9-.3,1.5v23.8h-.6Z" fill="#231f20"/>
  <path d="M728.1,29.1h0c.4,0,.7-.2,1-.6.2-.4.3-.9.3-1.5V6.3c0-.7-.1-1.2-.3-1.6-.2-.4-.5-.6-.9-.6h-.1v-.9h6.4c.9,0,1.8.3,2.6.8.9.5,1.6,1.3,2.3,2.4.7,1.1,1.2,2.5,1.6,4.1.4,1.7.6,3.7.6,6s-.2,3.2-.4,4.8c-.3,1.6-.8,3.1-1.4,4.3-.6,1.3-1.4,2.3-2.3,3.1-.9.8-2.1,1.2-3.3,1.2h-6.2v-.9ZM733.7,29.1c.7,0,1.4-.2,2.1-.7.7-.4,1.3-1.2,1.9-2.1s1-2.3,1.4-3.9.5-3.6.5-5.9-.1-3.6-.4-5.1c-.3-1.5-.7-2.8-1.2-3.9s-1.1-1.9-1.8-2.5c-.7-.6-1.5-.9-2.4-.9h-2.3v25h2.1Z" fill="#231f20"/>
  <path d="M763.9,29.1h0c.4,0,.7-.2,1-.6.2-.4.3-.9.3-1.5v-12.9h-7.1v12.9c0,.6.1,1.1.3,1.5.2.4.5.6,1,.6h0v.9h-4.8v-.9h0c.4,0,.7-.2,1-.6.2-.4.3-.9.3-1.5V6.2c0-.6-.1-1.2-.3-1.5-.2-.4-.5-.6-1-.6h0v-.9h4.8v.9h0c-.4,0-.7.2-1,.6-.2.4-.3.9-.3,1.5v7h7.1v-7c0-.6-.1-1.2-.3-1.5-.2-.4-.5-.6-1-.6h0v-.9h4.8v.9h-.1c-.4,0-.7.2-.9.6-.2.4-.3.9-.3,1.5v20.8c0,.6.1,1.1.3,1.5.2.4.5.6.9.6h.1v.9h-4.8v-.9Z" fill="#231f20"/>
  <path d="M778.9,30v-.9h.1c0,0,.2,0,.4,0,.1,0,.3-.2.4-.5.2-.4.1-1,0-1.8-.1-.5-.2-1.1-.4-1.9-.2-.8-.4-1.7-.6-2.8h-6.3c-.3,1.2-.5,2.2-.7,3.1-.2.9-.3,1.4-.3,1.6,0,.2-.1.5-.1.8,0,.3,0,.6,0,.8.2.4.5.6,1,.6h.2v.9h-3.5v-.9h.1c0,0,.2,0,.3,0s.3-.1.4-.3c.1-.1.3-.3.5-.6.2-.3.3-.6.4-1.1s.2-1.1.4-1.9c.2-.9.4-1.9.7-3.1s.6-2.5.9-3.8.6-2.7.9-4.1.6-2.7.9-4c.3-1.3.5-2.4.8-3.4.2-1,.4-1.8.5-2.4.1-.6.2-.9.2-1h0c0-.1.6-.1.6-.1l5.9,24.8c.1.5.3.8.4.9,0,.1.3.2.6.2h.3v.9h-4.8ZM778.4,21.2c-.3-1.3-.6-2.6-.9-4-.3-1.4-.6-2.7-.9-3.9-.3-1.2-.5-2.3-.7-3.2-.2-.9-.4-1.6-.4-2,0,.4-.2,1.1-.5,2-.2,1-.5,2.1-.8,3.3-.3,1.2-.6,2.5-.9,3.9-.3,1.4-.6,2.7-.9,3.9h5.9Z" fill="#231f20"/>
  <path d="M783.8,29.1h.1c.4,0,.7-.2.9-.6.2-.4.3-.9.3-1.5V6.2c0-.6-.1-1.2-.3-1.5-.2-.4-.5-.6-.9-.6h-.1v-.9h6.8c1.6,0,2.8.7,3.7,2,.9,1.4,1.3,3.3,1.3,5.8s-.4,4.5-1.3,5.9c-.9,1.4-2.1,2.1-3.7,2.1h-3.4v5.1c0,1.1,0,2,.1,2.7s.2,1.1.3,1.5c.1.3.2.5.4.6.2,0,.3.1.5.1h0v.9h-4.8v-.9ZM790.2,18.2c.4,0,.7-.1,1.1-.4.4-.3.7-.7,1.1-1.3.3-.6.6-1.3.8-2.2s.3-2,.3-3.2c0-2.1-.3-3.8-.9-5.1-.6-1.3-1.5-1.9-2.6-1.9h-2.7v14.1h2.9Z" fill="#231f20"/>
  <path d="M795.8,29.1h.1c.4,0,.7-.2.9-.6.2-.4.3-.9.3-1.5V6.2c0-.6-.1-1.2-.3-1.5-.2-.4-.5-.6-.9-.6h-.1v-.9h6.8c1.6,0,2.8.7,3.7,2,.9,1.4,1.3,3.3,1.3,5.8s-.4,4.5-1.3,5.9c-.9,1.4-2.1,2.1-3.7,2.1h-3.4v5.1c0,1.1,0,2,.1,2.7s.2,1.1.3,1.5c.1.3.2.5.4.6.2,0,.3.1.5.1h0v.9h-4.8v-.9ZM802.2,18.2c.4,0,.7-.1,1.1-.4.4-.3.7-.7,1.1-1.3.3-.6.6-1.3.8-2.2s.3-2,.3-3.2c0-2.1-.3-3.8-.9-5.1-.6-1.3-1.5-1.9-2.6-1.9h-2.7v14.1h2.9Z" fill="#231f20"/>
  <path d="M807.8,29.1h0c.4,0,.7-.2,1-.6.2-.4.3-.9.3-1.5V6.2c0-.6-.1-1.2-.3-1.5-.2-.4-.5-.6-1-.6h0v-.9h4.8v.9h0c-.4,0-.7.2-1,.6-.2.4-.3.9-.3,1.5v20.8c0,.6.1,1.1.3,1.5.2.4.5.6,1,.6h0v.9h-4.8v-.9Z" fill="#231f20"/>
  <path d="M813.3,29.1h.1c.4,0,.7-.2.9-.6s.3-.9.3-1.6V6.2c0-.6-.1-1.2-.3-1.5-.2-.4-.5-.6-1-.6h0v-.9h4.8v.9h0c-.4,0-.7.2-1,.6-.2.4-.3.9-.3,1.5v22.9h3.7c.4,0,.7-.2,1.1-.5.4-.4.7-.8,1-1.3.3-.5.6-1.1.8-1.6.2-.6.3-1,.4-1.4h0c0-.1.6-.1.6-.1l-.8,5.9h-10.2v-.9Z" fill="#231f20"/>
  <path d="M826,29.1h.1c.4,0,.7-.2,1-.6.2-.4.3-.9.3-1.5v-11c-.1-.3-.3-.8-.6-1.3-.2-.5-.5-1.1-.7-1.8-.3-.6-.5-1.3-.8-1.9s-.5-1.2-.7-1.8-.4-1-.6-1.4c-.2-.4-.2-.6-.3-.6-.1-.2-.2-.5-.4-.9-.1-.4-.3-.7-.5-1s-.4-.6-.6-.8-.4-.3-.7-.3h0v-.9h4.8v.9h-.1c-.3,0-.5.1-.6.4-.1.4,0,.9.2,1.5,0,0,.1.3.3.7s.4.9.6,1.4c.2.6.5,1.2.8,1.9.3.7.6,1.3.8,1.9.3.6.5,1.2.7,1.7s.3.8.4,1.1c0-.2.2-.6.4-1,.2-.5.4-1,.7-1.6.2-.6.5-1.2.8-1.9s.5-1.2.7-1.8c.2-.5.4-1,.6-1.4.2-.4.2-.6.3-.6.1-.4.2-.7.3-1,0-.3,0-.6,0-.8,0-.3-.3-.4-.5-.4h-.1v-.9h3v.9h0c-.2,0-.4,0-.6.3-.2.2-.4.4-.5.6s-.3.5-.4.8c-.1.3-.3.6-.4.9,0,0-.2.4-.4,1-.3.6-.6,1.3-.9,2.2-.4.9-.8,1.9-1.2,3-.4,1.1-.9,2.1-1.3,3.2v10.9c0,.6.1,1.1.3,1.5.2.4.5.6,1,.6h.1v.9h-4.9v-.9Z" fill="#231f20"/>
  <path d="M847.6,29.1h0c.4,0,.7-.2,1-.6.2-.4.3-.9.3-1.5V6.3c0-.7-.1-1.2-.3-1.6-.2-.4-.5-.6-.9-.6h-.1v-.9h11.4l.7,5.9h-.6c0-.5-.2-1-.4-1.5-.2-.5-.5-1.1-.8-1.6-.3-.5-.6-1-1-1.3-.4-.4-.7-.5-1.1-.5h-4.9v8.9h2.9c.3,0,.5,0,.8-.1.3,0,.5-.2.7-.4.2-.2.4-.4.5-.7s.2-.7.2-1.1v-.2h.6v5.9h-.6v-.2c0-.4,0-.8-.2-1.1-.1-.3-.3-.5-.5-.7-.2-.2-.4-.3-.7-.4-.3,0-.5-.1-.8-.1h-2.9v15.2h5.4c.5,0,1-.2,1.3-.6s.7-.9,1-1.4c.3-.6.5-1.1.6-1.7.2-.6.3-1,.3-1.3v-.2s.5.2.5.2l-.7,5.9h-12v-.9Z" fill="#231f20"/>
  <path d="M861.4,5.2c-.1-.5-.3-.8-.4-.9,0-.1-.3-.2-.6-.2h-.3v-.9h4.8v.9h-.1c0,0-.2,0-.4,0-.1,0-.3.2-.4.5-.2.4-.2,1,0,1.8.1.5.3,1.3.5,2.3s.5,2.1.8,3.4c.3,1.2.6,2.5.9,3.9.3,1.4.6,2.6.9,3.8s.5,2.3.7,3.2c.2.9.3,1.6.4,2,.1-.4.3-1.2.5-2.2s.5-2.2.8-3.5c.3-1.3.6-2.7.9-4.1s.6-2.8.9-4c.3-1.2.5-2.3.7-3.2s.3-1.5.4-1.7c0-.2,0-.5.1-.8,0-.3,0-.6,0-.8-.2-.4-.5-.6-.9-.6h-.3v-.9h3.5v.9h-.1c0,0-.2,0-.3,0-.1,0-.3.1-.4.3-.1.1-.3.3-.5.6-.2.3-.3.6-.4,1.1s-.2,1.1-.4,1.9c-.2.9-.4,1.9-.7,3.1-.3,1.2-.6,2.5-.9,3.8-.3,1.4-.6,2.7-.9,4.1s-.6,2.7-.9,4c-.3,1.3-.5,2.4-.8,3.4s-.4,1.8-.5,2.4c-.1.6-.2.9-.2,1h0c0,.1-.6.1-.6.1l-5.9-24.8Z" fill="#231f20"/>
  <path d="M874.9,29.1h0c.4,0,.7-.2,1-.6.2-.4.3-.9.3-1.5V6.3c0-.7-.1-1.2-.3-1.6-.2-.4-.5-.6-.9-.6h-.1v-.9h11.4l.7,5.9h-.6c0-.5-.2-1-.4-1.5-.2-.5-.5-1.1-.8-1.6-.3-.5-.6-1-1-1.3-.4-.4-.7-.5-1.1-.5h-4.9v8.9h2.9c.3,0,.5,0,.8-.1.3,0,.5-.2.7-.4.2-.2.4-.4.5-.7s.2-.7.2-1.1v-.2h.6v5.9h-.6v-.2c0-.4,0-.8-.2-1.1-.1-.3-.3-.5-.5-.7-.2-.2-.4-.3-.7-.4-.3,0-.5-.1-.8-.1h-2.9v15.2h5.4c.5,0,1-.2,1.3-.6s.7-.9,1-1.4c.3-.6.5-1.1.6-1.7.2-.6.3-1,.3-1.3v-.2s.5.2.5.2l-.7,5.9h-12v-.9Z" fill="#231f20"/>
  <path d="M901.8,30c-.8,0-1.5-.2-2.1-.6-.5-.4-1-1.1-1.3-2-.2-.5-.3-1.1-.5-1.7-.2-.6-.4-1.3-.6-2-.2-.7-.4-1.4-.6-2.1-.2-.7-.4-1.3-.6-1.9-.2-.6-.3-1.1-.4-1.5-.1-.4-.2-.7-.2-.8h-3.9v6.9c0,1.1,0,2,.1,2.7s.2,1.1.3,1.5c.1.3.2.5.4.6.2,0,.3.1.5.1h0v.9h-4.8v-.9h0c.4,0,.7-.2,1-.6.2-.4.3-.9.3-1.5V6.2c0-.6-.1-1.2-.3-1.5-.2-.4-.5-.6-1-.6h0v-.9h6.9c1.8,0,3.2.6,4.2,1.8,1,1.2,1.5,3,1.5,5.2s-.3,3.2-1,4.4c-.7,1.2-1.6,2-2.9,2.5h.2c.6,0,1,.6,1.4,1.8.4,1.2.7,2.3,1,3.1s.6,1.7.8,2.6l.4,1.3c.2.5.3,1,.4,1.4s.3.7.4,1c.2.3.3.5.5.6.2.1.5.2.8.2h.1v.9h-1.2ZM895.5,16.4c.2,0,.5,0,.9-.2.4-.1.7-.4,1-.8.3-.4.6-1,.8-1.9.2-.8.3-1.9.3-3.3,0-2-.3-3.5-.9-4.6s-1.5-1.6-2.6-1.6h-3.5v12.3h4Z" fill="#231f20"/>
  <path d="M924.7,30v-.9h.1c0,0,.2,0,.4,0,.1,0,.3-.2.4-.5.2-.4.1-1,0-1.8-.1-.5-.2-1.1-.4-1.9-.2-.8-.4-1.7-.6-2.8h-6.3c-.3,1.2-.5,2.2-.7,3.1-.2.9-.3,1.4-.3,1.6,0,.2-.1.5-.1.8,0,.3,0,.6,0,.8.2.4.5.6,1,.6h.2v.9h-3.5v-.9h.1c0,0,.2,0,.3,0s.3-.1.4-.3c.1-.1.3-.3.5-.6.2-.3.3-.6.4-1.1s.2-1.1.4-1.9c.2-.9.4-1.9.7-3.1s.6-2.5.9-3.8.6-2.7.9-4.1.6-2.7.9-4c.3-1.3.5-2.4.8-3.4.2-1,.4-1.8.5-2.4.1-.6.2-.9.2-1h0c0-.1.6-.1.6-.1l5.9,24.8c.1.5.3.8.4.9,0,.1.3.2.6.2h.3v.9h-4.8ZM924.3,21.2c-.3-1.3-.6-2.6-.9-4-.3-1.4-.6-2.7-.9-3.9-.3-1.2-.5-2.3-.7-3.2-.2-.9-.4-1.6-.4-2,0,.4-.2,1.1-.5,2-.2,1-.5,2.1-.8,3.3-.3,1.2-.6,2.5-.9,3.9-.3,1.4-.6,2.7-.9,3.9h5.9Z" fill="#231f20"/>
  <path d="M929.6,29.1h.1c.4,0,.7-.2.9-.6.2-.4.3-.9.3-1.5V6.3c0-.7-.1-1.2-.3-1.6-.2-.4-.5-.6-.9-.6h-.1v-.9h11.1l.7,5.9h-.6c0-.5-.2-1-.4-1.5-.2-.5-.5-1.1-.8-1.6-.3-.5-.6-1-1-1.3-.4-.4-.7-.5-1.1-.5h-4.6v8.9h2.9c.3,0,.5,0,.8-.1.3,0,.5-.2.7-.4.2-.2.4-.4.5-.7s.2-.7.2-1.1v-.2h.6v5.9h-.6v-.2c0-.4,0-.8-.2-1.1-.1-.3-.3-.5-.5-.7-.2-.2-.4-.3-.7-.4-.3,0-.5-.1-.8-.1h-2.9v13.1c0,.6.1,1.1.3,1.5.2.4.5.6,1,.6h0v.9h-4.8v-.9Z" fill="#231f20"/>
  <path d="M945.5,29.1h0c.4,0,.7-.2,1-.6.2-.4.3-.9.3-1.5V4.1h-1.8c-.3,0-.7.2-1,.6-.4.4-.7.8-1,1.3-.3.5-.6,1-.8,1.6-.2.6-.3,1-.4,1.4h0c0,.1-.6.1-.6.1l.7-5.9h11.8l.7,5.9h-.6c0-.5-.2-1-.4-1.5s-.5-1.1-.8-1.6c-.3-.5-.6-1-1-1.3-.4-.4-.7-.6-1.1-.6h-1.8v22.9c0,.6.1,1.1.3,1.5.2.4.5.6.9.6h.1v.9h-4.8v-.9Z" fill="#231f20"/>
  <path d="M954.7,29.1h0c.4,0,.7-.2,1-.6.2-.4.3-.9.3-1.5V6.3c0-.7-.1-1.2-.3-1.6-.2-.4-.5-.6-.9-.6h-.1v-.9h11.4l.7,5.9h-.6c0-.5-.2-1-.4-1.5-.2-.5-.5-1.1-.8-1.6-.3-.5-.6-1-1-1.3-.4-.4-.7-.5-1.1-.5h-4.9v8.9h2.9c.3,0,.5,0,.8-.1.3,0,.5-.2.7-.4.2-.2.4-.4.5-.7s.2-.7.2-1.1v-.2h.6v5.9h-.6v-.2c0-.4,0-.8-.2-1.1-.1-.3-.3-.5-.5-.7-.2-.2-.4-.3-.7-.4-.3,0-.5-.1-.8-.1h-2.9v15.2h5.4c.5,0,1-.2,1.3-.6s.7-.9,1-1.4c.3-.6.5-1.1.6-1.7.2-.6.3-1,.3-1.3v-.2s.5.2.5.2l-.7,5.9h-12v-.9Z" fill="#231f20"/>
  <path d="M981.6,30c-.8,0-1.5-.2-2.1-.6-.5-.4-1-1.1-1.3-2-.2-.5-.3-1.1-.5-1.7-.2-.6-.4-1.3-.6-2-.2-.7-.4-1.4-.6-2.1-.2-.7-.4-1.3-.6-1.9-.2-.6-.3-1.1-.4-1.5-.1-.4-.2-.7-.2-.8h-3.9v6.9c0,1.1,0,2,.1,2.7s.2,1.1.3,1.5c.1.3.2.5.4.6.2,0,.3.1.5.1h0v.9h-4.8v-.9h0c.4,0,.7-.2,1-.6.2-.4.3-.9.3-1.5V6.2c0-.6-.1-1.2-.3-1.5-.2-.4-.5-.6-1-.6h0v-.9h6.9c1.8,0,3.2.6,4.2,1.8,1,1.2,1.5,3,1.5,5.2s-.3,3.2-1,4.4c-.7,1.2-1.6,2-2.9,2.5h.2c.6,0,1,.6,1.4,1.8.4,1.2.7,2.3,1,3.1s.6,1.7.8,2.6l.4,1.3c.2.5.3,1,.4,1.4s.3.7.4,1c.2.3.3.5.5.6.2.1.5.2.8.2h.1v.9h-1.2ZM975.3,16.4c.2,0,.5,0,.9-.2.4-.1.7-.4,1-.8.3-.4.6-1,.8-1.9.2-.8.3-1.9.3-3.3,0-2-.3-3.5-.9-4.6s-1.5-1.6-2.6-1.6h-3.5v12.3h4Z" fill="#231f20"/>
  <path d="M988.5,30.4c-.5,0-1.1,0-1.6-.3-.5-.2-1.1-.4-1.6-.8-.5-.3-.9-.7-1.3-1.2-.4-.5-.8-1-1.1-1.5h0c0,0,1.1-3.8,1.1-3.8v.3c.3.6.5,1.2.6,1.7.2.5.4,1,.6,1.6s.5,1.1.9,1.5c.3.5.7.9,1.1,1.2.4.3.8.5,1.2.5.8,0,1.4-.2,1.9-.7.5-.4.9-1,1.2-1.6.3-.6.5-1.3.6-2,.1-.7.2-1.3.2-1.9,0-.9,0-1.6-.2-2.2-.2-.6-.4-1.1-.6-1.5-.2-.4-.5-.7-.7-.9-.2-.2-.4-.4-.6-.4l-4-2.2c-.3-.2-.7-.4-1-.9s-.7-.9-1-1.5c-.3-.6-.5-1.3-.7-2.1-.2-.8-.2-1.6-.1-2.6,0-.4.1-.9.3-1.7s.4-1.4.7-2.1.9-1.3,1.5-1.8c.7-.5,1.5-.8,2.6-.8s1.8.3,2.5.8c.7.5,1.3,1.1,1.7,1.7s.9,1.5,1.3,2.5h0c0,0-1.5,2.9-1.5,2.9v-.3c0,0,0-.3,0-.6,0-.4-.1-.8-.2-1.3-.1-.5-.3-1-.5-1.6-.2-.6-.5-1.1-.8-1.6-.3-.5-.7-.9-1.2-1.2s-1-.5-1.7-.5-1.4.4-1.9,1.3c-.5.8-.8,1.9-.9,3.2,0,1.3,0,2.4.5,3.3.4,1,1,1.6,1.7,2,.2.1.4.2.8.4.3.2.6.4,1,.5.3.2.7.4.9.5s.5.3.7.4c.5.2.9.5,1.3.9.4.4.8.8,1.1,1.4.3.6.6,1.3.8,2.1.2.8.3,1.8.3,3s-.1,2.2-.4,3.2-.7,1.8-1.2,2.5c-.5.7-1.1,1.2-1.8,1.6s-1.5.6-2.4.6Z" fill="#231f20"/>
</svg>