<?xml version="1.0" encoding="UTF-8"?>
<svg id="Layer_1" data-name="Layer 1" xmlns="http://www.w3.org/2000/svg" viewBox="0 0 399.102 53.847">
  <path d="M13.982,10.613c1.586,0,2.961.52,3.595,1.56.265.434-.105.91-.582.91-.264,0-.528-.13-.793-.521-.37-.562-1.322-.909-2.432-.909-1.057,0-2.273.303-3.278,1.039-4.019,2.902-4.177,7.755.582,7.755,4.441,0,3.754-2.772,4.917-2.772,1.375,0-.582,3.075,2.115,3.075,5.657,0,9.57-13.516-3.119-13.688-5.182-.044-11.156,2.643-12.954,9.01-1.798,6.585,3.648,9.877,9.252,9.877,3.384,0,6.768-1.169,8.671-3.552.211-.26.476-.347.688-.347.317,0,.582.26.264.649-1.956,2.772-6.186,4.289-10.31,4.289-6.186,0-12.213-3.379-10.204-10.96C2.403,8.707,9.223,5.415,15.039,5.458c14.169.174,10.416,16.375,2.855,16.375-1.586,0-2.273-.562-2.644-1.732-1.428,1.083-2.644,1.43-4.388,1.43-6.397,0-5.869-6.672-.793-9.834,1.163-.693,2.59-1.083,3.912-1.083Z" fill="#231f20"/>
  <path d="M30.844,16.635c4.494-3.422,7.667-4.679,9.623-4.679,5.499,0,2.273,9.53-5.234,10.224-1.216.174-2.485.26-3.807.217-.317,0-.582.13-.74.347-1.639,3.941,1.533,6.238,5.869,6.238,5.023,0,11.632-3.033,14.275-10.094.159-.434.635-.65,1.005-.65.423,0,.793.261.529.91-2.855,7.928-9.887,11.263-15.544,11.263-5.552,0-9.781-3.249-7.349-8.62.159-.39.529-.78,1.216-.736,8.988.779,13.482-7.538,9.147-7.538-1.745,0-5.023,1.43-10.046,5.415-1.375,1.083-4.018,9.357-4.282,10.917-.053.39-.476.606-.846.606-.423,0-.846-.26-.793-.823.74-6.455,6.556-18.541,10.997-24.909,2.168-3.119,4.653-4.722,6.081-4.722,2.696,0,1.956,5.372-10.416,16.462-.476.433-.264.606.317.173ZM40.044,1.732c-.688,0-2.167,1.083-3.754,3.206-1.375,1.863-3.014,4.766-4.6,7.971-.106.217.105.347.317.174,8.089-7.581,9.411-11.351,8.037-11.351Z" fill="#231f20"/>
  <path d="M55.109,30.41c-12.742,0-5.657-17.154,7.296-17.544,3.701-.087,6.133,1.646,5.816,4.635-.053.736-.74,1.127-1.269,1.127-.423,0-.793-.261-.688-.693.317-1.56.159-3.553-4.018-3.596-10.204-.087-16.972,14.556-6.768,14.556,5.076,0,8.142-3.423,10.257-7.148.423-.736,1.004-1.083,1.48-1.083.529,0,.793.434.37,1.17-.264.477-.528.953-.793,1.43-1.851,3.596-.264,5.632,2.432,5.632,3.225,0,8.142-2.946,10.574-9.704.212-.606.688-.996,1.058-.996.423,0,.688.39.37,1.256-2.75,7.668-8.195,10.96-12.213,10.96-2.538,0-4.441-1.299-4.706-3.639,0-.26-.159-.303-.317-.13-2.379,2.166-5.393,3.769-8.882,3.769Z" fill="#231f20"/>
  <path d="M87.303,4.679C89.259,1.517,92.009.043,93.965.043c2.115,0,3.384,1.689,1.745,4.896-1.798,3.596-8.037,8.274-11.738,11.394-.211.173-.159.303.159.303,1.428-.043,2.802-.087,4.23-.087.423,0,.687.304.582.65-.106.26-.37.52-.74.606-.211.087-2.697.087-3.172.087-.846,0-1.639,0-2.485.043-.317,0-.582.173-.688.433-3.437,8.145-1.216,11.134,2.432,11.134,3.225,0,7.455-2.253,9.887-5.328,1.216-1.517,2.062-3.423,2.802-5.372.159-.434.635-.649,1.005-.649.476,0,.793.303.529.909-1.005,2.253-1.957,4.245-3.172,5.979-2.591,3.682-6.979,5.762-10.627,5.762-4.864,0-8.407-3.683-4.653-12.303.106-.217,0-.347-.317-.347-.793.043-1.586.086-2.327.13h-.053c-.423,0-.688-.304-.582-.65.159-.347.529-.606,1.004-.649.793-.087,1.639-.13,2.485-.173.317,0,.582-.217.688-.434,1.957-4.159,4.283-8.404,6.345-11.696ZM93.86,5.242c2.696-4.809-1.48-4.809-4.6-.174-1.639,2.426-3.807,5.415-5.71,9.271-.211.477.264.434.582.173,3.648-2.988,8.195-6.454,9.729-9.27Z" fill="#231f20"/>
  <path d="M101.047,29.024c4.071,0,9.993-3.466,12.637-10.267.159-.434.529-.606.898-.606.476,0,.846.303.582.909-1.216,2.816-2.379,5.372-4.389,7.147-3.119,2.816-6.926,4.246-9.993,4.246-4.494,0-7.508-3.032-5.023-9.314,1.058-2.599,3.754-8.23,7.878-8.23,2.168,0,3.067,1.993-1.163,5.328-1.956,1.517-3.701,2.946-4.812,3.64-2.009,4.808.053,7.147,3.384,7.147ZM101.999,17.024c2.432-1.906,2.538-2.945,1.639-2.945-1.11,0-3.807,1.689-5.234,5.502,1.11-.521,2.379-1.646,3.596-2.557Z" fill="#231f20"/>
  <path d="M114.368,22.829c-.635,4.072.952,5.762,3.278,5.762,1.639,0,3.648-.823,5.499-2.252.212-.174.159-.434-.053-.693-5.551-7.062-.211-12.347,3.965-12.347,1.639,0,3.12.823,3.595,2.772.74,2.946-.952,6.585-3.701,9.185-.688.649-.846.736-.529,1.083,1.216,1.386,2.167,2.079,3.066,2.079,1.957,0,3.648-3.206,6.979-9.4.317-.606.688-.823,1.005-.823.423,0,.687.477.37,1.213-1.11,2.556-4.335,10.354-8.883,10.354-1.322,0-2.749-.649-4.229-2.209-.37-.391-.74-.044-.899.086-2.326,1.993-4.917,3.119-7.032,3.119-3.12,0-5.234-2.426-4.23-7.928,1.163-6.497,3.49-11.739,7.931-18.107,2.221-3.119,4.97-4.635,6.874-4.635,2.062,0,3.172,1.732,1.533,4.895-2.009,4.072-9.517,9.314-12.901,12.347-.211.217-.423.477-.476.693-.529,1.646-.899,3.292-1.163,4.808ZM127.057,5.285c1.375-2.47.793-3.726-.476-3.726s-3.12,1.126-4.653,3.379c-2.062,3.076-3.913,6.498-5.287,9.877-.106.26,0,.26.211.087,3.542-2.946,8.618-6.758,10.204-9.617ZM128.696,16.852c.053-1.56-.846-2.296-1.903-2.296-2.485,0-6.239,3.942-2.432,9.963.159.261.476.347.846-.086,1.639-1.949,3.49-5.155,3.49-7.581Z" fill="#231f20"/>
  <path d="M137.734,20.88c-2.379,0-3.701-1.213-3.807-2.729-.212-3.423,2.379-6.108,4.124-6.108.687,0,1.216.39,1.48,1.213.37,1.126-.211,3.336-1.533,5.892-.159.303-.159.347.106.303,4.229-.649,6.768-2.296,9.252-5.414.423-.563,1.004-.78,1.428-.78.687,0,1.163.52.74,1.126-2.591,4.116-5.816,8.361-6.715,12.563-.37,1.646.582,2.469,2.167,2.469,3.331,0,9.306-3.552,11.579-10.7.159-.52.529-.736.846-.736.423,0,.793.347.688.823-2.167,7.884-8.882,11.87-13.165,11.87-2.538,0-4.177-1.387-3.595-4.159.529-2.686,1.956-5.198,3.278-7.581.106-.26.053-.303-.211-.13-2.749,1.473-4.97,2.079-6.662,2.079ZM137.628,13.473c-.37,0-.899.433-1.375,1.039-.952,1.257-1.163,4.159-.317,4.332.476.174.793-.216,1.269-1.256.211-.563.529-1.213.688-1.993.317-1.516.105-2.122-.265-2.122Z" fill="#231f20"/>
  <path d="M161.788,31.104c-5.393,0-9.517-3.596-6.186-10.83,1.956-4.288,6.292-7.147,11.896-7.147,4.6,0,8.512,2.469,6.874,8.62-.74,2.687-2.009,3.77-2.802,4.289-.211.173-.211.304.105.26,2.432-.39,8.883.217,10.733-7.277.106-.39.476-.563.793-.563.476,0,.898.304.687.953-1.639,4.938-4.124,8.36-12.319,8.36-.529.087-.74.131-.899.261-2.696,2.035-5.975,3.075-8.882,3.075ZM166.599,14.599c.211-.13-1.375.044-1.692.087-3.489.736-5.657,1.819-7.508,6.021-2.696,6.108.74,8.967,4.864,8.967,1.851,0,3.86-.562,5.499-1.689.212-.173.159-.303-.158-.303-7.614-.477-6.662-9.444-1.005-13.083ZM172.996,21.53c.635-4.419-.582-6.758-2.802-6.758-.37,0-.793.086-1.269.216-6.027,1.95-6.874,11.827-.265,11.61,2.062-.087,4.177-3.812,4.335-5.068Z" fill="#231f20"/>
  <path d="M203.605,17.501c-.106-1.169-.74-2.599-2.432-2.599-.634,0-1.322.216-2.062.52-.423.217-1.058.477-1.427.779-1.11.867-1.798,2.036-1.957,3.249-.476,3.553-1.48,7.019-2.855,10.311-.211.477-.688.693-1.11.693-.582,0-1.11-.434-.688-1.213.529-.997,1.586-2.687,2.221-5.068.74-2.6.899-5.372.265-7.278-.423-1.256-1.164-1.732-1.957-1.732-1.375,0-3.119,1.43-4.335,2.556-1.586,1.473-2.273,2.513-3.119,3.898-1.428,2.427-2.327,4.636-3.596,7.538-.37.866-1.004,1.256-1.48,1.256s-.793-.39-.529-1.083c2.273-5.154,3.542-10.223,5.763-15.335.265-.563.846-.823,1.269-.823.37,0,.635.217.423.606-.476.997-1.375,3.553-1.956,5.459-.053.26,0,.26.106.043.528-.866.952-1.646,1.533-2.383,1.797-2.252,4.547-3.726,6.768-3.726,1.375,0,2.538.563,3.066,1.906.106.26.317.304.476.13,1.427-1.213,3.437-1.992,5.287-1.992,3.278,0,5.869,2.513,3.225,9.616-1.005,2.643-.793,4.549.053,5.502.423.477,1.058.736,1.745.736,4.23,0,7.772-7.364,8.883-9.877.211-.606.793-.996,1.216-.996s.688.39.37,1.256c-2.855,7.798-7.613,11.047-10.997,11.047-1.11,0-2.062-.347-2.75-.996-1.269-1.127-1.692-3.249-.634-6.021,1.004-2.686,1.322-4.636,1.216-5.979Z" fill="#231f20"/>
  <path d="M215.126,24.519c-.952,2.903.105,4.332,1.956,4.332,2.855,0,7.719-3.335,10.416-10.007.212-.477.688-.736,1.058-.736.423,0,.793.304.529.997-2.75,7.797-8.565,11.306-12.478,11.306-2.75,0-4.547-1.732-3.807-4.809,1.48-6.107,6.186-15.075,9.887-20.923,2.009-3.162,4.758-4.636,6.715-4.636,2.115,0,3.331,1.689,1.692,4.896-1.745,3.466-7.772,8.058-11.632,11.22-1.163.953-2.379,2.513-2.855,3.855-.952,2.123-1.428,4.375-1.48,4.505ZM229.243,5.242c1.375-2.427.952-3.596-.159-3.596s-2.961,1.169-4.494,3.465c-1.322,1.993-3.225,4.723-4.758,7.798-.688,1.3-.265,1.517.952.563,3.437-2.729,7.19-5.935,8.459-8.23Z" fill="#231f20"/>
  <path d="M231.619,29.024c4.071,0,9.993-3.466,12.637-10.267.159-.434.529-.606.898-.606.476,0,.846.303.582.909-1.216,2.816-2.379,5.372-4.389,7.147-3.119,2.816-6.926,4.246-9.993,4.246-4.494,0-7.508-3.032-5.023-9.314,1.058-2.599,3.754-8.23,7.878-8.23,2.168,0,3.067,1.993-1.163,5.328-1.956,1.517-3.701,2.946-4.812,3.64-2.009,4.808.053,7.147,3.384,7.147ZM232.572,17.024c2.432-1.906,2.538-2.945,1.639-2.945-1.11,0-3.807,1.689-5.234,5.502,1.11-.521,2.379-1.646,3.596-2.557Z" fill="#231f20"/>
  <path d="M255.884,25.299c.053-.217,0-.26-.159-.087-2.908,3.293-6.292,5.198-8.83,5.198-4.071,0-6.08-4.809-.846-16.331.264-.606.793-.866,1.269-.866s.846.347.582.953c-4.759,10.526-3.701,14.555-.74,14.555,3.754,0,10.627-6.584,12.478-14.599.105-.606.634-.996,1.058-.996s.793.39.582,1.256c-.688,2.816-3.913,11.394-5.287,14.6q-.106.216.211.173c4.917-.91,9.517-1.993,12.478-10.181.211-.562.634-.866,1.004-.866.423,0,.74.391.529.997-3.384,9.79-10.045,10.743-14.222,11.696-.317.086-.529.39-.582.606-.528,1.56-1.375,4.592-3.807,10.267-3.754,8.75-8.618,12.173-11.896,12.173-6.08,0-6.874-11.783,14.011-23.22.212-.13.476-.39.529-.606l1.639-4.722ZM240.34,51.854c2.538,0,6.503-2.945,9.464-10.05,2.22-5.285,3.014-7.971,3.437-9.271.053-.217,0-.26-.211-.13-17.078,10.7-17.078,19.45-12.689,19.45Z" fill="#231f20"/>
  <path d="M271.584,30.324c-4.177,0-6.239-4.853-.952-16.462.264-.52.793-.736,1.216-.736.529,0,.952.303.688.823-4.759,10.613-3.701,14.686-.688,14.686,3.066,0,8.089-4.289,10.839-10.181.634-1.43,1.269-3.119,1.851-4.549.211-.52.74-.736,1.163-.736.529,0,.952.304.687.823-1.427,3.162-2.379,5.892-2.855,7.971-1.163,4.766-.053,6.758,2.009,6.758,3.807,0,10.68-6.584,12.531-14.599.105-.606.634-.996,1.057-.996s.793.39.582,1.256c-.74,3.076-2.167,5.762-3.437,8.102-2.379,4.418-1.11,6.454,1.322,6.454,2.221,0,5.393-1.776,7.561-5.155,1.11-1.732,1.957-3.162,2.75-5.068.211-.52.634-.779.952-.779.37,0,.634.347.423.953-.74,2.036-1.797,4.635-3.754,6.758-2.59,2.859-5.974,5.025-8.671,5.025-1.851,0-3.384-.997-4.124-3.466-.053-.26-.159-.304-.317-.13-2.432,2.122-5.023,3.335-7.085,3.335-2.538,0-4.283-1.862-3.965-6.021-.053-.26-.106-.303-.265-.086-3.014,3.812-6.768,6.021-9.517,6.021Z" fill="#231f20"/>
  <path d="M309.065,20.88c-2.379,0-3.701-1.213-3.807-2.729-.212-3.423,2.379-6.108,4.124-6.108.687,0,1.216.39,1.48,1.213.37,1.126-.211,3.336-1.533,5.892-.159.303-.159.347.106.303,4.229-.649,6.768-2.296,9.252-5.414.423-.563,1.004-.78,1.428-.78.687,0,1.163.52.74,1.126-2.591,4.116-5.816,8.361-6.715,12.563-.37,1.646.582,2.469,2.167,2.469,3.331,0,9.306-3.552,11.579-10.7.159-.52.529-.736.846-.736.423,0,.793.347.688.823-2.167,7.884-8.882,11.87-13.165,11.87-2.538,0-4.177-1.387-3.595-4.159.529-2.686,1.956-5.198,3.278-7.581.106-.26.053-.303-.211-.13-2.749,1.473-4.97,2.079-6.662,2.079ZM308.959,13.473c-.37,0-.898.433-1.375,1.039-.952,1.257-1.163,4.159-.317,4.332.476.174.793-.216,1.269-1.256.211-.563.529-1.213.688-1.993.317-1.516.105-2.122-.265-2.122Z" fill="#231f20"/>
  <path d="M330.21,28.895c2.908,0,7.614-3.942,10.204-10.051.212-.477.635-.692,1.058-.692s.793.303.529.953c-2.75,7.277-8.142,11.35-11.843,11.35-4.177,0-6.239-5.068-.264-16.375.264-.52.793-.736,1.216-.736.529,0,.899.303.634.823-5.499,10.483-4.547,14.729-1.533,14.729ZM333.171,9.964c.582,0,1.004.303.793.953-.211.606-.899.909-1.427.909-.582,0-1.058-.303-.846-.909.264-.65.899-.953,1.48-.953Z" fill="#231f20"/>
  <path d="M347.814,4.679c1.956-3.162,4.706-4.636,6.662-4.636,2.115,0,3.384,1.689,1.745,4.896-1.798,3.596-8.037,8.274-11.738,11.394-.211.173-.159.303.159.303,1.428-.043,2.802-.087,4.23-.087.423,0,.687.304.582.65-.106.26-.37.52-.74.606-.211.087-2.697.087-3.172.087-.846,0-1.639,0-2.485.043-.317,0-.582.173-.688.433-3.437,8.145-1.216,11.134,2.432,11.134,3.225,0,7.455-2.253,9.887-5.328,1.216-1.517,2.062-3.423,2.802-5.372.159-.434.635-.649,1.005-.649.476,0,.793.303.529.909-1.005,2.253-1.957,4.245-3.172,5.979-2.591,3.682-6.979,5.762-10.627,5.762-4.864,0-8.407-3.683-4.653-12.303.106-.217,0-.347-.317-.347-.793.043-1.586.086-2.327.13h-.053c-.423,0-.688-.304-.582-.65.159-.347.529-.606,1.004-.649.793-.087,1.639-.13,2.485-.173.317,0,.582-.217.688-.434,1.957-4.159,4.283-8.404,6.345-11.696ZM354.37,5.242c2.696-4.809-1.48-4.809-4.6-.174-1.639,2.426-3.807,5.415-5.71,9.271-.211.477.264.434.582.173,3.648-2.988,8.195-6.454,9.729-9.27Z" fill="#231f20"/>
  <path d="M361.558,29.024c4.071,0,9.993-3.466,12.637-10.267.159-.434.529-.606.899-.606.476,0,.846.303.581.909-1.216,2.816-2.379,5.372-4.388,7.147-3.119,2.816-6.926,4.246-9.993,4.246-4.494,0-7.508-3.032-5.023-9.314,1.058-2.599,3.754-8.23,7.878-8.23,2.168,0,3.067,1.993-1.163,5.328-1.956,1.517-3.701,2.946-4.812,3.64-2.009,4.808.053,7.147,3.384,7.147ZM362.51,17.024c2.432-1.906,2.538-2.945,1.639-2.945-1.11,0-3.807,1.689-5.234,5.502,1.11-.521,2.379-1.646,3.596-2.557Z" fill="#231f20"/>
  <path d="M372.129,25.256c-.264.216-.582.303-.793.303-.582,0-.899-.477-.317-.996,1.586-1.387,4.23-9.228,5.921-11.264.423-.477,1.11-.692,1.851-.692.688,0,1.48.216,2.062.649,4.282,3.249,8.988,8.188,9.622,11.783.688.13,1.322.217,1.851.217,2.38,0,3.278-1.517,5.287-6.412.159-.346.477-.52.793-.52.477,0,.847.304.635.823-2.221,5.588-4.177,8.144-8.248,7.841-.158,0-.264,0-.423-.043-.105.26-.211.52-.423.779-1.163,1.517-4.124,2.815-8.618,2.643-7.667-.304-7.772-7.798-.265-7.668,1.375,0,3.173.477,5.023,1.083,1.057.347,1.903.606,2.696.823-.688-3.032-5.287-6.931-8.671-9.573-.582-.477-1.27-.866-1.798-.866-.37,0-.635.173-.793.52-1.428,3.162-3.542,9.054-5.393,10.57ZM388.519,26.642l.105-.173c0-.044.054-.044.054-.087-2.433-1.04-5.234-2.166-7.984-2.166s-3.754,1.3-3.277,2.686c.37,1.083,1.851,1.993,3.965,2.166,4.124.347,6.239-1.083,7.085-2.339,0-.044.053-.044.053-.087Z" fill="#231f20"/>
</svg>