<?xml version="1.0" encoding="UTF-8"?>
<svg id="Layer_1" data-name="Layer 1" xmlns="http://www.w3.org/2000/svg" viewBox="0 0 373.611 34.966">
  <path d="M21.982,9.562h2.265v11.791c0,1.296.26,2.174.781,2.633.521.46,1.093.689,1.718.689.703,0,1.347-.311,1.933-.932.586-.621,1.08-1.445,1.484-2.472.403-1.026.683-2.208.839-3.546.156-1.337.156-2.707,0-4.112-.182-1.566-.573-3.112-1.171-4.639-.599-1.526-1.458-2.897-2.577-4.113-1.12-1.215-2.538-2.194-4.256-2.938-1.718-.742-3.774-1.114-6.169-1.114-2.421,0-4.51.486-6.267,1.459-1.757.973-3.208,2.242-4.354,3.809-1.146,1.567-1.998,3.35-2.558,5.349-.56,1.999-.839,4.011-.839,6.037,0,.891.084,1.918.254,3.079.169,1.161.455,2.35.859,3.565.403,1.216.95,2.411,1.64,3.586.689,1.176,1.555,2.222,2.596,3.141,1.041.918,2.277,1.661,3.709,2.228,1.432.567,3.085.852,4.959.852.833,0,1.691-.122,2.577-.365.885-.243,1.757-.574,2.616-.992.859-.419,1.698-.905,2.518-1.459.82-.554,1.555-1.128,2.206-1.722l1.093,1.459c-3.045,2.755-6.715,4.132-11.01,4.132-2.447,0-4.699-.438-6.755-1.316-2.057-.878-3.833-2.094-5.33-3.646-1.497-1.554-2.662-3.396-3.494-5.531-.833-2.133-1.25-4.47-1.25-7.009s.416-4.876,1.25-7.01c.833-2.134,1.997-3.978,3.494-5.53,1.497-1.554,3.273-2.762,5.33-3.627,2.056-.864,4.308-1.296,6.755-1.296,4.867,0,8.889,1.553,12.064,4.659,3.202,3.106,4.803,6.915,4.803,11.426,0,1.027-.15,2.106-.449,3.241-.299,1.135-.749,2.175-1.347,3.12-.599.945-1.341,1.729-2.226,2.35-.885.622-1.9.933-3.045.933-.859,0-1.556-.196-2.089-.588-.534-.392-.943-.816-1.229-1.276-.365-.54-.625-1.161-.781-1.863-.729,1.134-1.627,2.053-2.694,2.755-1.068.702-2.278,1.054-3.631,1.054-1.146,0-2.193-.217-3.143-.648s-1.77-1.026-2.459-1.783c-.69-.756-1.224-1.647-1.601-2.674-.377-1.026-.566-2.12-.566-3.282,0-1.188.188-2.289.566-3.302.377-1.013.904-1.897,1.582-2.654.676-.756,1.49-1.351,2.44-1.782s2.011-.648,3.182-.648c2.395,0,4.321.918,5.779,2.755v-2.229ZM16.398,24.675c.729,0,1.425-.195,2.089-.588.664-.391,1.25-.918,1.757-1.58.508-.661.911-1.432,1.21-2.31.299-.877.449-1.803.449-2.775,0-.432-.059-1.039-.176-1.823-.117-.783-.365-1.566-.742-2.35-.378-.783-.931-1.465-1.66-2.046-.729-.581-1.705-.872-2.928-.872-1.197,0-2.167.291-2.909.872s-1.308,1.263-1.698,2.046c-.391.783-.651,1.566-.781,2.35-.13.784-.195,1.392-.195,1.823,0,.892.137,1.776.41,2.654s.65,1.654,1.132,2.329c.481.676,1.067,1.223,1.757,1.642.689.419,1.451.628,2.284.628Z" fill="#231f20"/>
  <path d="M47.517,28.889v-.892h.156c.156,0,.325-.026.507-.081.182-.054.312-.162.391-.324.13-.297-.039-.77-.508-1.418-.13-.188-.377-.54-.742-1.054-.365-.513-.8-1.114-1.308-1.803-.507-.688-1.048-1.432-1.62-2.229-.573-.797-1.126-1.56-1.66-2.289-.534-.729-1.021-1.398-1.464-2.006-.443-.607-.768-1.06-.976-1.357v10.494c0,.622.169,1.121.507,1.499.338.379.807.567,1.406.567h.117v.892h-7.145v-.892h.117c.598,0,1.067-.188,1.405-.567.338-.378.508-.892.508-1.539V5.104c0-.648-.17-1.161-.508-1.539-.338-.378-.807-.567-1.405-.567h-.117v-.892h7.145v.892h-.117c-.599,0-1.068.189-1.406.567-.338.378-.507.891-.507,1.539v9.359c.234-.27.585-.682,1.054-1.235.468-.554.996-1.175,1.581-1.864.586-.688,1.191-1.397,1.815-2.127.625-.729,1.204-1.404,1.738-2.025.533-.621.996-1.148,1.386-1.58.391-.432.625-.702.703-.811.13-.135.254-.345.371-.628.117-.284.137-.533.059-.75-.052-.188-.175-.31-.371-.364-.195-.054-.397-.081-.605-.081h-.117v-.892h5.232v.892h-.117c-.807,0-1.491.217-2.05.648-.56.432-1.178,1.04-1.855,1.823-.078.081-.273.311-.585.688-.312.379-.697.831-1.152,1.357-.456.526-.944,1.094-1.464,1.702-.521.607-1.015,1.188-1.483,1.742-.469.554-.878,1.033-1.23,1.438-.352.405-.592.689-.722.852.13.189.416.587.859,1.195.442.607.957,1.316,1.542,2.127.586.811,1.217,1.688,1.894,2.634.676.945,1.321,1.851,1.933,2.715.611.864,1.165,1.641,1.659,2.329.494.689.859,1.183,1.093,1.479.338.459.631.837.878,1.134.247.298.488.527.723.689.234.162.468.277.703.344.234.068.507.102.82.102h.117v.892h-7.184Z" fill="#231f20"/>
  <path d="M69.693,28.889v-.892h.156c.13,0,.306-.026.527-.081.221-.054.396-.216.527-.486.234-.432.221-1.026-.039-1.782-.156-.459-.365-1.095-.625-1.904-.261-.811-.573-1.729-.937-2.756h-9.332c-.417,1.216-.768,2.249-1.054,3.1-.287.852-.456,1.398-.508,1.642-.078.242-.15.52-.215.83s-.033.574.098.79c.234.433.703.648,1.406.648h.351v.892h-5.115v-.892h.156c.131,0,.299-.021.508-.061.208-.041.423-.128.644-.264.221-.135.449-.337.683-.607.234-.27.43-.648.586-1.135.13-.405.345-1.054.644-1.945.299-.891.65-1.924,1.054-3.099.403-1.176.833-2.452,1.289-3.829.455-1.378.911-2.748,1.367-4.112.455-1.364.898-2.688,1.327-3.971.43-1.283.807-2.418,1.132-3.404.325-.985.586-1.782.781-2.39.195-.608.292-.926.292-.952l.039-.122h.859l8.667,24.797c.208.486.384.79.527.911.143.122.436.183.878.183h.39v.892h-7.067ZM69.03,20.096c-.417-1.269-.853-2.586-1.308-3.95-.456-1.363-.885-2.653-1.289-3.869-.404-1.216-.761-2.296-1.074-3.241-.312-.945-.534-1.621-.664-2.026-.13.405-.358,1.088-.683,2.047-.326.959-.697,2.053-1.113,3.281-.417,1.229-.853,2.526-1.308,3.89-.456,1.364-.892,2.654-1.308,3.869h8.746Z" fill="#231f20"/>
  <path d="M79.416,27.997h.117c.599,0,1.067-.188,1.406-.567.338-.378.507-.892.507-1.539V2.998h-2.694c-.495,0-1.009.189-1.542.567-.534.378-1.022.824-1.464,1.337-.443.514-.82,1.047-1.132,1.601-.312.554-.508,1.02-.586,1.397l-.039.122h-.859l1.093-5.916h17.531l1.093,5.916h-.859l-.039-.122c-.078-.378-.273-.844-.585-1.397-.312-.554-.697-1.087-1.152-1.601-.456-.513-.944-.959-1.464-1.337-.521-.378-1.042-.567-1.562-.567h-2.655v22.933c0,.622.163,1.121.488,1.499.325.379.787.567,1.386.567h.156v.892h-7.145v-.892Z" fill="#231f20"/>
  <path d="M93.081,27.997h.117c.598,0,1.067-.188,1.405-.567.338-.378.508-.892.508-1.539V5.227c0-.675-.163-1.216-.488-1.621-.326-.405-.761-.607-1.308-.607h-.156v-.892h16.828l1.093,5.875h-.859v-.121c-.078-.378-.273-.837-.585-1.378-.312-.54-.697-1.074-1.152-1.601-.456-.526-.944-.973-1.464-1.337-.521-.364-1.041-.547-1.562-.547h-7.262v8.914h4.256c.39,0,.774-.047,1.152-.143.377-.094.722-.229,1.035-.405.312-.175.566-.411.761-.709.195-.297.293-.661.293-1.094v-.162h.82v5.916h-.82v-.162c0-.405-.098-.756-.293-1.054-.195-.297-.443-.54-.742-.729-.3-.188-.638-.33-1.015-.425-.378-.095-.762-.143-1.152-.143h-4.295v15.194h8.004c.755,0,1.412-.195,1.972-.588.56-.391,1.041-.864,1.445-1.418.403-.553.722-1.107.957-1.661.234-.553.391-.992.468-1.316l.039-.162.742.162-1.054,5.875h-17.687v-.892Z" fill="#231f20"/>
  <path d="M112.524,28.889v-.892h.117c.598,0,1.067-.188,1.405-.567.338-.378.508-.892.508-1.539V5.227c0-.675-.163-1.216-.488-1.621-.326-.405-.761-.607-1.308-.607h-.156v-.892h8.902c2.446,0,4.295.554,5.544,1.661,1.25,1.108,1.874,2.755,1.874,4.943,0,.541-.078,1.094-.234,1.661s-.371,1.114-.644,1.641c-.273.527-.612,1-1.015,1.418-.404.42-.839.75-1.308.993,1.77.379,3.124,1.175,4.061,2.391s1.406,2.782,1.406,4.7c0,1.27-.254,2.37-.762,3.302-.507.932-1.171,1.702-1.991,2.31-.82.607-1.757,1.054-2.811,1.337-1.054.284-2.128.426-3.221.426h-9.878ZM121.661,14.424c1.197,0,2.18-.526,2.948-1.58.768-1.054,1.152-2.432,1.152-4.133,0-.837-.117-1.606-.352-2.31-.234-.702-.566-1.303-.996-1.803-.429-.5-.937-.892-1.522-1.176-.586-.283-1.23-.425-1.933-.425h-3.319v11.426h4.021ZM121.465,27.997c1.926,0,3.422-.573,4.49-1.722,1.067-1.148,1.601-2.735,1.601-4.761,0-1.297-.182-2.351-.546-3.161-.365-.81-.827-1.451-1.386-1.924-.56-.473-1.185-.79-1.874-.952-.69-.162-1.374-.243-2.05-.243h-4.061v12.763h3.826Z" fill="#231f20"/>
  <path d="M151.803,28.889c-1.25,0-2.271-.209-3.065-.628-.794-.419-1.412-1.074-1.854-1.966-.234-.485-.495-1.053-.781-1.701-.287-.648-.592-1.323-.917-2.026-.326-.702-.645-1.404-.957-2.106-.312-.702-.599-1.344-.859-1.925-.26-.58-.482-1.08-.664-1.499-.183-.418-.3-.695-.352-.831h-5.7v6.889c0,1.134.059,2.025.176,2.674.117.648.26,1.142.429,1.479.169.339.371.548.605.629.234.08.468.121.703.121h.117v.892h-7.145v-.892h.117c.598,0,1.067-.188,1.405-.567.338-.378.508-.892.508-1.539V5.104c0-.648-.17-1.161-.508-1.539-.338-.378-.807-.567-1.405-.567h-.117v-.892h10.269c2.707,0,4.789.615,6.247,1.844,1.458,1.229,2.187,2.965,2.187,5.206,0,1.757-.482,3.215-1.445,4.376-.963,1.162-2.382,1.999-4.256,2.513h.234c.859,0,1.548.594,2.069,1.782.521,1.216.996,2.263,1.425,3.141.429.878.839,1.735,1.229,2.572l.625,1.297c.234.514.455.973.664,1.377.208.405.43.736.664.993.234.257.5.452.8.588.299.135.67.202,1.113.202h.156v.892h-1.718ZM142.511,15.315c.338,0,.768-.062,1.289-.183.521-.121,1.021-.392,1.503-.811.481-.418.892-1.039,1.23-1.863.338-.824.508-1.925.508-3.303,0-1.998-.449-3.524-1.347-4.578s-2.193-1.58-3.885-1.58h-5.154v12.317h5.856Z" fill="#231f20"/>
  <path d="M162.97,29.334c-1.328,0-2.635-.297-3.924-.891-1.289-.595-2.454-1.466-3.495-2.614-1.042-1.147-1.881-2.572-2.519-4.274-.638-1.701-.957-3.66-.957-5.875,0-2.296.332-4.321.996-6.077.664-1.756,1.529-3.228,2.597-4.417,1.067-1.188,2.277-2.086,3.631-2.694,1.354-.607,2.72-.911,4.1-.911s2.733.317,4.061.952c1.327.635,2.524,1.56,3.592,2.775,1.067,1.215,1.926,2.694,2.577,4.437.65,1.742.976,3.721.976,5.936,0,2.323-.358,4.343-1.074,6.058-.716,1.716-1.614,3.134-2.694,4.254-1.08,1.121-2.245,1.959-3.494,2.513-1.25.553-2.421.83-3.514.83h-.859ZM163.322,2.431c-1.015,0-1.979.345-2.89,1.033s-1.698,1.635-2.362,2.836c-.664,1.202-1.191,2.601-1.582,4.193-.39,1.595-.585,3.31-.585,5.146,0,1.458.195,2.957.585,4.497.391,1.54.917,2.931,1.582,4.173.664,1.243,1.451,2.263,2.362,3.06s1.875,1.195,2.89,1.195,1.972-.344,2.87-1.033c.898-.688,1.692-1.621,2.382-2.796.689-1.175,1.229-2.546,1.62-4.112s.586-3.228.586-4.983c0-1.837-.195-3.552-.586-5.146-.391-1.593-.924-2.991-1.601-4.193-.677-1.201-1.471-2.147-2.382-2.836-.912-.688-1.874-1.033-2.889-1.033Z" fill="#231f20"/>
  <path d="M192.37,28.889v-.892h.117c.599,0,1.067-.188,1.406-.567.338-.378.507-.877.507-1.499V4.699l-7.653,21.799h-1.522l-7.106-19.772v19.205c0,.622.169,1.121.507,1.499.338.379.807.567,1.406.567h.117v.892h-5.037v-.892h.117c.598,0,1.067-.188,1.405-.567.338-.378.508-.892.508-1.539V5.104c0-.648-.17-1.161-.508-1.539-.338-.378-.807-.567-1.405-.567h-.117v-.892h4.763l7.262,20.623,7.301-20.623h5.076v.892h-.156c-.599,0-1.061.189-1.386.567-.326.378-.488.891-.488,1.539v20.786c0,.647.163,1.161.488,1.539.325.379.787.567,1.386.567h.156v.892h-7.145Z" fill="#231f20"/>
  <path d="M200.374,27.997h.156c.547,0,.982-.195,1.308-.588.325-.391.488-.938.488-1.641V5.104c0-.648-.17-1.161-.508-1.539-.338-.378-.807-.567-1.405-.567h-.117v-.892h7.145v.892h-.117c-.599,0-1.068.189-1.406.567-.338.378-.507.891-.507,1.539v22.893h5.544c.521,0,1.041-.183,1.562-.547.521-.365,1.008-.811,1.464-1.337.455-.527.839-1.067,1.151-1.621.312-.553.508-1.006.586-1.357l.039-.121h.859l-1.132,5.875h-15.11v-.892Z" fill="#231f20"/>
  <path d="M216.851,27.997h.117c.598,0,1.067-.188,1.405-.567.338-.378.508-.892.508-1.539V5.227c0-.675-.163-1.216-.488-1.621-.326-.405-.761-.607-1.308-.607h-.156v-.892h16.828l1.093,5.875h-.858v-.121c-.078-.378-.273-.837-.586-1.378-.312-.54-.697-1.074-1.152-1.601s-.943-.973-1.464-1.337-1.041-.547-1.562-.547h-7.262v8.914h4.255c.391,0,.774-.047,1.152-.143.377-.094.722-.229,1.034-.405.312-.175.566-.411.762-.709.195-.297.293-.661.293-1.094v-.162h.819v5.916h-.819v-.162c0-.405-.098-.756-.293-1.054-.195-.297-.443-.54-.742-.729-.299-.188-.638-.33-1.015-.425-.378-.095-.762-.143-1.152-.143h-4.294v15.194h8.004c.754,0,1.411-.195,1.972-.588.559-.391,1.04-.864,1.444-1.418.403-.553.723-1.107.956-1.661.234-.553.391-.992.469-1.316l.039-.162.742.162-1.055,5.875h-17.687v-.892Z" fill="#231f20"/>
  <path d="M242.072,27.997h.156c.599,0,1.067-.188,1.405-.567.338-.378.508-.892.508-1.539v-10.98c-.209-.324-.481-.756-.82-1.297-.338-.54-.702-1.127-1.093-1.763-.391-.634-.788-1.276-1.19-1.924-.404-.648-.769-1.249-1.094-1.804-.326-.553-.605-1.013-.84-1.377-.233-.365-.364-.574-.39-.628-.156-.243-.346-.548-.566-.912-.222-.364-.469-.709-.742-1.033s-.565-.601-.878-.831c-.312-.229-.638-.344-.977-.344h-.117v-.892h7.067v.892h-.156c-.495,0-.808.148-.938.445-.156.379-.052.865.312,1.459.025.055.156.277.391.668.234.393.527.871.879,1.438.351.567.734,1.189,1.151,1.864.416.676.82,1.323,1.21,1.944.391.622.735,1.176,1.035,1.661.299.486.514.838.645,1.054.13-.216.338-.561.624-1.033.286-.472.611-1.006.977-1.601.364-.594.742-1.215,1.132-1.863.391-.648.755-1.242,1.094-1.783.338-.54.625-.992.858-1.357.234-.364.364-.573.391-.628.208-.351.345-.688.41-1.013.064-.324.045-.594-.059-.811-.131-.297-.391-.445-.781-.445h-.155v-.892h4.372v.892h-.117c-.338,0-.644.088-.917.264s-.527.392-.762.647c-.234.258-.448.534-.644.831-.195.298-.371.581-.527.851-.026.055-.229.379-.605.973-.378.595-.839,1.344-1.386,2.249s-1.152,1.897-1.815,2.978c-.664,1.081-1.309,2.147-1.933,3.201v10.939c0,.622.169,1.121.507,1.499.338.379.807.567,1.406.567h.156v.892h-7.185v-.892Z" fill="#231f20"/>
  <path d="M271.198,14.302c-.546,1.702-1.106,3.404-1.679,5.105-.572,1.702-1.093,3.256-1.562,4.659-.547,1.648-1.067,3.229-1.562,4.741l-.039.081h-.82l-8.668-24.797c-.208-.486-.384-.79-.526-.911-.144-.122-.437-.183-.879-.183h-.391v-.892h7.067v.892h-.156c-.131,0-.307.027-.527.081-.222.055-.397.217-.527.486-.26.378-.26.972,0,1.782.183.541.442,1.317.781,2.33.338,1.013.716,2.141,1.132,3.383.417,1.243.846,2.547,1.289,3.91.442,1.364.865,2.647,1.269,3.85s.755,2.263,1.055,3.181c.299.918.514,1.58.644,1.984.13-.351.319-.904.566-1.661.247-.756.54-1.627.879-2.613.338-.985.702-2.052,1.093-3.2s.781-2.29,1.172-3.424l-3.202-8.995c-.183-.486-.345-.79-.488-.911-.143-.122-.436-.183-.878-.183h-.391v-.892h7.028v.892h-.156c-.104,0-.273.027-.508.081-.234.055-.417.217-.547.486-.234.432-.222,1.026.039,1.782.182.541.442,1.317.781,2.33.338,1.013.716,2.141,1.132,3.383.416,1.243.846,2.547,1.289,3.91.442,1.364.865,2.647,1.269,3.85s.755,2.263,1.055,3.181c.299.918.514,1.58.644,1.984.156-.432.403-1.154.742-2.167.338-1.013.729-2.174,1.171-3.484s.904-2.681,1.387-4.113c.481-1.431.937-2.768,1.366-4.011.43-1.242.794-2.315,1.094-3.221.299-.905.487-1.479.565-1.723s.143-.52.195-.83c.052-.311.013-.574-.117-.79-.234-.432-.689-.648-1.366-.648h-.391v-.892h5.115v.932l-.156-.04c-.104,0-.261.021-.469.061-.209.041-.43.129-.664.264s-.462.338-.683.607c-.222.271-.424.648-.605,1.135-.131.405-.346,1.054-.645,1.944-.3.892-.65,1.925-1.054,3.1-.404,1.175-.834,2.451-1.289,3.829s-.911,2.749-1.366,4.112c-.456,1.364-.892,2.688-1.308,3.971-.417,1.283-.788,2.418-1.113,3.403-.326.986-.593,1.783-.801,2.391-.208.608-.312.926-.312.953l-.039.121h-.82l-5.115-14.587Z" fill="#231f20"/>
  <path d="M307.9,28.889c-1.249,0-2.271-.209-3.064-.628-.795-.419-1.413-1.074-1.855-1.966-.233-.485-.494-1.053-.78-1.701-.287-.648-.593-1.323-.918-2.026-.325-.702-.644-1.404-.956-2.106s-.6-1.344-.859-1.925c-.261-.58-.481-1.08-.664-1.499-.182-.418-.299-.695-.351-.831h-5.701v6.889c0,1.134.059,2.025.176,2.674s.26,1.142.43,1.479c.169.339.371.548.605.629.234.08.469.121.702.121h.117v.892h-7.145v-.892h.117c.599,0,1.066-.188,1.405-.567.338-.378.508-.892.508-1.539V5.104c0-.648-.17-1.161-.508-1.539-.339-.378-.807-.567-1.405-.567h-.117v-.892h10.269c2.707,0,4.789.615,6.247,1.844,1.457,1.229,2.187,2.965,2.187,5.206,0,1.757-.482,3.215-1.444,4.376-.964,1.162-2.382,1.999-4.256,2.513h.233c.859,0,1.549.594,2.069,1.782.521,1.216.996,2.263,1.426,3.141s.839,1.735,1.229,2.572l.625,1.297c.234.514.455.973.664,1.377.208.405.429.736.663.993s.501.452.801.588c.299.135.67.202,1.112.202h.156v.892h-1.718ZM298.608,15.315c.338,0,.767-.062,1.288-.183.521-.121,1.021-.392,1.503-.811.481-.418.892-1.039,1.23-1.863.338-.824.507-1.925.507-3.303,0-1.998-.448-3.524-1.347-4.578s-2.193-1.58-3.885-1.58h-5.154v12.317h5.857Z" fill="#231f20"/>
  <path d="M309.735,27.997h.117c.599,0,1.066-.188,1.405-.567.338-.378.508-.892.508-1.539V5.104c0-.648-.17-1.161-.508-1.539-.339-.378-.807-.567-1.405-.567h-.117v-.892h7.145v.892h-.117c-.599,0-1.067.189-1.405.567-.339.378-.508.891-.508,1.539v20.826c0,.622.169,1.121.508,1.499.338.379.807.567,1.405.567h.117v.892h-7.145v-.892Z" fill="#231f20"/>
  <path d="M323.439,27.997h.117c.599,0,1.067-.188,1.405-.567.338-.378.508-.892.508-1.539V2.998h-2.694c-.494,0-1.009.189-1.542.567s-1.021.824-1.464,1.337c-.443.514-.82,1.047-1.133,1.601-.312.554-.507,1.02-.585,1.397l-.039.122h-.859l1.094-5.916h17.53l1.094,5.916h-.859l-.039-.122c-.078-.378-.273-.844-.586-1.397-.312-.554-.696-1.087-1.151-1.601-.456-.513-.944-.959-1.464-1.337-.521-.378-1.042-.567-1.562-.567h-2.654v22.933c0,.622.162,1.121.487,1.499.325.379.787.567,1.387.567h.156v.892h-7.146v-.892Z" fill="#231f20"/>
  <path d="M337.105,27.997h.117c.599,0,1.066-.188,1.405-.567.338-.378.508-.892.508-1.539V5.227c0-.675-.163-1.216-.488-1.621-.326-.405-.762-.607-1.308-.607h-.156v-.892h16.828l1.093,5.875h-.858v-.121c-.078-.378-.273-.837-.586-1.378-.312-.54-.697-1.074-1.152-1.601s-.943-.973-1.464-1.337-1.041-.547-1.562-.547h-7.263v8.914h4.256c.391,0,.774-.047,1.152-.143.377-.094.722-.229,1.034-.405.312-.175.566-.411.762-.709.195-.297.293-.661.293-1.094v-.162h.819v5.916h-.819v-.162c0-.405-.098-.756-.293-1.054-.195-.297-.443-.54-.742-.729-.299-.188-.638-.33-1.015-.425-.378-.095-.762-.143-1.152-.143h-4.295v15.194h8.005c.754,0,1.411-.195,1.972-.588.559-.391,1.04-.864,1.444-1.418.403-.553.723-1.107.956-1.661.234-.553.391-.992.469-1.316l.039-.162.742.162-1.055,5.875h-17.687v-.892Z" fill="#231f20"/>
  <path d="M364.982,29.334c-.808,0-1.614-.088-2.421-.263-.808-.177-1.575-.426-2.304-.75s-1.393-.716-1.991-1.175-1.119-.973-1.562-1.54l-.078-.081,1.64-3.768.117.323c.286.648.553,1.216.801,1.702.247.486.559,1.007.937,1.56.377.555.801,1.067,1.269,1.54.469.473.989.871,1.562,1.195.572.324,1.184.486,1.835.486,1.145,0,2.082-.223,2.812-.669.728-.445,1.313-.985,1.757-1.62.442-.635.748-1.311.917-2.026.169-.715.254-1.343.254-1.884,0-.892-.124-1.641-.371-2.249-.247-.607-.533-1.107-.858-1.499-.326-.392-.671-.695-1.035-.911s-.663-.365-.897-.446l-5.975-2.229c-.468-.162-.963-.445-1.483-.851s-.995-.904-1.425-1.499c-.43-.594-.769-1.283-1.016-2.066s-.318-1.647-.215-2.593c.053-.378.176-.933.371-1.662.195-.729.56-1.444,1.094-2.146.533-.702,1.294-1.317,2.284-1.844.988-.527,2.277-.79,3.865-.79,1.457,0,2.707.257,3.748.77,1.041.514,1.894,1.088,2.558,1.722.664.636,1.32,1.479,1.972,2.532l.039.081-2.265,2.796-.039-.324c0-.054-.033-.256-.098-.607-.065-.351-.183-.776-.352-1.276-.169-.499-.403-1.033-.702-1.601-.3-.567-.697-1.087-1.191-1.56-.495-.473-1.087-.871-1.776-1.195-.69-.324-1.517-.486-2.479-.486-1.093,0-2.037.419-2.831,1.256-.794.838-1.256,1.904-1.386,3.201-.131,1.27.098,2.384.684,3.343s1.438,1.627,2.558,2.005c.286.108.663.251,1.132.426.469.176.95.358,1.444.547.494.189.963.372,1.406.547.442.177.78.305,1.015.386.677.242,1.328.547,1.952.911.625.364,1.191.831,1.698,1.397.508.567.911,1.257,1.211,2.066.299.811.449,1.811.449,2.999,0,1.161-.209,2.222-.625,3.181-.417.959-1.009,1.782-1.776,2.471-.769.689-1.679,1.223-2.733,1.602-1.054.378-2.22.566-3.494.566Z" fill="#231f20"/>
</svg>